<svg width="64" height="80" viewBox="0 0 64 80" fill="none" xmlns="http://www.w3.org/2000/svg">
<path d="M50.5173 46.3734C46.1498 46.3734 42.5967 49.9267 42.5967 54.2941C42.5967 58.6616 46.15 62.2147 50.5173 62.2147C54.8847 62.2147 58.438 58.6616 58.438 54.2941C58.4378 49.9265 54.8847 46.3734 50.5173 46.3734Z" fill="#7255BA"/>
<path d="M54.3562 53.4388C54.5679 53.2324 54.451 52.8727 54.1585 52.8302L52.0492 52.5238C51.9329 52.5069 51.8324 52.434 51.7806 52.3287L50.8373 50.4173C50.7063 50.1521 50.3282 50.1521 50.1974 50.4173L49.2542 52.3287C49.2021 52.434 49.1018 52.5069 48.9856 52.5238L46.8762 52.8302C46.5835 52.8727 46.4667 53.2324 46.6785 53.4388L48.2049 54.9266C48.289 55.0087 48.3274 55.1266 48.3076 55.2424L47.9473 57.3432C47.8973 57.6346 48.2032 57.857 48.4649 57.7193L50.3515 56.7276C50.4554 56.6729 50.5796 56.6729 50.6835 56.7276L52.5701 57.7193C52.8318 57.857 53.1378 57.6346 53.0878 57.3432L52.7274 55.2424C52.7076 55.1266 52.746 55.0085 52.8301 54.9266L54.3562 53.4388Z" fill="white"/>
<path d="M63.4879 54.2943C63.4879 51.3642 62.7155 48.8355 60.6456 46.2023C58.0465 42.8958 55.9239 41.7513 51.1314 41.1562C50.9188 41.1476 50.679 41.1287 50.4665 41.1202C50.1139 41.1202 50.0272 41.4377 49.894 41.6311C49.8142 41.747 49.7541 41.8793 49.7195 42.0245C49.6217 42.4349 49.7528 42.8464 50.0304 43.1248C50.1786 43.2734 50.3835 43.3879 50.5878 43.4363C55.8384 43.4363 61.1932 47.8072 61.144 54.2945C61.1212 57.3075 59.8832 60.0318 57.8617 61.9675C57.8506 61.9772 57.8398 61.9872 57.829 61.9973C53.7731 65.8489 47.4428 65.8898 43.3384 62.1192C43.3235 62.1036 43.3081 62.0884 43.2921 62.0736C43.2904 62.072 43.2888 62.0704 43.2871 62.0689C41.1299 60.0607 39.8931 57.2276 39.8931 54.2946C39.8931 54.2598 39.8932 54.2251 39.8937 54.1904C39.8938 54.1773 39.894 54.1642 39.8941 54.151C39.8945 54.1296 39.8948 54.1084 39.8951 54.087C39.8954 54.0704 39.8957 54.0539 39.8962 54.0373C39.8965 54.0215 39.897 54.0059 39.8974 53.9901C39.8981 53.969 39.8987 53.9479 39.8993 53.927C39.8995 53.9234 39.8996 53.9199 39.8998 53.9164C40.0342 50.1099 42.1899 46.6738 45.594 44.8843C45.6282 44.8663 45.6612 44.8468 45.6931 44.8259C46.4303 44.4524 48.5085 43.7841 49.343 43.5852C49.6149 43.4508 49.8718 43.3553 50.0304 43.1248C50.212 42.861 50.2853 42.5243 50.2053 42.1883C50.153 41.9692 50.0425 41.7793 49.894 41.6311C49.7033 41.4408 49.1757 41.2427 49.1757 41.2427C49.1757 41.2427 48.986 41.2918 48.7934 41.32C47.9237 41.5273 45.7977 42.187 44.9927 42.5685L34.4391 38.4813V35.0899C36.7234 33.3187 38.3074 30.6854 38.6985 27.6827C39.8354 27.6066 40.8904 27.183 41.751 26.4427C42.8687 25.4816 43.5099 24.0829 43.5099 22.6054C43.5099 21.3754 43.0659 20.2002 42.2726 19.2869V14.8363C42.2726 6.65564 35.6173 0 27.4365 0C19.2557 0 12.6002 6.65564 12.6002 14.8363V19.4032C11.7983 20.3077 11.3635 21.4232 11.3635 22.6052C11.3635 24.0829 12.0046 25.4816 13.1224 26.4432C13.9827 27.183 15.0372 27.6061 16.1741 27.6824C16.4821 30.0704 17.546 32.2849 19.2458 34.0308C19.6888 34.4857 20.1669 34.8983 20.6757 35.2668V38.4812L6.33517 44.0407C6.32783 44.0437 6.32048 44.0465 6.31314 44.0496C6.05548 44.1556 0 46.7263 0 53.799V67.9334C0 69.2962 1.10875 70.4048 2.47157 70.4048H41.2288V78.4245C41.2288 78.94 41.4813 79.4234 41.9043 79.7178C42.172 79.9041 42.487 80 42.8045 80C42.9887 80 43.1738 79.9678 43.351 79.902L50.5182 77.2489L57.685 79.9019C58.1682 80.0809 58.709 80.012 59.1323 79.7178C59.5553 79.4234 59.8078 78.94 59.8078 78.4245V63.3359C62.0842 60.9982 63.4879 57.8071 63.4879 54.2943ZM33.5443 49.1464C33.5527 49.1523 33.5362 49.1401 33.5443 49.1464L29.2544 46.0992L33.6404 40.6854L37.0981 42.0245L33.5443 49.1464ZM29.0715 50.9206H26.0515L25.1143 49.5101L27.5616 47.772L30.0088 49.5101L29.0715 50.9206ZM21.5785 49.1462L18.0249 42.0243L21.4766 40.6876L25.8637 46.1026C25.8687 46.0988 25.8585 46.1062 25.8637 46.1026L21.5785 49.1462ZM40.2229 24.6657C39.8187 25.0133 39.329 25.233 38.7927 25.3144V19.8969C39.1434 19.9502 39.4743 20.0625 39.7743 20.2311C39.7832 20.2361 39.792 20.2411 39.8007 20.2463C39.8032 20.2477 39.8057 20.2491 39.8082 20.2507C39.9846 20.3533 40.1501 20.4758 40.3026 20.6175C40.3112 20.6255 40.3199 20.6333 40.3287 20.641C40.8623 21.1508 41.1659 21.8591 41.1659 22.6054C41.166 23.3993 40.8223 24.1502 40.2229 24.6657ZM14.9441 14.8363C14.9441 7.94799 20.548 2.34391 27.4365 2.34391C34.3249 2.34391 39.9287 7.94799 39.9287 14.8363V17.7568C39.5632 17.6428 39.183 17.5688 38.7926 17.536V17.3961C38.7926 17.383 38.7926 17.3699 38.7926 17.3571C38.7921 17.2499 38.7891 17.1541 38.7799 17.0641C38.7791 17.0561 38.7782 17.0482 38.7773 17.0403C38.7102 16.4633 38.3673 16.0975 36.7159 14.3372C36.6387 14.255 36.5582 14.1691 36.4741 14.0794C36.242 13.8317 35.9829 13.5552 35.6935 13.2453L35.6924 13.2441L35.6912 13.2428C35.4846 13.0217 35.2627 12.7838 35.0243 12.5274C34.8494 12.3396 34.6477 12.19 34.4299 12.0803C34.4163 12.0735 34.4026 12.0667 34.3888 12.0602C34.1005 11.9225 33.7857 11.8535 33.4694 11.8558C33.1382 11.8583 32.8052 11.9394 32.4991 12.1024C32.4435 12.1321 32.3887 12.1644 32.3351 12.1994C28.1518 14.9321 23.0483 16.3044 18.3397 15.9669C17.7599 15.9224 17.1827 16.1253 16.7549 16.5214C16.7464 16.5293 16.738 16.5372 16.7296 16.5453C16.7272 16.5475 16.725 16.5497 16.7228 16.5519C16.7161 16.5585 16.7093 16.5652 16.7025 16.5718C16.7008 16.5735 16.6991 16.5752 16.6974 16.5769C16.6896 16.5847 16.6818 16.5927 16.6741 16.6007C16.6716 16.6033 16.6691 16.6058 16.6666 16.6085C16.6608 16.6146 16.655 16.6205 16.6494 16.6268C16.6471 16.6293 16.6446 16.6319 16.6422 16.6344C16.6347 16.6425 16.6274 16.6505 16.62 16.6588C16.618 16.6611 16.616 16.6635 16.6138 16.6657C16.6083 16.6718 16.603 16.678 16.5975 16.6841C16.5947 16.6874 16.5919 16.6907 16.5889 16.6939C16.5832 16.7007 16.5775 16.7074 16.5718 16.7143C16.5694 16.7171 16.5669 16.72 16.5646 16.7228C16.5586 16.73 16.5527 16.7374 16.5468 16.7446C16.5441 16.7478 16.5416 16.751 16.5389 16.7543C16.5339 16.7607 16.5289 16.7671 16.5239 16.7735C16.5219 16.7761 16.5199 16.7788 16.5178 16.7814C16.5113 16.79 16.5049 16.7985 16.4985 16.8071C16.4961 16.8102 16.4938 16.8133 16.4916 16.8164C16.4872 16.8225 16.4827 16.8286 16.4783 16.8347C16.4758 16.8382 16.4735 16.8416 16.471 16.845C16.4649 16.8536 16.4588 16.8622 16.4528 16.871C16.451 16.8738 16.4491 16.8766 16.4472 16.8794C16.4427 16.8861 16.4382 16.8928 16.4336 16.8996C16.4314 16.9028 16.4293 16.906 16.4272 16.9093C16.4213 16.9183 16.4153 16.9275 16.4094 16.9368C16.4033 16.9464 16.3969 16.9568 16.3911 16.9664C16.3894 16.9693 16.3877 16.9721 16.386 16.9749C16.3811 16.9828 16.3763 16.991 16.3716 16.9991C16.3705 17.0008 16.3696 17.0027 16.3685 17.0044C16.3627 17.0144 16.3569 17.0246 16.3511 17.0347C16.3502 17.0364 16.3493 17.0382 16.3482 17.0399C16.3432 17.0488 16.3383 17.0578 16.3335 17.0669C16.3325 17.0686 16.3318 17.0702 16.3308 17.0719C16.325 17.0825 16.3194 17.0933 16.3139 17.1041C16.3085 17.1146 16.3032 17.1255 16.2978 17.1361C16.2971 17.1375 16.2964 17.1391 16.2957 17.1405C16.285 17.1624 16.2746 17.1844 16.2647 17.2066L16.2633 17.2097C16.2585 17.2207 16.2536 17.2318 16.2489 17.2428C16.2391 17.2661 16.2294 17.2899 16.2203 17.3136L16.2199 17.3147C16.2108 17.3383 16.2022 17.3621 16.1941 17.386L16.1936 17.3872C16.173 17.4477 16.1552 17.5089 16.14 17.5711C15.7343 17.6164 15.3325 17.7078 14.9441 17.8427V14.8363ZM13.7074 22.6055C13.7074 21.9277 14.0003 21.2807 14.5355 20.7708C14.5468 20.7611 14.5578 20.7513 14.5688 20.7413C14.9924 20.3485 15.5266 20.0764 16.081 19.9546V25.3147C15.5446 25.2333 15.0549 25.0138 14.6508 24.6665C14.0511 24.1507 13.7074 23.3996 13.7074 22.6055ZM18.4299 26.5157C18.4308 26.4905 18.4311 26.4654 18.4305 26.4399L18.4277 26.3496C18.4263 26.3086 18.4247 26.2679 18.4247 26.2268V18.3213C18.5636 18.3296 18.7027 18.3364 18.8421 18.3422C23.553 18.5358 28.5494 17.22 32.7868 14.6808C32.9729 14.5694 33.1574 14.4555 33.3404 14.3394C33.3755 14.3171 33.4109 14.2946 33.4459 14.2721C34.0796 14.9525 34.5926 15.4994 35.0076 15.9421C35.7335 16.7158 36.2496 17.2663 36.4487 17.5119V26.2269C36.4487 26.2652 36.4471 26.3033 36.4459 26.3413L36.4427 26.4424C36.4421 26.4693 36.4424 26.4958 36.4437 26.5222C36.3488 29.4037 34.8723 31.9416 32.6568 33.4935C32.638 33.5049 32.6196 33.5168 32.6015 33.5293C31.3269 34.4083 29.8662 34.9315 28.3376 35.0612C28.2837 35.0657 28.229 35.0698 28.1747 35.0734C28.1721 35.0735 28.1694 35.0737 28.1668 35.0738C28.1401 35.0755 28.1135 35.0773 28.0868 35.0787H28.0852C28.0607 35.0801 28.036 35.0813 28.0115 35.0824C28.0063 35.0827 28.001 35.0829 27.9958 35.0832C27.9705 35.0844 27.9452 35.0854 27.9199 35.0865C27.9182 35.0865 27.9165 35.0866 27.9147 35.0866C27.8915 35.0876 27.8682 35.0882 27.8447 35.089C27.8387 35.0891 27.8327 35.0893 27.8266 35.0894C27.8015 35.0901 27.7763 35.0907 27.7513 35.0912H27.7482C27.7238 35.0916 27.6996 35.0919 27.6752 35.0923C27.6694 35.0923 27.6638 35.0924 27.658 35.0924C27.6329 35.0926 27.6076 35.0927 27.5824 35.0927C27.5563 35.0927 27.5299 35.0926 27.5038 35.0924C27.4941 35.0924 27.4844 35.0923 27.4746 35.0921C27.4585 35.0919 27.4426 35.0918 27.4265 35.0915C27.414 35.0913 27.4013 35.0912 27.3888 35.0908C27.3782 35.0907 27.3677 35.0904 27.3571 35.0902C21.886 34.9773 18.5752 30.7247 18.4299 26.5157ZM27.5819 37.4371C27.5841 37.4371 27.5862 37.4371 27.588 37.4371C27.6104 37.4371 27.6327 37.4371 27.6551 37.4369C27.6591 37.4369 27.6632 37.4368 27.6674 37.4368C27.6879 37.4366 27.7083 37.4365 27.7288 37.4362C27.7335 37.4362 27.7382 37.436 27.7429 37.436C27.7619 37.4357 27.7808 37.4354 27.7997 37.4351C27.8144 37.4348 27.8291 37.4344 27.8438 37.4341C27.8533 37.434 27.8629 37.4337 27.8726 37.4335C27.8833 37.4332 27.8941 37.4329 27.9049 37.4326C27.919 37.4321 27.9329 37.4318 27.9469 37.4313C27.956 37.431 27.9651 37.4307 27.9743 37.4304C27.989 37.4299 28.0037 37.4295 28.0183 37.4288C28.0283 37.4285 28.0383 37.428 28.0483 37.4276C28.063 37.4269 28.0779 37.4263 28.0926 37.4257C28.1001 37.4254 28.1077 37.4249 28.1152 37.4246C28.1318 37.4238 28.1482 37.423 28.1647 37.4223C28.1726 37.4218 28.1804 37.4215 28.188 37.421C28.2047 37.4201 28.2215 37.4193 28.238 37.4182C28.2444 37.4179 28.2508 37.4174 28.2571 37.4171C28.2749 37.416 28.2929 37.4149 28.3107 37.4138C28.3171 37.4134 28.3235 37.413 28.3297 37.4126C28.3472 37.4115 28.3649 37.4102 28.3824 37.409C28.3896 37.4085 28.3968 37.4079 28.4041 37.4074C28.4212 37.4062 28.4382 37.4049 28.4552 37.4037C28.4618 37.4032 28.4683 37.4026 28.4751 37.4021C28.4924 37.4007 28.5096 37.3993 28.5268 37.3979C28.5338 37.3973 28.541 37.3966 28.548 37.396C28.5654 37.3944 28.5827 37.393 28.6001 37.3915C28.606 37.391 28.6119 37.3904 28.6179 37.3898C28.636 37.388 28.6543 37.3863 28.6724 37.3846C28.6783 37.384 28.6843 37.3835 28.6901 37.3829C28.7076 37.3812 28.7252 37.3794 28.7427 37.3776C28.7501 37.3768 28.7576 37.376 28.7649 37.3752C28.7816 37.3735 28.7985 37.3716 28.8152 37.3698C28.8218 37.369 28.8282 37.3684 28.8347 37.3676C28.8522 37.3655 28.8697 37.3637 28.8871 37.3616C28.8935 37.3609 28.8997 37.3601 28.9062 37.3594C28.9243 37.3573 28.9426 37.3551 28.9607 37.3529C28.9657 37.3523 28.9707 37.3516 28.9757 37.351C28.9946 37.3487 29.0135 37.3462 29.0324 37.3438C29.0374 37.3432 29.0424 37.3426 29.0474 37.3418C29.0658 37.3393 29.0844 37.3369 29.1029 37.3344C29.1085 37.3337 29.1141 37.3329 29.1197 37.3321C29.1385 37.3294 29.1573 37.3269 29.1762 37.3241C29.1807 37.3235 29.1854 37.3229 29.1899 37.3221C29.2093 37.3193 29.2285 37.3165 29.2477 37.3137C29.2521 37.313 29.2566 37.3124 29.261 37.3116C29.2804 37.3087 29.2996 37.3057 29.319 37.3027C29.3235 37.3019 29.328 37.3013 29.3324 37.3007C29.3519 37.2976 29.3715 37.2944 29.391 37.2913C29.3951 37.2907 29.3991 37.2901 29.4032 37.2893C29.4229 37.286 29.4427 37.2827 29.4624 37.2794C29.4663 37.2788 29.4701 37.2782 29.474 37.2774C29.4944 37.274 29.5149 37.2704 29.5352 37.2668L29.5441 37.2652C29.5665 37.2613 29.5887 37.2573 29.611 37.2532L29.613 37.2529C30.4788 37.0938 31.3104 36.8348 32.0948 36.4885V38.8691L27.5608 44.4656L23.0193 38.8596V36.5652C24.4271 37.1373 25.9704 37.4371 27.5819 37.4371ZM2.34407 67.9334V53.799C2.34407 48.3777 6.92064 46.3387 7.19767 46.2204L15.8296 42.8741L19.623 50.4765C19.8936 51.019 20.3863 51.4145 20.9744 51.5617C21.141 51.6034 21.31 51.6237 21.4783 51.6237C21.904 51.6237 22.3232 51.4923 22.6774 51.2409L23.2024 50.8681L24.1902 52.3548L21.5318 68.0611H11.8527V55.9882C11.8527 55.3409 11.3281 54.8162 10.6808 54.8162C10.0335 54.8162 9.50877 55.3407 9.50877 55.9882V68.0611H2.47188C2.40141 68.0611 2.34407 68.0037 2.34407 67.9334ZM33.5913 68.0611L31.843 57.7328C31.7352 57.0948 31.1319 56.6648 30.4919 56.7729C29.8538 56.8809 29.4241 57.4859 29.5321 58.124L31.2141 68.0611H23.9088L26.4132 53.2646H28.7096L29.5321 58.124C29.6401 58.762 30.2437 59.1926 30.8832 59.0839C31.5213 58.9759 31.951 58.3709 31.843 57.7328L30.9329 52.3549L31.9207 50.8682L32.4455 51.241C32.7999 51.4926 33.219 51.6239 33.6449 51.6239C33.8129 51.6239 33.9821 51.6034 34.1487 51.5618C34.7368 51.4148 35.2293 51.0192 35.5001 50.4768L39.2934 42.8748L42.4918 44.1135C39.4526 46.5051 37.6162 50.1396 37.551 54.0778C37.551 54.0821 37.5509 54.0867 37.5509 54.091C37.5507 54.1046 37.5504 54.1184 37.5502 54.132C37.5501 54.1485 37.5499 54.1649 37.5498 54.1815C37.5498 54.1918 37.5496 54.2021 37.5496 54.2123C37.5495 54.2398 37.5493 54.2673 37.5493 54.2948C37.5493 54.3214 37.5495 54.3478 37.5496 54.3743C37.5705 57.8557 38.9704 61.0164 41.2293 63.3365V68.0615L33.5913 68.0611ZM57.4643 77.3208L51.0654 74.952C50.7129 74.8217 50.3246 74.8215 49.9718 74.9522L43.5731 77.3208V65.2437C43.8173 65.3992 44.0657 65.5454 44.3176 65.6829C44.3317 65.6906 44.3457 65.6983 44.3599 65.7059C44.3704 65.7115 44.3809 65.7173 44.3913 65.7228C46.2171 66.7056 48.304 67.2637 50.5188 67.2637C52.732 67.2637 54.8173 66.7065 56.6421 65.725C56.6562 65.7173 56.6704 65.7098 56.6845 65.7022C56.6936 65.6973 56.7025 65.6923 56.7115 65.6875C56.9664 65.5487 57.2176 65.4008 57.4646 65.2436L57.4643 77.3208Z" fill="#7052BA"/>
<path d="M49.894 41.6311C50.0272 41.4377 50.1139 41.1202 50.4665 41.1202C50.4665 41.1202 50.0472 41.1241 49.7972 41.1562C49.5471 41.1882 49.1757 41.2427 49.1757 41.2427C49.1757 41.2427 49.7033 41.4408 49.894 41.6311Z" fill="#7052BA"/>
<path d="M50.5878 43.4363C50.3835 43.3879 50.1786 43.2734 50.0304 43.1248C49.8718 43.3553 49.6149 43.4508 49.343 43.5852C49.343 43.5852 50.096 43.4363 50.5878 43.4363Z" fill="#7052BA"/>
</svg>
