<svg width="80" height="80" viewBox="0 0 80 80" fill="none" xmlns="http://www.w3.org/2000/svg">
<g clip-path="url(#clip0)">
<path d="M70.7197 68.3317C70.4889 67.622 69.8867 67.1143 69.1483 67.0071L69.1286 67.0043V57.1361C69.1286 56.4866 68.6022 55.9603 67.9528 55.9603C67.3034 55.9603 66.777 56.4866 66.777 57.1361V66.6628L64.8018 66.3759L62.8579 62.4373C62.7753 62.2698 62.6717 62.1184 62.5508 61.9852C62.5358 61.9687 62.5203 61.9523 62.5047 61.9362C62.4968 61.9282 62.489 61.9202 62.4811 61.9123C62.4653 61.8965 62.449 61.881 62.4326 61.8659C62.4245 61.8584 62.4162 61.8509 62.4078 61.8432C62.0586 61.5309 61.6022 61.3518 61.1123 61.3518C60.3775 61.3518 59.7178 61.7548 59.3822 62.4057C59.3768 62.416 59.3717 62.4263 59.3665 62.437L59.0587 63.0607V58.9698C59.0587 58.3202 58.5323 57.794 57.8829 57.794C57.2336 57.794 56.7072 58.3202 56.7072 58.9698V66.4796L53.0761 67.0071C52.3375 67.1145 51.7354 67.622 51.5047 68.3317C51.2739 69.0415 51.4626 69.8062 51.9972 70.3274L53.5293 71.821H47.5825L48.7883 70.6457L49.1148 70.3273C49.6492 69.8062 49.8381 69.0414 49.6073 68.3315C49.5461 68.1429 49.4586 67.9687 49.3493 67.8124C49.3236 67.7757 49.2967 67.7398 49.2686 67.7053C49.2615 67.6967 49.2545 67.6881 49.2473 67.6793C49.1972 67.6195 49.1436 67.5629 49.0868 67.5096C49.0787 67.5021 49.0706 67.4946 49.0623 67.4871C48.7822 67.234 48.4284 67.064 48.0359 67.007L45.4479 66.631L43.4973 55.1066L44.5951 53.4545L45.2062 53.8884C45.5704 54.1468 46.0012 54.2818 46.4386 54.2818C46.6114 54.2818 46.7851 54.2607 46.9564 54.218C47.5606 54.0668 48.0667 53.6602 48.3448 53.1029L52.3887 44.9987L61.5959 48.5643C61.8182 48.6598 66.7767 50.8652 66.7767 56.6512V57.2012C66.7767 57.8507 67.3031 58.377 67.9525 58.377C68.6018 58.377 69.1282 57.8507 69.1282 57.2012V56.6512C69.1282 49.2041 62.7542 46.4979 62.4828 46.3863C62.4753 46.3832 62.4678 46.3802 62.4601 46.3773L47.2143 40.4729V36.8045C49.6475 34.9282 51.3312 32.1255 51.7328 28.9296C52.9436 28.8598 54.0672 28.4149 54.9814 27.6287C56.1506 26.6232 56.8212 25.1599 56.8212 23.6144C56.8212 22.3196 56.3506 21.0824 55.5108 20.1243V15.3869C55.5108 7.89382 49.4183 -0.0413352 40.3452 -0.0413352C39.7069 -0.163991 39.0912 0.253977 38.969 0.89179C38.8465 1.52929 39.2643 2.1457 39.9021 2.26788C48.1877 2.26788 53.1593 9.0196 53.1593 15.3868V18.5696C52.7323 18.4288 52.2853 18.3404 51.8253 18.3065V18.0977C51.8254 17.5476 51.7761 17.293 51.2181 16.6241C51.1978 16.5998 51.1767 16.5749 51.1551 16.5493L51.1545 16.5485C50.8304 16.1677 50.3512 15.6568 49.6428 14.9016C49.3376 14.5762 48.9823 14.1976 48.5689 13.7551C48.557 13.7424 48.5448 13.7294 48.5329 13.7166C48.519 13.7018 48.505 13.6868 48.4911 13.6718C48.2915 13.4579 48.0786 13.2298 47.8515 12.9855C47.8403 12.9735 47.8289 12.9613 47.8173 12.9496C47.1183 12.2315 46.0256 12.089 45.1678 12.598C45.1404 12.6141 45.1136 12.631 45.0868 12.6484C44.6028 12.9646 44.1072 13.2635 43.6018 13.5451C43.5917 13.5507 43.5814 13.5565 43.5709 13.5621C43.5295 13.5851 43.4879 13.608 43.4464 13.6307C39.349 15.8738 34.6253 16.9641 30.224 16.6488C29.6281 16.6032 29.0347 16.8113 28.5951 17.219C28.5939 17.2201 28.5928 17.2213 28.5915 17.2224C28.5842 17.2293 28.577 17.236 28.5698 17.2429C28.5665 17.246 28.5633 17.2491 28.5601 17.2523C28.5533 17.2588 28.5465 17.2655 28.5397 17.2723C28.5379 17.274 28.5362 17.2757 28.5345 17.2773C28.5262 17.2855 28.5181 17.2938 28.5098 17.3024C28.5073 17.3049 28.5048 17.3076 28.5025 17.3102C28.4956 17.3174 28.4887 17.3248 28.482 17.3319C28.4804 17.3337 28.4787 17.3354 28.4772 17.3373C28.4692 17.3459 28.4614 17.3544 28.4537 17.3634C28.4514 17.366 28.449 17.3685 28.4467 17.3712C28.4398 17.379 28.4331 17.3866 28.4264 17.3946C28.4251 17.396 28.4239 17.3974 28.4228 17.3988C28.4148 17.4082 28.4068 17.4177 28.3987 17.4274C28.3973 17.429 28.3961 17.4307 28.3947 17.4324C28.3873 17.4415 28.38 17.4505 28.3726 17.4598C28.3726 17.4598 28.3714 17.4613 28.3708 17.4623C28.3628 17.4724 28.3548 17.4827 28.3467 17.4932C28.3461 17.4941 28.3447 17.4959 28.3447 17.4959C28.3372 17.5057 28.3298 17.5157 28.3225 17.5259L28.3211 17.5279C28.3133 17.5385 28.3056 17.5493 28.2979 17.5602L28.297 17.5615C28.2897 17.5719 28.2823 17.5826 28.2751 17.5934L28.2739 17.5951C28.1211 17.8218 28.012 18.0757 27.9533 18.3427C27.4825 18.3915 27.0162 18.4994 26.5681 18.663V15.3869C26.5681 9.01976 31.4518 2.28891 40.591 2.28891C41.2287 2.16657 41.6465 1.55032 41.5242 0.912818C41.4017 0.275161 40.7853 -0.142808 40.1479 -0.0203077C30.1939 -0.0203077 24.2167 7.89382 24.2167 15.3871V20.2488C23.3676 21.1982 22.907 22.3716 22.907 23.6151C22.907 25.161 23.5776 26.6243 24.747 27.6299C25.6606 28.4157 26.7837 28.8601 27.9945 28.9299C28.31 31.4655 29.4334 33.8179 31.2367 35.6699C31.7111 36.1571 32.2239 36.5982 32.7695 36.991V40.4737L17.54 46.3779C17.5326 46.3809 17.5253 46.3837 17.5179 46.3868C17.2467 46.4984 10.8725 49.2046 10.8725 56.6516V67.0046L10.8528 67.0074C10.1142 67.1148 9.51216 67.6223 9.28138 68.332C9.0506 69.0418 9.23935 69.8065 9.77388 70.3278L12.9192 73.3935L12.1767 77.7226C12.0504 78.4582 12.3473 79.1879 12.9511 79.6265C13.5548 80.0651 14.3403 80.122 15.0011 79.7746L18.8887 77.7309L22.7764 79.7746C23.0637 79.9257 23.3748 80.0003 23.6842 80.0003C24.0861 80.0003 24.4853 79.8742 24.8265 79.6264C25.4304 79.1878 25.7272 78.4581 25.6009 77.7224L24.992 74.1728H33.8972L33.2883 77.7224C33.162 78.4581 33.4589 79.1878 34.0626 79.6264C34.6664 80.0649 35.4518 80.1217 36.1126 79.7745L40 77.7306L43.8876 79.7743C44.175 79.9254 44.4861 79.9999 44.7954 79.9999C45.1972 79.9999 45.5965 79.8739 45.9378 79.626C46.5417 79.1874 46.8384 78.4578 46.7122 77.7221L46.1033 74.1724H55.0084L54.3995 77.7221C54.2733 78.4578 54.5701 79.1874 55.1739 79.626C55.7776 80.0646 56.5631 80.1215 57.2239 79.7742L61.1115 77.7304L64.9992 79.7742C65.2865 79.9253 65.5976 79.9998 65.907 79.9998C66.3089 79.9998 66.7081 79.8737 67.0493 79.6259C67.6533 79.1873 67.95 78.4576 67.8237 77.722L67.0812 73.3929L70.2265 70.3271C70.7614 69.8067 70.9501 69.0417 70.7197 68.3317ZM41.7458 62.4371C41.4154 61.7676 40.7465 61.3518 40.0003 61.3518C39.2539 61.3518 38.5848 61.7676 38.2545 62.437L37.3172 64.3363L38.7247 56.0199H41.2673L42.6708 64.3109L41.7458 62.4371ZM33.6351 51.821L29.8054 44.1459L33.5725 42.6871L38.2925 48.5132L33.6351 51.821C33.6331 51.8226 33.6351 51.821 33.6331 51.8226L33.6351 51.821ZM41.6301 53.6682H38.3614L37.3143 52.0923L39.9959 50.1879L42.6775 52.0923L41.6301 53.6682ZM46.3567 51.8212C46.3606 51.824 46.3528 51.8184 46.3567 51.8212L41.694 48.5093L46.4129 42.6844L50.1864 44.1457L46.3567 51.8212ZM53.4479 25.8463C52.9912 26.239 52.4345 26.4809 51.8251 26.5593V20.6712C52.2809 20.7298 52.7073 20.8798 53.0843 21.1157C53.0897 21.1191 53.0951 21.1224 53.1004 21.1259C53.1072 21.1301 53.1137 21.1343 53.1204 21.1387C53.2664 21.2332 53.4047 21.3409 53.5345 21.4615C53.5423 21.4688 53.5503 21.476 53.5586 21.483C54.1393 22.0355 54.4698 22.8043 54.4698 23.6148C54.4697 24.4748 54.0973 25.2879 53.4479 25.8463ZM25.2581 23.6149C25.2581 22.8784 25.5761 22.1763 26.1564 21.6235C26.1681 21.6135 26.1798 21.6032 26.1914 21.5924C26.6686 21.1501 27.2762 20.8496 27.9026 20.7273V26.5591C27.2931 26.481 26.7361 26.2393 26.28 25.8469C25.6304 25.2885 25.2581 24.4751 25.2581 23.6149ZM30.2593 27.7566C30.2604 27.7305 30.2608 27.7044 30.2601 27.6779L30.2572 27.5816C30.2558 27.5379 30.254 27.494 30.254 27.4501V19.0079C35.4656 19.3349 41.054 17.8919 45.7336 15.0219C45.9033 14.918 46.0715 14.8123 46.2387 14.7044C46.7495 15.2532 47.1868 15.7204 47.5615 16.1201C47.6917 16.259 47.8143 16.3898 47.9298 16.5127C48.7153 17.3501 49.2703 17.9418 49.4737 18.1973V27.4502C49.4737 27.4544 49.4737 27.4588 49.4737 27.463C49.4734 27.5009 49.472 27.5385 49.4708 27.576L49.4676 27.6782C49.467 27.7068 49.4673 27.7349 49.4686 27.763C49.3681 30.8376 47.7926 33.5457 45.4286 35.2009C45.4093 35.2126 45.3901 35.2251 45.3714 35.2379C43.9631 36.2093 42.3415 36.7727 40.6476 36.8849C40.6464 36.8851 40.645 36.8851 40.6437 36.8852C40.5867 36.889 40.5295 36.8923 40.472 36.8949C40.4689 36.8951 40.4658 36.8952 40.4626 36.8954C40.4342 36.8966 40.4059 36.8979 40.3775 36.899H40.3759C40.3493 36.8999 40.3229 36.9009 40.2964 36.9016C40.2911 36.9018 40.2858 36.902 40.2803 36.9021C40.2531 36.9029 40.2262 36.9035 40.199 36.904C40.1968 36.904 40.1947 36.904 40.1925 36.9041C40.1678 36.9046 40.1433 36.9049 40.1186 36.9052C40.1118 36.9052 40.105 36.9054 40.0983 36.9054C40.0715 36.9055 40.045 36.9057 40.0181 36.9057C39.9903 36.9057 39.9625 36.9055 39.9347 36.9054C39.9239 36.9054 39.9131 36.9052 39.9022 36.9051C39.8854 36.9049 39.8684 36.9048 39.8517 36.9045C39.8389 36.9043 39.8261 36.9041 39.8133 36.9038C39.8008 36.9037 39.7883 36.9034 39.7758 36.903C33.9428 36.781 30.4136 32.2452 30.2593 27.7566ZM40.0176 39.2574H40.0195C40.0448 39.2574 40.0701 39.2574 40.0954 39.2571C40.1031 39.2571 40.1108 39.257 40.1184 39.257C40.1367 39.2568 40.1551 39.2566 40.1733 39.2565C40.1815 39.2563 40.1898 39.2562 40.1983 39.256C40.2159 39.2557 40.2336 39.2555 40.2512 39.2551C40.2612 39.2549 40.2712 39.2546 40.2812 39.2545C40.2965 39.2541 40.3122 39.2538 40.3275 39.2534C40.3383 39.253 40.3492 39.2527 40.3601 39.2524C40.3756 39.252 40.3911 39.2515 40.4065 39.251C40.4161 39.2507 40.4256 39.2504 40.4354 39.2501C40.4515 39.2495 40.4676 39.249 40.4837 39.2484C40.4934 39.248 40.5031 39.2476 40.5129 39.2471C40.5292 39.2465 40.5456 39.2457 40.5618 39.2451C40.5711 39.2446 40.5801 39.2441 40.5895 39.2438C40.6061 39.243 40.6228 39.2423 40.6395 39.2413C40.6484 39.2409 40.6572 39.2404 40.6662 39.2399C40.6833 39.239 40.7006 39.238 40.7176 39.2371C40.7262 39.2366 40.7347 39.236 40.7434 39.2355C40.7608 39.2345 40.7781 39.2334 40.7954 39.2323C40.8033 39.2318 40.8111 39.2312 40.8187 39.2307C40.8373 39.2295 40.8561 39.2282 40.8748 39.2268C40.8814 39.2263 40.8879 39.2259 40.8947 39.2254C40.9133 39.224 40.9322 39.2226 40.9508 39.2212C40.9583 39.2205 40.9658 39.2199 40.9734 39.2193C40.9922 39.2177 41.0109 39.2162 41.0297 39.2146C41.0359 39.2141 41.042 39.2135 41.0483 39.213C41.0684 39.2113 41.0887 39.2095 41.1087 39.2076C41.1139 39.2071 41.119 39.2066 41.1242 39.2062C41.1458 39.2041 41.1675 39.2021 41.1889 39.1999C41.1923 39.1996 41.1959 39.1993 41.1993 39.1988C41.2228 39.1965 41.2464 39.1941 41.27 39.1916C41.2717 39.1915 41.2734 39.1913 41.275 39.1912C41.2992 39.1887 41.3233 39.186 41.3475 39.1832C41.3492 39.183 41.3509 39.1829 41.3526 39.1826C42.5903 39.0427 43.7704 38.7107 44.8628 38.2173V40.8624L39.9958 46.8702L35.1203 40.8523V38.3018C36.6275 38.9284 38.285 39.2574 40.0176 39.2574ZM19.7939 75.5499C19.2268 75.2521 18.5497 75.2523 17.9823 75.5501L14.6325 77.3112L15.2723 73.5809C15.3806 72.9493 15.1712 72.3051 14.7123 71.8579L12.0023 69.2164L15.7483 68.6721C15.7943 68.6654 15.84 68.6571 15.8851 68.6471C15.8909 68.6459 15.8965 68.6446 15.9023 68.6432C15.9192 68.6393 15.9362 68.6353 15.9529 68.631C16.3228 68.5359 16.6542 68.3346 16.9078 68.0557C16.9118 68.0514 16.9158 68.0468 16.9198 68.0424C16.9278 68.0335 16.9358 68.0245 16.9437 68.0151C17.0492 67.8924 17.1403 67.7559 17.2136 67.6073L18.8884 64.2134L20.5633 67.607L20.5642 67.6087C20.8147 68.1153 21.2709 68.4845 21.8106 68.6274C21.882 68.6463 21.9548 68.6614 22.0289 68.6721L25.7743 69.2164L23.0643 71.8579C23.0575 71.8646 23.0508 71.8714 23.044 71.8781C23.0393 71.8828 23.0347 71.8876 23.03 71.8923C23.0283 71.894 23.0264 71.8959 23.0247 71.8976C22.5934 72.3428 22.3992 72.9678 22.5043 73.581L23.1442 77.3114L19.7939 75.5499ZM26.4708 71.8212L27.6764 70.6459L28.0029 70.3274C28.5373 69.8064 28.7262 69.0415 28.4954 68.3317C28.2647 67.622 27.6625 67.1143 26.924 67.0071L23.2933 66.4796V58.9696C23.2933 58.3201 22.7668 57.7938 22.1175 57.7938C21.4681 57.7938 20.9417 58.3201 20.9417 58.9696V63.0612L20.6334 62.4368C20.3037 61.7688 19.637 61.3534 18.8925 61.3516C18.8909 61.3516 18.8893 61.3516 18.8878 61.3516C18.3981 61.3516 17.9414 61.5307 17.5922 61.8429C17.5839 61.8502 17.5756 61.8577 17.5673 61.8655C17.5511 61.8807 17.5347 61.8962 17.5189 61.912C17.5109 61.9198 17.5031 61.9277 17.4951 61.9357C17.4795 61.9516 17.464 61.9682 17.449 61.9848C17.3281 62.1179 17.2245 62.2693 17.142 62.4368L15.1981 66.3756L14.9439 66.4126L13.2234 66.6626V56.6513C13.2234 50.8641 18.1086 48.6905 18.4042 48.5645L27.6029 44.9984L31.647 53.103C31.9251 53.6605 32.4314 54.0668 33.0354 54.2182C33.2067 54.261 33.3803 54.282 33.5531 54.282C33.9904 54.282 34.4212 54.147 34.7853 53.8885L35.3964 53.4546L36.4942 55.1068L34.5436 66.6324L31.9642 67.0073C31.2256 67.1146 30.6236 67.6221 30.3928 68.3318C30.162 69.0417 30.3508 69.8064 30.8853 70.3276L32.4175 71.8212H26.4708ZM40.9058 75.5499C40.3387 75.2521 39.6615 75.2523 39.0942 75.5501L35.7443 77.3112L36.3842 73.5809C36.4893 72.9676 36.2951 72.3429 35.8639 71.8974C35.8628 71.8963 35.8617 71.8953 35.8606 71.8942C35.8553 71.8887 35.85 71.8834 35.8447 71.8779C35.8379 71.8712 35.8312 71.8645 35.8243 71.8578L33.1142 69.216L36.8601 68.6718C37.4942 68.5793 38.042 68.1812 38.3253 67.6068L40.0003 64.2129L41.6751 67.6065C41.692 67.6407 41.7098 67.6742 41.7286 67.7071C41.7322 67.7135 41.7358 67.7198 41.7395 67.726C41.7508 67.7454 41.7623 67.7646 41.7745 67.7835C41.7772 67.7876 41.7797 67.7917 41.7823 67.7959C42.0325 68.1862 42.4137 68.4738 42.8559 68.6079C42.9486 68.636 43.0437 68.6574 43.1411 68.6715L46.8864 69.2157L44.1764 71.8573C44.1697 71.8639 44.1629 71.8704 44.1564 71.8771C44.1503 71.8832 44.1442 71.8895 44.1381 71.8957L44.137 71.8968C43.7056 72.342 43.5112 72.9671 43.6164 73.5806L44.2562 77.3109L40.9058 75.5499ZM65.2881 71.8581C64.8292 72.3054 64.6198 72.9495 64.7281 73.581L65.3679 77.3114L62.0178 75.5501C61.4506 75.2521 60.7734 75.2523 60.2064 75.5503L56.8564 77.3114L57.4962 73.581C57.5981 72.9864 57.4186 72.3809 57.0145 71.9387C57.0134 71.9376 57.0123 71.9364 57.0112 71.9353C57.0064 71.9299 57.0014 71.9246 56.9964 71.9193C56.9928 71.9154 56.9892 71.9117 56.9856 71.9079C56.9829 71.9051 56.9803 71.9023 56.9776 71.8996C56.9718 71.8937 56.9661 71.8878 56.9601 71.8818C56.9592 71.8809 56.9584 71.8801 56.9575 71.8792C56.9506 71.8721 56.9436 71.8653 56.9365 71.8584L54.2264 69.2167L57.9725 68.6724C58.6062 68.5799 59.154 68.182 59.4376 67.6074L61.1125 64.2135L62.7873 67.6071L62.7883 67.6089C63.0718 68.1824 63.6192 68.5799 64.2531 68.6721L67.9984 69.2164L65.2881 71.8581Z" fill="#7052BA"/>
</g>
<defs>
<clipPath id="clip0">
<rect width="80" height="80" fill="white"/>
</clipPath>
</defs>
</svg>
