<svg width="53" height="67" viewBox="0 0 53 67" fill="none" xmlns="http://www.w3.org/2000/svg">
<path fill-rule="evenodd" clip-rule="evenodd" d="M15.4481 16.4198C15.4469 16.4219 15.4457 16.424 15.4444 16.4261L15.4434 16.4279C15.445 16.4252 15.4466 16.4225 15.4481 16.4198ZM38.7642 21.6886C38.7635 21.6743 38.7627 21.6598 38.7618 21.6455ZM28.7429 35.6832C28.7353 35.685 28.7276 35.6867 28.72 35.6884C28.704 35.6921 28.6879 35.6957 28.6719 35.6993C28.6956 35.694 28.7192 35.6886 28.7429 35.6832ZM27.1888 35.9241C27.1862 35.9243 27.1836 35.9246 27.181 35.9248C27.1744 35.9253 27.1675 35.9259 27.1609 35.9264C27.1701 35.9257 27.1797 35.925 27.1888 35.9241Z" fill="#7052BA"/>
<path fill-rule="evenodd" clip-rule="evenodd" d="M25.002 0.406006C17.6607 0.987082 11.8659 7.10121 11.8659 14.5332V18.6857C11.11 19.5711 10.7013 20.6503 10.7013 21.7932C10.7013 23.2639 11.3444 24.6565 12.4658 25.6133C13.266 26.2962 14.2326 26.7077 15.2765 26.8238C15.7052 29.4903 17.1621 32.0538 19.4709 33.783V36.4172L6.16464 41.5361C6.15578 41.5395 6.14692 41.5431 6.13805 41.5466C5.88722 41.6486 0 44.1286 0 50.9421V64.15C0 65.5934 1.18344 66.7681 2.63846 66.7681H49.9114C51.3604 66.7681 52.5393 65.5985 52.5393 64.1605V52.672L52.4886 49.8649C51.9379 44.1183 47.0759 41.8374 46.4577 41.5702L46.4544 41.5687L46.4286 41.5576L46.4273 41.5571C46.4241 41.5557 46.4207 41.5543 46.418 41.5533L46.4103 41.5502L46.4075 41.549L46.4015 41.5466C46.3926 41.5429 46.3835 41.5393 46.3745 41.5359L33.0537 36.4169V33.6086C35.1411 31.9554 36.6033 29.5568 37.0271 26.8226L37.0705 26.8176L37.0724 26.8174C37.1353 26.8097 37.198 26.8011 37.2604 26.7912L37.2674 26.7901C37.2809 26.788 37.2943 26.7858 37.3077 26.7835L37.3196 26.7816L37.3588 26.7749L37.3679 26.7732C37.4282 26.7626 37.4882 26.7508 37.5478 26.738C37.5501 26.7375 37.5525 26.7371 37.5548 26.7365C37.5682 26.7337 37.5816 26.7307 37.595 26.7277L37.6053 26.7255L37.6447 26.7165C37.6476 26.7158 37.6506 26.7152 37.6534 26.7145C37.7134 26.7004 37.7728 26.6853 37.832 26.6692C37.8335 26.6688 37.835 26.6682 37.8367 26.6679C37.8503 26.6641 37.8641 26.6604 37.8777 26.6564L37.886 26.6542L37.9269 26.6424L37.932 26.6409C37.9914 26.6235 38.0506 26.605 38.1093 26.5853C38.1108 26.5848 38.1125 26.5842 38.114 26.5838C38.1272 26.5795 38.1402 26.575 38.1532 26.5705C38.1564 26.5694 38.1596 26.5685 38.1626 26.5674C38.1753 26.5631 38.1879 26.5586 38.2005 26.5541C38.2036 26.553 38.2066 26.552 38.2098 26.5509C38.2679 26.5303 38.3256 26.5086 38.3827 26.486L38.3848 26.4852L38.4244 26.4693L38.4323 26.4661L38.4706 26.4504L38.478 26.4474C38.5496 26.4173 38.6205 26.3856 38.6909 26.3523C38.6922 26.3516 38.695 26.3505 38.695 26.3505L38.7346 26.3314L38.7397 26.3289C39.1286 26.1394 39.4947 25.9002 39.8313 25.6129C40.935 24.6711 41.5757 23.3072 41.5955 21.862C41.5958 21.839 41.596 21.8162 41.596 21.7932C41.596 21.7724 41.5958 21.7518 41.5956 21.7311C41.5956 21.7234 41.5955 21.7155 41.5953 21.7078C41.5951 21.6951 41.5949 21.6824 41.5945 21.6699C41.5943 21.6596 41.5939 21.6493 41.5936 21.6392C41.5934 21.6306 41.593 21.6221 41.5926 21.6135L41.5911 21.5737L41.5909 21.5712C41.5423 20.4677 41.1319 19.4189 40.4309 18.5792V14.5334C40.4309 14.5036 40.4309 14.4739 40.4307 14.4441L40.4305 14.4196L40.4299 14.3517C40.4299 14.3489 40.4299 14.3459 40.4297 14.3431C40.4294 14.3152 40.429 14.2875 40.4284 14.2596V14.2571L40.4265 14.1694L40.4265 14.1675L40.4264 14.164C40.3339 10.5675 38.8927 7.18767 36.3448 4.61128C34.5435 2.79001 32.3277 1.5094 29.9048 0.858141C29.232 0.676051 28.5397 0.541497 27.8313 0.45878L25.002 0.406006ZM14.6948 14.533C14.6948 8.26635 19.8328 3.16785 26.1483 3.16785C26.1949 3.16785 26.2415 3.16822 26.288 3.16879C26.3209 3.17178 26.3541 3.17365 26.3876 3.1744C32.5711 3.30035 37.6019 8.39586 37.6019 14.5332V16.8599C37.4539 16.8268 37.3038 16.7997 37.1519 16.7791C37.1274 15.9854 36.8585 15.7008 35.1155 13.8569C34.9482 13.6798 34.7637 13.485 34.561 13.27C34.2581 12.949 33.9137 12.5833 33.5218 12.1655C32.7601 11.3533 31.5274 11.2037 30.5916 11.8108C29.8331 12.3025 29.0419 12.7464 28.2276 13.1401C28.1625 13.1715 28.0971 13.2028 28.0316 13.2337C27.9662 13.2645 27.9005 13.2951 27.8349 13.3252C27.5392 13.461 27.2405 13.5906 26.9395 13.7131C26.8725 13.7405 26.8056 13.7674 26.7384 13.794C23.7844 14.9647 20.6079 15.496 17.6053 15.2818C17.4787 15.2724 17.3522 15.2735 17.2271 15.2849C16.8448 15.3197 16.4756 15.45 16.1565 15.6628C16.0586 15.7279 15.9654 15.8009 15.8781 15.8814C15.8651 15.8933 15.8523 15.9055 15.8394 15.9179L15.833 15.924L15.8178 15.9392L15.8106 15.9463C15.8055 15.9514 15.8004 15.9564 15.7955 15.9615L15.7921 15.965L15.7909 15.9662L15.788 15.9691C15.783 15.9742 15.7781 15.9792 15.7734 15.9843C15.77 15.9878 15.7668 15.9912 15.7636 15.9948C15.7582 16.0008 15.7525 16.0066 15.747 16.0125L15.7316 16.0294C15.728 16.0333 15.7246 16.0372 15.7212 16.0412L15.7097 16.0541L15.7001 16.0651L15.688 16.0792L15.6791 16.0896L15.6652 16.1063L15.6597 16.1129L15.6586 16.1144L15.6422 16.1347L15.6378 16.1402C15.6312 16.1484 15.6246 16.1568 15.6182 16.1653C15.616 16.1681 15.6139 16.1711 15.6116 16.1739L15.5984 16.1913L15.5911 16.201C15.5869 16.2066 15.5828 16.2122 15.5786 16.218L15.5718 16.2276L15.569 16.2315L15.5592 16.2453C15.5569 16.2485 15.5547 16.2517 15.5526 16.2549L15.5492 16.2598C15.5454 16.2652 15.5417 16.2706 15.5381 16.2762L15.5345 16.2815L15.5164 16.3086C15.5147 16.311 15.5132 16.3137 15.5115 16.3161L15.499 16.3356C15.4968 16.3389 15.4947 16.3425 15.4924 16.3458L15.4817 16.3633L15.4745 16.375C15.4713 16.3801 15.4683 16.3853 15.4653 16.3906L15.4579 16.4029L15.4481 16.4198L15.4444 16.4261L15.4434 16.4279L15.4415 16.431L15.4264 16.4578C15.4245 16.4613 15.4225 16.4649 15.4206 16.4686C15.4176 16.4744 15.4143 16.48 15.4113 16.4858C15.4089 16.4903 15.4066 16.4948 15.4043 16.4993L15.3964 16.5143L15.3891 16.5285L15.3823 16.542L15.3744 16.5581L15.3695 16.5682C15.3585 16.5906 15.3481 16.6133 15.338 16.6361L15.3361 16.6406L15.3328 16.6481L15.3305 16.6536L15.3265 16.6631L15.3242 16.6685L15.3205 16.6773L15.3193 16.6802L15.3181 16.6831L15.3144 16.6919L15.3129 16.6958C15.2976 16.7332 15.2831 16.771 15.2699 16.8092C15.0769 16.8382 14.8851 16.8773 14.6958 16.9267V14.5328L14.6948 14.533ZM37.9776 23.4919L37.9867 23.4842C38.4746 23.0676 38.7578 22.4637 38.7665 21.8233L38.7667 21.807L38.7667 21.7928C38.7667 21.7752 38.7663 21.7576 38.7659 21.74L38.7658 21.7303C38.7655 21.7203 38.7651 21.7104 38.7647 21.7004L38.7643 21.6895L38.7642 21.6886C38.7635 21.6743 38.7627 21.6598 38.7618 21.6455L38.7614 21.6401C38.7292 21.1678 38.5477 20.721 38.2458 20.3623C38.1875 20.2936 38.1247 20.2279 38.0574 20.1654L38.0529 20.1615C37.9348 20.0528 37.8073 19.9577 37.6717 19.8767L37.6651 19.8727C37.6562 19.8675 37.6474 19.8623 37.6385 19.8572L37.6023 19.837L37.5889 19.8297C37.4509 19.7552 37.3053 19.6944 37.1533 19.6482V23.9384C37.2877 23.8976 37.4171 23.8454 37.5406 23.7823L37.5418 23.7818C37.5584 23.7733 37.5748 23.7645 37.5912 23.7557C37.5933 23.7546 37.5951 23.7537 37.597 23.7526C37.6121 23.7444 37.627 23.736 37.6418 23.7275L37.6425 23.7271L37.651 23.7222C37.6659 23.7136 37.6806 23.705 37.6951 23.696L37.7019 23.6917C37.7157 23.6833 37.7292 23.6749 37.7426 23.6661C37.7451 23.6644 37.7473 23.6629 37.7498 23.6614C37.761 23.6541 37.7721 23.6466 37.7832 23.6391L37.7892 23.635L37.8015 23.6266C37.8139 23.6182 37.8262 23.6094 37.8384 23.6006L37.852 23.5907C37.8639 23.5819 37.8756 23.5731 37.8873 23.5643L37.9018 23.5531C37.9131 23.5443 37.9244 23.5353 37.9357 23.5263L37.9385 23.5241L37.9427 23.5206L37.9497 23.5149C37.9591 23.5074 37.9684 23.4997 37.9776 23.4919ZM14.2109 20.3047C13.9241 20.5781 13.5301 21.083 13.5301 21.793C13.5301 22.445 13.8145 23.0616 14.3103 23.4848C14.5538 23.6927 14.8355 23.845 15.1433 23.9386V19.7277C14.8135 19.8506 14.503 20.037 14.2418 20.2771C14.2317 20.2865 14.2213 20.2957 14.2109 20.3047ZM17.9779 25.3723C17.9783 25.3964 17.9783 25.4204 17.9776 25.4441C18.115 29.28 21.2003 33.1538 26.2858 33.1531C26.4233 33.1531 26.56 33.1495 26.6958 33.1428C26.6981 33.1426 26.7003 33.1424 26.7026 33.1424C26.8014 33.1374 26.8999 33.1306 26.9977 33.122L26.9987 33.122C27.0035 33.1216 27.0084 33.1212 27.0132 33.1207L27.0194 33.1202L27.0417 33.1181C27.0605 33.1164 27.0793 33.1145 27.0981 33.1127L27.1098 33.1115C27.1413 33.1084 27.1728 33.105 27.2042 33.1014L27.218 33.0998C27.2435 33.0968 27.2689 33.0938 27.2944 33.0906L27.3221 33.087L27.3252 33.0866C27.3461 33.084 27.3669 33.0813 27.3876 33.0784L27.416 33.0745C27.444 33.0706 27.4719 33.0664 27.4998 33.0623C27.5108 33.0607 27.5221 33.0589 27.5333 33.0571L27.5347 33.0569C27.552 33.0543 27.5694 33.0515 27.5865 33.0487L27.6292 33.0416L27.6738 33.0339L27.7184 33.026L27.734 33.0232C27.7732 33.0161 27.8123 33.0086 27.8513 33.0009L27.8745 32.9965C27.8949 32.9925 27.9153 32.9884 27.9354 32.9841L27.9387 32.9834L27.9498 32.9811C28.978 32.7651 29.9561 32.3487 30.8359 31.7465C32.9557 30.2958 34.2576 27.9118 34.3188 25.3695V25.3687L34.3219 25.2744L34.3226 25.2553C34.3235 25.2292 34.3245 25.2031 34.3245 25.1769V17.1449C34.3126 17.131 34.2998 17.1165 34.2864 17.1012L34.2808 17.0948C34.0869 16.8747 33.7485 16.5145 33.3202 16.061C33.3049 16.045 33.2897 16.0287 33.2742 16.0124L33.2714 16.0094L33.2674 16.0051L33.0519 15.7769L32.9842 15.7054C32.898 15.6142 32.8074 15.5184 32.7124 15.4178C32.434 15.1234 32.1172 14.7873 31.7562 14.4031C31.6913 14.4434 31.6265 14.4834 31.5612 14.5231C28.1378 16.6063 24.1763 17.8503 20.2896 18.0911C19.5124 18.1394 18.7385 18.1475 17.9727 18.1142V25.1769C17.9727 25.2056 17.9737 25.2342 17.9747 25.2629L17.9751 25.2752L17.9779 25.3723ZM31.7841 46.134L34.816 40.1045L32.0895 39.0567L28.3102 43.6855L31.7841 46.134ZM25.0105 47.9437H27.5213L28.1448 47.0125L26.2658 45.6884L24.3868 47.0125L25.0105 47.9437ZM17.7158 40.1045L20.7477 46.1342L24.2169 43.689L20.4367 39.0589L17.7158 40.1045ZM7.2057 44.146C6.94317 44.2585 2.82913 46.0988 2.82913 50.9421V63.9608H8.95455V52.9875C8.95455 52.2124 9.58766 51.584 10.369 51.584C11.1504 51.584 11.7835 52.2124 11.7835 52.9875V63.9608H20.3244L22.7636 49.6613L22.079 48.6387L21.8462 48.8027C21.4596 49.0753 21.0017 49.2176 20.537 49.2176C20.3533 49.2176 20.1689 49.1955 19.987 49.1504C19.3451 48.9909 18.8072 48.5626 18.5117 47.9749L15.0658 41.1224L7.2057 44.146ZM25.4473 50.7512L23.1941 63.961H29.3378L27.0847 50.7512H25.4473ZM43.5853 63.961H49.71L49.7092 63.9606V50.9421C49.7092 50.6857 49.6975 50.4377 49.6755 50.1978L49.6736 50.1771L49.6702 50.142C49.6682 50.122 49.6661 50.1021 49.664 50.0822C49.6529 49.9781 49.6398 49.8756 49.6248 49.7745C49.6241 49.7696 49.6235 49.7649 49.6227 49.76L49.6223 49.7573C49.6148 49.7075 49.6066 49.6581 49.5982 49.6091C49.5895 49.558 49.5804 49.5071 49.5706 49.4567C49.5593 49.398 49.5472 49.34 49.5346 49.2823L49.5301 49.2615C49.5293 49.2578 49.5284 49.2543 49.5276 49.2505C49.514 49.1899 49.4999 49.1298 49.485 49.0705C49.4699 49.01 49.4541 48.9501 49.4375 48.8908L49.437 48.8888L49.4356 48.8837C49.4235 48.8401 49.4107 48.7971 49.3979 48.754C49.3801 48.6953 49.3618 48.6369 49.3428 48.5792C49.3281 48.5341 49.3128 48.4894 49.2973 48.4452L49.2936 48.4346L49.284 48.4078L49.2645 48.3542L49.2475 48.3083L49.2355 48.2766L49.2249 48.2489C49.2183 48.2318 49.2117 48.2147 49.2049 48.1976L49.1991 48.1829L49.1968 48.1771L49.1914 48.1635L49.1843 48.1459L49.1812 48.1383L49.1807 48.1372C49.1748 48.1224 49.169 48.1076 49.1629 48.093C49.1485 48.0583 49.1339 48.0239 49.1191 47.9897C49.1106 47.9701 49.1021 47.9506 49.0935 47.9311L49.0923 47.9285L49.0635 47.8647L49.0596 47.8562L49.0558 47.8477C49.0122 47.753 48.9671 47.6604 48.9205 47.5698C48.909 47.5477 48.8975 47.5254 48.886 47.5035C48.8704 47.4738 48.8545 47.4444 48.8387 47.4152C48.8193 47.3795 48.7996 47.3439 48.7797 47.3089L48.7607 47.2757C48.7513 47.2593 48.7419 47.2431 48.7324 47.227L48.7136 47.1953C48.7074 47.1848 48.7012 47.174 48.6948 47.1635C48.6539 47.095 48.612 47.028 48.5694 46.9621C48.5675 46.9589 48.5654 46.956 48.5635 46.953C48.5382 46.914 48.5128 46.8757 48.4871 46.8377C48.4826 46.8308 48.4781 46.8238 48.4734 46.8171L48.4729 46.8164C48.4685 46.8102 48.4641 46.8041 48.46 46.7978C48.434 46.76 48.4077 46.7224 48.3813 46.6853L48.3563 46.6505C48.3416 46.6301 48.3267 46.6099 48.3119 46.5897C48.288 46.5573 48.2642 46.5255 48.2401 46.4939C48.2127 46.458 48.185 46.4226 48.1573 46.3876L48.1445 46.3713C48.0864 46.2985 48.0277 46.2278 47.9685 46.1587C47.9459 46.1325 47.9232 46.1063 47.9004 46.0805L47.8887 46.0674L47.877 46.0543C47.8684 46.0444 47.8597 46.0345 47.8508 46.0247C47.8208 45.9914 47.7907 45.9585 47.7605 45.9261L47.7516 45.9166L47.7269 45.8904C47.7186 45.8814 47.7101 45.8722 47.7016 45.8634L47.6972 45.8588L47.6928 45.8542C47.6624 45.8226 47.6322 45.7914 47.6019 45.7607L47.5906 45.7493L47.5854 45.7441L47.5834 45.7421L47.5745 45.7332L47.5515 45.7101C47.5195 45.6781 47.4874 45.6469 47.4553 45.616C47.4542 45.6149 47.4531 45.6136 47.4517 45.6125C47.4244 45.5861 47.3969 45.5602 47.3695 45.5346C47.3303 45.4979 47.2911 45.462 47.252 45.4268C47.2271 45.4042 47.202 45.3823 47.1772 45.3604C47.1526 45.3389 47.1281 45.3175 47.1036 45.2966C47.0976 45.2913 47.0913 45.2863 47.0853 45.281C47.0421 45.2443 46.9993 45.2086 46.9567 45.1738C46.9551 45.1724 46.9534 45.171 46.9518 45.1697L46.9497 45.168C46.8066 45.0514 46.6668 44.9455 46.5333 44.85L46.5231 44.8427C46.436 44.7806 46.3513 44.7228 46.2702 44.6695C45.7661 44.3376 45.3938 44.1726 45.3338 44.1469L37.4656 41.1233L34.0199 47.9755C33.7244 48.5631 33.1865 48.9915 32.5445 49.1509C32.3627 49.1959 32.1783 49.2181 31.9948 49.2181C31.5301 49.2181 31.0724 49.0759 30.6855 48.8032L30.4526 48.6391L29.768 49.6615L32.2071 63.961H40.7564V52.9877C40.7564 52.2126 41.3895 51.5842 42.1709 51.5842C42.9522 51.5842 43.5853 52.2126 43.5853 52.9877V63.961ZM30.2246 36.8811L26.266 41.73L22.3 36.872V35.3816C23.493 35.7671 24.8259 35.9613 26.2856 35.9613L26.3203 35.9612C26.3405 35.9612 26.3608 35.961 26.381 35.9608C26.401 35.9606 26.421 35.9604 26.441 35.96L26.5115 35.9589L26.5615 35.9578L26.5848 35.9572L26.6449 35.9554L26.6928 35.9537C26.7211 35.9525 26.7492 35.9516 26.7773 35.9503L26.8229 35.9481C26.8467 35.9469 26.8706 35.9456 26.8944 35.9443C26.9122 35.9434 26.9299 35.9424 26.9477 35.9413L26.9508 35.9411C26.9732 35.9398 26.9957 35.9383 27.0181 35.9368L27.0754 35.9329L27.1051 35.9307L27.1073 35.9305L27.1111 35.9302L27.1447 35.9276L27.1467 35.9275L27.1555 35.9268L27.1609 35.9264L27.181 35.9248L27.1888 35.9241L27.2335 35.9203C27.2351 35.9202 27.2366 35.92 27.2382 35.9199L27.2774 35.9164C27.2908 35.9153 27.3042 35.914 27.3176 35.9127C27.3474 35.9099 27.3772 35.9069 27.4068 35.9039L27.447 35.8998C27.4768 35.8966 27.5064 35.8934 27.5362 35.89L27.5748 35.8856C27.6041 35.8822 27.6335 35.8786 27.6627 35.8749C27.6748 35.8734 27.6867 35.8719 27.6987 35.8702L27.7101 35.8687L27.7486 35.8636L27.7814 35.8592L27.8196 35.8539C27.8481 35.85 27.8764 35.8459 27.9049 35.8416L27.9366 35.8369C27.9675 35.8322 27.9986 35.8274 28.0295 35.8223L28.0654 35.8165C28.0965 35.8114 28.1276 35.8062 28.1585 35.8008C28.1689 35.7989 28.1793 35.7972 28.1898 35.7954C28.2215 35.7897 28.2532 35.7841 28.2847 35.7783C28.2953 35.7764 28.3058 35.7744 28.3164 35.7723L28.3799 35.7602L28.412 35.754L28.4397 35.7484C28.4733 35.7416 28.5069 35.7347 28.5404 35.7278C28.5455 35.7267 28.5506 35.7255 28.5557 35.7246C28.5893 35.7175 28.6227 35.7102 28.6561 35.7029C28.6613 35.7018 28.6666 35.7007 28.6719 35.6993L28.72 35.6884L28.7429 35.6832L28.7794 35.6748C28.7847 35.6737 28.79 35.6724 28.7952 35.6711C28.8315 35.6625 28.8675 35.6539 28.9035 35.6449L28.9173 35.6415C28.953 35.6328 28.9886 35.6236 29.0241 35.6145L29.0267 35.6138L29.0391 35.6106C29.0768 35.6009 29.1145 35.5908 29.1523 35.5805C29.1538 35.5801 29.1553 35.5796 29.157 35.5792C29.521 35.4802 29.8774 35.3629 30.2254 35.2281V36.8813L30.2246 36.8811Z" fill="#7052BA"/>
</svg>
