<svg id="Group_51" data-name="Group 51" xmlns="http://www.w3.org/2000/svg" width="23" height="20" viewBox="0 0 23 20">
  <path id="Path_52" data-name="Path 52" d="M22.549,34.2a1.388,1.388,0,0,0-1.373-.3L.954,40.583a1.392,1.392,0,0,0-.122,2.6l5,2.193,1.509,7.013a.745.745,0,0,0,.523.631.883.883,0,0,0,.776-.269l3.711-2.785,4.339,3.558a1.379,1.379,0,0,0,.877.315,1.392,1.392,0,0,0,1.354-1.074l4.041-17.217A1.394,1.394,0,0,0,22.549,34.2ZM8.964,46.628a.181.181,0,0,0-.007.02L8.12,49.577l-.934-4.339,6.42-3.574-4.489,4.7A.677.677,0,0,0,8.964,46.628Zm.266,3.985.38-1.33.363-1.272,1.3,1.068ZM21.648,35.233,17.607,52.45a.038.038,0,0,1-.06.021L12.8,48.578h0l-2.2-1.8,7.067-7.4a.676.676,0,0,0-.816-1.059L6.385,44.136l-5.012-2.2c-.015-.007-.024-.01-.022-.036s.01-.029.026-.034L21.6,35.189a.038.038,0,0,1,.048.044Z" transform="translate(0 -33.833)" fill="#fff"/>
</svg>
