<svg xmlns="http://www.w3.org/2000/svg" width="26" height="20" viewBox="0 0 26 20">
  <g id="vk" transform="translate(0 -60.425)">
    <g id="Group_53" data-name="Group 53" transform="translate(0 60.425)">
      <path id="Path_59" data-name="Path 59" d="M25.87,78.153l-.895-2.118a15.913,15.913,0,0,0-3.07-4.839,9.237,9.237,0,0,0,3.314-7.605V62.058A1.629,1.629,0,0,0,23.6,60.425H20.552a1.629,1.629,0,0,0-1.622,1.633v1.533a3.4,3.4,0,0,1-.681,2.4,3.311,3.311,0,0,1-1.457.862V61.2a.77.77,0,0,0-.768-.773h-5.7a2.086,2.086,0,0,0-.479,4.113l.249.06a.536.536,0,0,1,.411.524v7.942a8.148,8.148,0,0,1-1.88-1.845,12.791,12.791,0,0,1-2.336-7.627V62.058a1.629,1.629,0,0,0-1.622-1.633H1.622A1.629,1.629,0,0,0,0,62.058v1.533a19.071,19.071,0,0,0,3.734,11.6,12.462,12.462,0,0,0,9.914,5.232h1.523a1.629,1.629,0,0,0,1.622-1.633V75.031a9.1,9.1,0,0,1,2.381,3.45l.391.941a1.618,1.618,0,0,0,1.5,1h3.316a1.615,1.615,0,0,0,1.353-.732A1.638,1.638,0,0,0,25.87,78.153Zm-1.42.687a.079.079,0,0,1-.072.039H21.061a.086.086,0,0,1-.08-.053l-.391-.941a10.132,10.132,0,0,0-3.636-4.668c-.177-.119-.359-.23-.556-.341a.763.763,0,0,0-.762.01.774.774,0,0,0-.378.666v5.241a.087.087,0,0,1-.086.087H13.649a10.964,10.964,0,0,1-8.7-4.632A17.515,17.515,0,0,1,1.536,63.591V62.058a.087.087,0,0,1,.086-.087H4.667a.087.087,0,0,1,.086.087v1.533A14.349,14.349,0,0,0,7.4,72.147a8.962,8.962,0,0,0,3.575,2.933.763.763,0,0,0,.724-.066.775.775,0,0,0,.344-.645V65.121a2.075,2.075,0,0,0-1.591-2.028l-.249-.06a.539.539,0,0,1,.124-1.063h4.934v5.87a.775.775,0,0,0,.276.594.763.763,0,0,0,.629.167,5.571,5.571,0,0,0,3.223-1.568,4.8,4.8,0,0,0,1.081-3.442V62.058a.087.087,0,0,1,.086-.087H23.6a.087.087,0,0,1,.086.087v1.533c0,3.872-1.838,5.868-3.379,6.86a.776.776,0,0,0-.106,1.22,14.008,14.008,0,0,1,3.361,4.962l0,0,.9,2.12A.081.081,0,0,1,24.45,78.84Z" transform="translate(0 -60.425)" fill="#fff"/>
    </g>
  </g>
</svg>
