<svg xmlns="http://www.w3.org/2000/svg" width="22" height="22" viewBox="0 0 22 22">
  <g id="viber_1_" data-name="viber (1)" transform="translate(0 -0.5)">
    <path id="Path_53" data-name="Path 53" d="M90.665,158.245A4.413,4.413,0,0,1,87.656,157l-.088-.086-2.094-2.1-.086-.089a4.227,4.227,0,0,1-1.153-3.707,3.337,3.337,0,0,1,1.935-2.439l.447-.2.025-.01a1.207,1.207,0,0,1,1.489.607l1.153,2.265a1.156,1.156,0,0,1,.06.932,1.042,1.042,0,0,1-.368.482q.2.221.363.382.2.205.508.48a1.051,1.051,0,0,1,.368-.236,1.15,1.15,0,0,1,.93.06l2.26,1.155a1.211,1.211,0,0,1,.605,1.492.645.645,0,0,1-.037.079l-.235.423a3.415,3.415,0,0,1-2.5,1.709,3.8,3.8,0,0,1-.576.043Zm-3.655-8.624-.321.141a2.036,2.036,0,0,0-1.191,1.51,2.936,2.936,0,0,0,.823,2.564l.063.065,2.093,2.1.065.063a3.031,3.031,0,0,0,2.5.862,2.107,2.107,0,0,0,1.566-1.061l.139-.249-2.029-1.037-.081.207a.644.644,0,0,1-1.02.255c-.512-.439-.914-.8-1.195-1.086-.265-.266-.606-.64-1.012-1.112a.646.646,0,0,1,.253-1.023l.383-.15Zm6.4,6.134h0Z" transform="translate(-80.545 -141.435)" fill="#fff"/>
    <path id="Path_54" data-name="Path 54" d="M273.579,60.51a.645.645,0,0,1-.631-.517,6.5,6.5,0,0,0-5.1-5.064.646.646,0,0,1,.247-1.268,7.793,7.793,0,0,1,6.115,6.073.646.646,0,0,1-.632.775Z" transform="translate(-255.841 -50.861)" fill="#fff"/>
    <path id="Path_55" data-name="Path 55" d="M252.562,117.089a.645.645,0,0,1-.64-.577,3.809,3.809,0,0,0-3.376-3.372.646.646,0,0,1,.133-1.285,5.1,5.1,0,0,1,4.524,4.52.646.646,0,0,1-.572.711A.675.675,0,0,1,252.562,117.089Z" transform="translate(-237.313 -106.557)" fill="#fff"/>
    <path id="Path_56" data-name="Path 56" d="M230.232,175.494a.646.646,0,0,1-.618-.832,1.117,1.117,0,0,0-1.377-1.38.646.646,0,0,1-.37-1.237,2.407,2.407,0,0,1,2.982,2.988A.645.645,0,0,1,230.232,175.494Z" transform="translate(-217.636 -164.064)" fill="#fff"/>
    <path id="Path_57" data-name="Path 57" d="M6.789,22.5a.645.645,0,0,1-.644-.646V19.09A7.846,7.846,0,0,1,0,11.426V8.348A7.849,7.849,0,0,1,7.832.5h6.335A7.849,7.849,0,0,1,22,8.348v3.078a7.849,7.849,0,0,1-7.832,7.848h-3.5L7.217,22.337A.644.644,0,0,1,6.789,22.5ZM7.832,1.792A6.557,6.557,0,0,0,1.289,8.348v3.078a6.553,6.553,0,0,0,5.593,6.487.645.645,0,0,1,.552.639v1.867l2.559-2.274a.644.644,0,0,1,.428-.163h3.748a6.557,6.557,0,0,0,6.543-6.556V8.348a6.557,6.557,0,0,0-6.543-6.556Z" fill="#fff"/>
  </g>
</svg>
