<svg xmlns="http://www.w3.org/2000/svg" viewBox="0 0 191.25 236.73"><defs><style>.cls-1{fill:#f70f31}</style></defs><g id="Слой_2" data-name="Слой 2"><g id="Layer_13" data-name="Layer 13"><path d="M33.41 236.74v-24.98h5.88v19.25h15.17v5.73H33.41zm39.85-24.98h5.72v24.97h-5.72zm24.51 24.98v-25.03h18.91v5.94H103.5v6.4h7.43v5.78h-7.43v6.91h-5.73zm45.97 0v-19.25h-8.26v-5.73h22.36v5.73h-8.27v19.25h-5.83z"/><path class="cls-1" d="M95.62 0a95.62 95.62 0 1 0 95.62 95.62A95.73 95.73 0 0 0 95.62 0zm0 183.93a88.3 88.3 0 1 1 88.3-88.3 88.41 88.41 0 0 1-88.3 88.3z"/><path class="cls-1" d="M87.02 51.72l4.23 7.32L77.88 82.2h-8.46l17.6-30.48zm8.6-.25l-.14.25-4.23-7.32 4.37-7.57 4.37 7.57-4.22 7.32-.15-.25zm21.97 38.05H91.96V82.2h21.4L99.99 59.04l4.23-7.32 45.72 79.19h-35.68v-7.32h23l-19.67-34.07zm-43.94 0l-19.67 34.07h23.34v7.32H41.3l23.9-41.39h8.45z"/><path class="cls-1" d="M91.96 96.84h7.32v26.75h7.66v7.32h-22.3v-7.32h7.32V96.84z"/></g></g></svg>