<?xml version="1.0" encoding="UTF-8" standalone="no"?>
<!DOCTYPE svg  PUBLIC '-//W3C//DTD SVG 1.1//EN'  'http://www.w3.org/Graphics/SVG/1.1/DTD/svg11.dtd'>
<svg xmlns="http://www.w3.org/2000/svg" version="1.1">
<defs>
<font id="DINPro-CondensedBold" horiz-adv-x="396">
<font-face underline-position="-114" underline-thickness="77" stemh="101" units-per-em="1000" cap-height="712" font-weight="700" descent="-200" unicode-range="U+000D-FEFF" bbox="-70 -226 1112 1111" font-family="o" x-height="527" font-stretch="condensed" panose-1="2 11 8 6 2 1 1 1 1 2" stemv="106" ascent="800"/>
<missing-glyph d="M52 0v712h314v-712h-314zM129 77h159v558h-159v-558z" horiz-adv-x="417"/>
<glyph glyph-name=".notdef" d="M52 0v712h314v-712h-314zM129 77h159v558h-159v-558z" horiz-adv-x="417"/>
<glyph glyph-name=".null" horiz-adv-x="0"/>
<glyph glyph-name=".null" horiz-adv-x="0"/>
<glyph unicode="" glyph-name="CR" horiz-adv-x="179"/>
<glyph unicode=" " glyph-name="space" horiz-adv-x="179"/>
<glyph unicode="!" glyph-name="exclam" d="M193 200h-106v512h106v-512zM202 0h-124v123h124v-123z" horiz-adv-x="257"/>
<glyph unicode='&quot;' glyph-name="quotedbl" d="M174 511h-102v201h102v-201zM364 511h-101v201h101v-201z" horiz-adv-x="437"/>
<glyph unicode="#" glyph-name="numbersign" d="M561 428h-84l-18 -127h71v-100h-87l-29 -201h-111l29 201h-107l-29 -201h-110l29 201h-68v100h84l18 127h-71v101h87l26 183h111l-27 -183h107l27 183h110l-26 -183h68v-101zM367 428h-107l-19 -127h107z" horiz-adv-x="608"/>
<glyph unicode="$" glyph-name="dollar" d="M407 197c0 -73 -10 -122 -46 -157c-20 -20 -50 -35 -88 -42v-112h-99v111c-39 6 -69 21 -91 43c-34 34 -45 78 -45 153h112c0 -38 4 -62 20 -80c10 -11 27 -19 52 -19c26 0 42 7 53 20c15 17 20 41 20 79c0 76 -12 95 -67 117l-85 35c-72 30 -99 69 -99 179 c0 64 19 116 58 151c20 18 44 31 72 37v94h99v-93c33 -6 59 -19 79 -38c37 -36 50 -87 50 -155h-112c0 32 -2 57 -17 76c-10 13 -26 21 -50 21c-23 0 -37 -8 -48 -20c-13 -15 -19 -39 -19 -70c0 -58 9 -76 59 -96l84 -34c86 -35 108 -80 108 -200z" horiz-adv-x="449"/>
<glyph unicode="%" glyph-name="percent" d="M685 112c0 -79 -59 -120 -127 -120s-127 41 -127 120v133c0 79 59 120 127 120s127 -41 127 -120v-133zM301 467c0 -79 -59 -120 -127 -120s-127 41 -127 120v133c0 79 59 120 127 120s127 -41 127 -120v-133zM532 712l-248 -712h-82l248 712h82zM214 469v129 c0 31 -16 45 -40 45s-41 -14 -41 -45v-129c0 -31 17 -45 41 -45s40 14 40 45zM598 114v129c0 31 -16 45 -40 45s-40 -14 -40 -45v-129c0 -31 16 -45 40 -45s40 14 40 45z" horiz-adv-x="732"/>
<glyph unicode="&amp;" glyph-name="ampersand" d="M497 0h-111l-39 63c-39 -44 -81 -71 -146 -71c-97 0 -167 69 -167 183c0 81 38 146 106 215c-46 62 -75 110 -75 170c0 105 63 159 142 159c97 0 144 -66 144 -149c0 -84 -35 -138 -91 -196l85 -131c16 34 26 84 29 131h91c-3 -80 -29 -168 -61 -225zM295 144l-103 160 c-41 -42 -59 -82 -59 -122c0 -56 32 -95 77 -95c32 0 59 20 85 57zM256 568c0 34 -21 56 -48 56c-30 0 -48 -23 -48 -60c0 -31 17 -65 47 -105c32 35 49 61 49 109z" horiz-adv-x="499"/>
<glyph unicode="&apos;" glyph-name="quotesingle" d="M174 511h-102v201h102v-201z" horiz-adv-x="247"/>
<glyph unicode="(" glyph-name="parenleft" d="M224 -23l-71 -71c-32 32 -61 61 -81 96c-21 37 -24 78 -24 118v472c0 40 3 81 24 118c21 36 49 64 81 96l71 -71c-23 -23 -42 -42 -56 -67c-10 -18 -14 -46 -14 -82v-460c0 -36 4 -64 14 -82c14 -25 33 -44 56 -67z" horiz-adv-x="265"/>
<glyph unicode=")" glyph-name="parenright" d="M218 120c0 -40 -4 -81 -25 -118c-19 -35 -49 -64 -80 -96l-72 71c26 26 42 42 56 67c10 18 15 39 15 82v460c0 36 -3 59 -15 82c-13 24 -25 36 -56 67l72 71c31 -32 60 -60 80 -96c21 -37 25 -78 25 -118v-472z" horiz-adv-x="265"/>
<glyph unicode="*" glyph-name="asterisk" d="M374 479l-38 -65l-93 58l4 -126h-77l4 126l-94 -58l-37 65l98 51l-98 51l37 66l94 -59l-4 126h77l-4 -126l93 59l38 -66l-98 -51z" horiz-adv-x="417"/>
<glyph unicode="+" glyph-name="plus" d="M413 238h-134v-134h-101v134h-134v101h134v134h101v-134h134v-101z" horiz-adv-x="457"/>
<glyph unicode="," glyph-name="comma" d="M172 -65l-115 -85v274h115v-189z" horiz-adv-x="229"/>
<glyph unicode="-" glyph-name="hyphen" d="M249 238h-202v101h202v-101z" horiz-adv-x="295"/>
<glyph unicode="." glyph-name="period" d="M179 0h-123v123h123v-123z" horiz-adv-x="234"/>
<glyph unicode="/" glyph-name="slash" d="M291 786l-185 -860h-100l185 860h100z" horiz-adv-x="298"/>
<glyph unicode="0" glyph-name="zero" d="M359 152c0 -57 -17 -91 -45 -118s-69 -42 -113 -42s-86 15 -114 42s-45 61 -45 118v408c0 57 17 91 45 118s70 42 114 42s85 -15 113 -42s45 -61 45 -118v-408zM253 148v416c0 41 -23 61 -52 61s-53 -20 -53 -61v-416c0 -41 24 -61 53 -61s52 20 52 61z" horiz-adv-x="401"/>
<glyph unicode="1" glyph-name="one" d="M283 0h-106v588l-107 -82v120l107 86h106v-712z" horiz-adv-x="401"/>
<glyph unicode="2" glyph-name="two" d="M360 0h-313v90l178 346c16 30 29 75 29 127c0 41 -22 62 -51 62s-53 -20 -53 -61v-46h-106v42c0 57 16 91 44 118s72 42 115 42s81 -11 110 -38c28 -26 47 -66 47 -123c0 -52 -16 -112 -39 -156l-161 -308h200v-95z" horiz-adv-x="401"/>
<glyph unicode="3" glyph-name="three" d="M361 203c0 -85 -5 -129 -47 -170c-28 -26 -71 -41 -114 -41s-87 14 -115 42c-28 27 -44 60 -44 118v42h106v-46c0 -41 23 -61 53 -61c14 0 27 4 37 17c12 14 18 38 18 99c0 76 -4 96 -16 111c-8 11 -22 18 -40 18h-35v89h35c15 0 27 6 34 14c14 17 16 38 16 90 c0 50 -3 70 -14 84c-8 10 -19 16 -35 16c-28 0 -48 -19 -48 -57v-50h-106v43c0 55 16 90 44 118s67 41 110 41c47 0 84 -15 109 -40c32 -31 46 -78 46 -148c0 -49 -2 -82 -18 -113c-9 -17 -22 -32 -39 -42c18 -13 32 -26 41 -43c20 -34 22 -70 22 -131z" horiz-adv-x="401"/>
<glyph unicode="4" glyph-name="four" d="M377 111h-49v-111h-106v111h-198v95l183 506h103l-177 -506h89v127h106v-127h49v-95z" horiz-adv-x="401"/>
<glyph unicode="5" glyph-name="five" d="M362 231c0 -90 -1 -147 -48 -195c-27 -28 -70 -44 -113 -44c-44 0 -86 14 -114 41c-29 27 -45 61 -45 119v35h106v-37c0 -43 23 -63 53 -63c14 0 28 5 38 18c12 16 17 41 17 126c0 76 -2 106 -14 125c-10 15 -24 22 -41 22c-30 0 -53 -21 -53 -61v-15h-101v410h307v-95 h-210v-191c9 13 22 25 37 34s34 13 51 13c46 0 74 -15 96 -43c25 -30 34 -74 34 -199z" horiz-adv-x="401"/>
<glyph unicode="6" glyph-name="six" d="M361 216c0 -95 -11 -134 -34 -167c-28 -40 -76 -57 -127 -57c-57 0 -100 21 -125 57c-27 40 -35 81 -35 167c0 64 11 122 29 168l125 328h110l-117 -288c12 9 29 12 44 12c37 0 71 -14 94 -44c26 -33 36 -71 36 -176zM255 218c0 56 -1 94 -16 113c-9 12 -23 18 -38 18 s-30 -6 -39 -18c-15 -19 -16 -57 -16 -113s1 -94 16 -113c9 -12 24 -18 39 -18s29 6 38 18c15 19 16 57 16 113z" horiz-adv-x="401"/>
<glyph unicode="7" glyph-name="seven" d="M365 624l-187 -624h-106l187 617h-124v-95h-102v190h332v-88z" horiz-adv-x="401"/>
<glyph unicode="8" glyph-name="eight" d="M361 201c0 -78 -5 -125 -47 -167c-27 -27 -70 -42 -113 -42c-44 0 -86 15 -114 42c-42 42 -47 89 -47 167c0 60 4 95 21 126c10 18 24 32 42 45c-17 13 -30 27 -39 44c-15 31 -19 63 -19 111c0 70 10 116 46 152c28 28 66 41 109 41s83 -13 110 -41 c36 -36 46 -82 46 -152c0 -48 -4 -80 -19 -111c-9 -17 -22 -31 -39 -44c18 -13 32 -27 42 -45c17 -31 21 -66 21 -126zM255 207c0 59 -2 86 -16 104c-9 11 -23 17 -38 17s-30 -6 -39 -17c-14 -18 -16 -45 -16 -104c0 -56 2 -85 16 -103c9 -11 24 -17 39 -17s29 6 38 17 c14 18 16 47 16 103zM250 521c0 61 -5 79 -17 92c-8 8 -19 12 -32 12s-25 -4 -33 -12c-12 -13 -17 -31 -17 -92s6 -79 18 -92c8 -8 19 -12 32 -12s24 4 32 12c12 13 17 31 17 92z" horiz-adv-x="401"/>
<glyph unicode="9" glyph-name="nine" d="M361 496c0 -64 -11 -122 -29 -168l-125 -328h-110l117 288c-12 -9 -29 -12 -43 -12c-38 0 -71 14 -95 44c-26 33 -36 71 -36 176c0 95 11 132 35 167c28 40 75 57 126 57c57 0 100 -21 125 -57c27 -40 35 -81 35 -167zM255 494c0 56 -1 94 -16 113c-9 12 -23 18 -38 18 s-30 -6 -39 -18c-15 -19 -16 -57 -16 -113s1 -94 16 -113c9 -12 24 -18 39 -18s29 6 38 18c15 19 16 57 16 113z" horiz-adv-x="401"/>
<glyph unicode=":" glyph-name="colon" d="M202 313h-124v123h124v-123zM202 0h-124v123h124v-123z" horiz-adv-x="257"/>
<glyph unicode=";" glyph-name="semicolon" d="M198 -65l-116 -85v274h116v-189zM202 313h-124v123h124v-123z" horiz-adv-x="257"/>
<glyph unicode="&lt;" glyph-name="less" d="M367 60l-333 195v74l333 194v-116l-203 -115l203 -115v-117z" horiz-adv-x="401"/>
<glyph unicode="=" glyph-name="equal" d="M413 326h-369v101h369v-101zM413 145h-369v101h369v-101z" horiz-adv-x="457"/>
<glyph unicode="&gt;" glyph-name="greater" d="M367 255l-333 -195v117l203 115l-203 115v116l333 -194v-74z" horiz-adv-x="401"/>
<glyph unicode="?" glyph-name="question" d="M393 524c0 -55 -10 -91 -34 -123l-59 -79c-15 -20 -23 -41 -23 -65v-57h-106v69c0 32 13 62 31 86l59 79c22 29 26 54 26 93c0 35 -4 59 -20 77c-11 12 -24 19 -43 19c-18 0 -32 -6 -43 -18c-18 -20 -19 -50 -19 -78h-106c0 60 12 111 47 144c28 26 66 47 120 47 c53 0 94 -16 122 -45c35 -35 48 -79 48 -149zM286 0h-124v123h124v-123z" horiz-adv-x="426"/>
<glyph unicode="@" glyph-name="at" d="M554 0h-102v40c-9 -12 -22 -26 -35 -33c-15 -9 -35 -15 -54 -15c-43 0 -71 13 -95 41c-21 24 -30 53 -30 114v188c0 61 9 90 30 114c24 28 52 41 95 41c20 0 38 -5 54 -14c11 -6 23 -16 31 -27v83c0 59 -29 89 -83 89h-130c-54 0 -82 -30 -82 -89v-396 c0 -35 8 -53 29 -73l-77 -76c-42 41 -58 77 -58 144v417c0 58 17 93 46 121c28 28 68 43 118 43h178c50 0 90 -15 118 -43c29 -28 47 -63 47 -121v-548zM448 148v186c0 41 -23 62 -52 62s-52 -21 -52 -62v-186c0 -41 23 -61 52 -61s52 20 52 61z" horiz-adv-x="608"/>
<glyph unicode="A" glyph-name="A" d="M462 0h-117l-29 141h-165l-28 -141h-118l175 712h109zM295 242l-61 298l-61 -298h122z" horiz-adv-x="468"/>
<glyph unicode="B" glyph-name="B" d="M423 204c0 -84 -12 -124 -46 -159c-30 -30 -73 -45 -140 -45h-177v712h178c66 0 109 -14 138 -44c33 -33 45 -69 45 -146c0 -51 -8 -90 -41 -124c-10 -10 -22 -19 -37 -25c15 -7 29 -16 39 -26c33 -34 41 -77 41 -143zM311 212c0 79 -25 111 -85 111h-54v-222h54 c60 0 85 28 85 111zM309 515c0 70 -23 96 -81 96h-56v-193h56c58 0 81 29 81 97z" horiz-adv-x="472"/>
<glyph unicode="C" glyph-name="C" d="M413 189c-2 -64 -23 -119 -59 -152c-32 -30 -69 -45 -123 -45c-66 0 -109 26 -138 61c-47 56 -52 134 -52 303s5 247 52 303c29 35 72 61 138 61c54 0 93 -16 125 -46c36 -33 55 -87 57 -150h-112c-1 26 -5 52 -17 69c-10 16 -26 26 -53 26s-43 -11 -53 -27 c-22 -34 -25 -106 -25 -236s3 -202 25 -236c10 -16 26 -27 53 -27s43 10 53 26c12 18 16 44 17 70h112z" horiz-adv-x="447"/>
<glyph unicode="D" glyph-name="D" d="M431 357c0 -164 -4 -245 -52 -298c-29 -33 -70 -59 -138 -59h-181v712h181c68 0 109 -26 138 -59c48 -53 52 -132 52 -296zM319 357c0 124 -2 192 -24 225c-11 17 -30 29 -57 29h-66v-510h66c27 0 46 12 57 29c22 33 24 103 24 227z" horiz-adv-x="472"/>
<glyph unicode="E" glyph-name="E" d="M359 0h-299v712h299v-101h-187v-202h161v-101h-161v-207h187v-101z"/>
<glyph unicode="F" glyph-name="F" d="M359 611h-187v-202h161v-101h-161v-308h-112v712h299v-101z" horiz-adv-x="390"/>
<glyph unicode="G" glyph-name="G" d="M413 190c0 -130 -75 -198 -182 -198c-66 0 -109 26 -138 61c-47 56 -52 134 -52 303s5 247 52 303c29 35 72 61 138 61c55 0 97 -18 127 -48c35 -36 53 -88 55 -149h-112c-1 39 -9 96 -70 96c-27 0 -43 -11 -53 -27c-22 -34 -25 -106 -25 -236s3 -202 25 -236 c10 -16 26 -27 53 -27c49 0 70 42 70 91v111h-70v92h182v-197z" horiz-adv-x="455"/>
<glyph unicode="H" glyph-name="H" d="M423 0h-112v311h-139v-311h-112v712h112v-300h139v300h112v-712z" horiz-adv-x="483"/>
<glyph unicode="I" glyph-name="I" d="M172 0h-112v712h112v-712z" horiz-adv-x="232"/>
<glyph unicode="J" glyph-name="J" d="M335 186c0 -57 -16 -106 -49 -140c-34 -36 -80 -54 -143 -54c-58 0 -106 21 -140 57l78 75c12 -17 36 -31 62 -31c46 0 80 32 80 93v526h112v-526z" horiz-adv-x="389"/>
<glyph unicode="K" glyph-name="K" d="M462 0h-121l-115 293l-54 -110v-183h-112v712h112v-335l155 335h113l-143 -295z" horiz-adv-x="469"/>
<glyph unicode="L" glyph-name="L" d="M359 0h-299v712h112v-611h187v-101z" horiz-adv-x="383"/>
<glyph unicode="M" glyph-name="M" d="M538 0h-112v444l-97 -292h-62l-95 287v-439h-112v712h101l138 -374l137 374h102v-712z" horiz-adv-x="598"/>
<glyph unicode="N" glyph-name="N" d="M439 0h-99l-168 423v-423h-112v712h100l167 -423v423h112v-712z" horiz-adv-x="499"/>
<glyph unicode="O" glyph-name="O" d="M421 356c0 -169 -4 -247 -52 -303c-29 -35 -72 -61 -138 -61s-109 26 -138 61c-47 57 -52 134 -52 303s5 246 52 303c29 35 72 61 138 61s109 -26 138 -61c48 -56 52 -134 52 -303zM309 356c0 130 -3 202 -24 236c-10 16 -27 27 -54 27s-43 -11 -53 -27 c-21 -34 -25 -106 -25 -236s4 -202 25 -236c10 -16 26 -27 53 -27s44 11 54 27c21 34 24 106 24 236z" horiz-adv-x="462"/>
<glyph unicode="P" glyph-name="P" d="M422 495c0 -149 -54 -216 -183 -216h-67v-279h-112v712h179c129 0 183 -68 183 -217zM310 495c0 72 -15 116 -75 116h-63v-231h63c60 0 75 43 75 115z" horiz-adv-x="459"/>
<glyph unicode="Q" glyph-name="Q" d="M451 39l-51 -62l-58 49c-27 -20 -63 -34 -111 -34c-66 0 -108 26 -138 61c-48 56 -52 134 -52 303s4 247 52 303c30 35 72 61 138 61s109 -26 138 -61c48 -56 52 -134 52 -303c0 -159 -5 -219 -29 -268zM309 356c0 131 -2 202 -24 236c-10 16 -27 27 -54 27 s-43 -11 -53 -27c-22 -34 -25 -105 -25 -236s3 -202 25 -236c10 -16 26 -27 53 -27c10 0 17 1 24 5l-37 31l52 62l29 -24c9 39 10 93 10 189z" horiz-adv-x="462"/>
<glyph unicode="R" glyph-name="R" d="M445 0h-117l-93 292h-63v-292h-112v712h180c130 0 182 -63 182 -210c0 -88 -18 -151 -83 -186zM310 502c0 59 -9 109 -69 109h-69v-218h69c60 0 69 50 69 109z" horiz-adv-x="478"/>
<glyph unicode="S" glyph-name="S" d="M404 197c0 -73 -10 -122 -46 -157c-29 -28 -76 -47 -139 -47c-62 0 -108 17 -138 47c-34 34 -46 78 -46 153h112c0 -38 4 -62 20 -80c10 -11 27 -19 52 -19c26 0 43 7 54 20c15 17 19 41 19 79c0 76 -12 95 -67 117l-85 35c-72 30 -99 69 -99 179c0 64 19 116 58 151 c31 27 71 43 122 43c57 0 99 -15 128 -43c37 -36 50 -87 50 -155h-112c0 32 -2 57 -17 76c-10 13 -26 21 -50 21c-23 0 -37 -8 -48 -20c-13 -15 -19 -39 -19 -70c0 -58 9 -76 59 -96l84 -34c85 -35 108 -80 108 -200z" horiz-adv-x="442"/>
<glyph unicode="T" glyph-name="T" d="M372 611h-120v-611h-112v611h-119v101h351v-101z" horiz-adv-x="393"/>
<glyph unicode="U" glyph-name="U" d="M417 175c0 -54 -18 -99 -49 -131c-34 -35 -79 -52 -132 -52s-99 17 -133 52c-31 32 -49 77 -49 131v537h112v-543c0 -51 32 -76 70 -76s69 25 69 76v543h112v-537z" horiz-adv-x="471"/>
<glyph unicode="V" glyph-name="V" d="M433 712l-157 -712h-116l-156 712h123l91 -540l92 540h123z" horiz-adv-x="437"/>
<glyph unicode="W" glyph-name="W" d="M710 712l-134 -712h-117l-102 541l-101 -541h-117l-135 712h123l70 -540l98 540h124l99 -540l69 540h123z" horiz-adv-x="714"/>
<glyph unicode="X" glyph-name="X" d="M421 0h-123l-82 256l-82 -256h-123l141 369l-130 343h123l71 -238l71 238h123l-133 -343z" horiz-adv-x="432"/>
<glyph unicode="Y" glyph-name="Y" d="M388 712l-138 -433v-279h-112v279l-138 433h124l70 -282l71 282h123z" horiz-adv-x="389"/>
<glyph unicode="Z" glyph-name="Z" d="M341 0h-310v84l194 527h-182v101h298v-84l-193 -527h193v-101z" horiz-adv-x="373"/>
<glyph unicode="[" glyph-name="bracketleft" d="M253 -74h-200v860h200v-94h-94v-672h94v-94z" horiz-adv-x="282"/>
<glyph unicode="\" glyph-name="backslash" d="M291 -74h-100l-185 860h100z" horiz-adv-x="298"/>
<glyph unicode="]" glyph-name="bracketright" d="M228 -74h-199v94h93v672h-93v94h199v-860z" horiz-adv-x="282"/>
<glyph unicode="^" glyph-name="asciicircum" d="M418 434h-103l-83 177l-83 -177h-104l140 283h93z" horiz-adv-x="463"/>
<glyph unicode="_" glyph-name="underscore" d="M457 -153h-457v77h457v-77z" horiz-adv-x="457"/>
<glyph unicode="`" glyph-name="grave" d="M245 587h-74l-87 139h89z" horiz-adv-x="399"/>
<glyph unicode="a" glyph-name="a" d="M350 0h-100v45c-9 -13 -20 -27 -32 -35c-16 -11 -33 -18 -60 -18c-44 0 -72 13 -99 44c-21 25 -32 65 -32 118c0 48 17 90 49 118c26 23 60 36 121 36h47v73c0 39 -18 61 -51 61c-16 0 -27 -6 -35 -15c-11 -12 -16 -27 -16 -49h-106c0 42 12 81 45 114 c25 25 68 43 111 43c44 0 85 -11 112 -39c28 -28 46 -67 46 -124v-372zM244 155v78h-35c-23 0 -40 -2 -55 -16c-13 -12 -21 -38 -21 -59c0 -47 19 -73 55 -73c32 0 56 27 56 70z" horiz-adv-x="399"/>
<glyph unicode="b" glyph-name="b" d="M372 264c0 -115 -2 -189 -37 -231c-25 -30 -53 -41 -93 -41c-19 0 -38 5 -53 14c-11 7 -29 23 -35 33v-39h-102v712h106v-219c9 11 20 21 31 28c15 9 34 14 53 14c40 0 69 -11 93 -41c35 -42 37 -115 37 -230zM266 264c0 100 -3 138 -17 156c-9 13 -23 21 -39 21 c-15 0 -27 -5 -36 -15c-10 -11 -16 -26 -16 -49v-227c0 -23 5 -38 16 -49c9 -9 21 -14 36 -14c16 0 30 7 39 20c14 18 17 57 17 157z" horiz-adv-x="408"/>
<glyph unicode="c" glyph-name="c" d="M356 155c-3 -50 -17 -95 -46 -124c-27 -27 -65 -39 -112 -39c-50 0 -94 13 -125 56c-33 45 -37 127 -37 216s4 170 37 216c31 43 75 55 125 55c45 0 80 -9 111 -38c33 -32 44 -77 47 -124h-105c-1 17 -3 35 -14 49c-8 12 -22 19 -39 19c-16 0 -32 -8 -41 -22 c-14 -24 -15 -77 -15 -155s1 -131 15 -156c9 -14 25 -21 41 -21c17 0 31 7 39 18c11 15 13 31 14 50h105z" horiz-adv-x="384"/>
<glyph unicode="d" glyph-name="d" d="M356 0h-102v40c-5 -11 -24 -27 -35 -33c-15 -10 -34 -15 -53 -15c-40 0 -68 11 -93 41c-35 42 -37 117 -37 231s2 188 37 230c24 29 52 41 93 41c19 0 38 -5 53 -14c11 -6 22 -17 31 -28v219h106v-712zM250 150v227c0 23 -5 38 -16 49c-10 10 -21 15 -36 15 c-16 0 -30 -8 -39 -21c-14 -18 -17 -56 -17 -156s3 -139 17 -157c9 -13 23 -20 39 -20c15 0 26 4 36 14c11 11 16 26 16 49z" horiz-adv-x="408"/>
<glyph unicode="e" glyph-name="e" d="M360 233h-218c0 -60 3 -105 16 -125c8 -12 22 -21 41 -21c17 0 31 7 40 20c9 11 13 30 13 48h106c-2 -47 -13 -87 -45 -121c-28 -30 -65 -42 -114 -42c-47 0 -82 10 -114 43c-44 46 -49 133 -49 229c0 95 5 183 49 229c32 33 70 42 113 42c44 0 80 -9 113 -42 c42 -42 49 -134 49 -260zM254 311c0 62 -4 93 -15 109c-9 13 -21 21 -41 21s-32 -8 -41 -21c-11 -16 -15 -47 -15 -109h112z" horiz-adv-x="394"/>
<glyph unicode="f" glyph-name="f" d="M252 432h-73v-432h-106v432h-54v81h54v45c0 62 20 101 53 127c35 27 77 33 126 33v-95c-49 0 -73 -23 -73 -71v-39h73v-81z" horiz-adv-x="271"/>
<glyph unicode="g" glyph-name="g" d="M356 527v-537c0 -68 -16 -108 -45 -137c-27 -27 -71 -43 -114 -43c-44 0 -86 13 -114 41c-33 32 -44 73 -44 116h105c0 -20 4 -37 14 -50c9 -11 23 -16 39 -16s29 6 38 17c10 13 15 32 15 65v91c-8 -10 -18 -20 -29 -28c-15 -10 -32 -14 -53 -14c-40 0 -66 12 -90 39 c-34 40 -42 98 -42 213c0 114 8 172 42 212c24 27 50 39 90 39c21 0 40 -4 55 -14c12 -8 23 -18 31 -28v34h102zM250 187v190c0 23 -5 38 -16 49c-10 10 -21 15 -36 15s-30 -8 -39 -21c-14 -18 -17 -51 -17 -138s3 -120 17 -138c10 -12 24 -20 39 -20s26 4 36 14 c11 11 16 26 16 49z" horiz-adv-x="408"/>
<glyph unicode="h" glyph-name="h" d="M368 0h-106v379c0 41 -23 61 -52 61s-52 -20 -52 -61v-379h-106v712h106v-219c8 11 20 22 31 28c15 9 34 14 53 14c43 0 72 -13 96 -41c21 -24 30 -53 30 -114v-380z" horiz-adv-x="417"/>
<glyph unicode="i" glyph-name="i" d="M158 0h-106v513h106v-513zM163 594h-117v117h117v-117z" horiz-adv-x="210"/>
<glyph unicode="j" glyph-name="j" d="M158 -25c0 -63 -21 -102 -54 -127c-35 -27 -75 -33 -124 -33v95c48 0 72 18 72 71v532h106v-538zM163 594h-117v117h117v-117z" horiz-adv-x="210"/>
<glyph unicode="k" glyph-name="k" d="M409 0h-117l-89 222l-45 -71v-151h-106v712h106v-410l133 225h111l-131 -209z" horiz-adv-x="416"/>
<glyph unicode="l" glyph-name="l" d="M227 0c-49 0 -90 5 -125 32c-33 25 -53 65 -53 128v552h106v-546c0 -47 23 -71 72 -71v-95z" horiz-adv-x="244"/>
<glyph unicode="m" glyph-name="m" d="M579 0h-106v379c0 41 -24 61 -53 61s-52 -20 -52 -61v-379h-106v379c0 41 -23 61 -52 61s-52 -20 -52 -61v-379h-106v527h102v-39c9 12 22 26 35 33c15 9 34 14 53 14c42 0 80 -21 103 -54c13 15 30 30 47 40c16 9 40 14 56 14c49 0 76 -13 100 -41 c21 -24 31 -53 31 -114v-380z" horiz-adv-x="628"/>
<glyph unicode="n" glyph-name="n" d="M368 0h-106v379c0 41 -23 61 -52 61s-52 -20 -52 -61v-379h-106v527h102v-39c9 12 22 26 35 33c15 9 34 14 53 14c43 0 72 -13 96 -41c21 -24 30 -53 30 -114v-380z" horiz-adv-x="417"/>
<glyph unicode="o" glyph-name="o" d="M360 264c0 -89 -4 -170 -37 -216c-31 -43 -74 -56 -125 -56s-94 13 -125 56c-33 46 -37 127 -37 216s4 170 37 216c31 43 74 55 125 55s94 -12 125 -55c33 -46 37 -127 37 -216zM254 264c0 78 -1 131 -15 155c-9 14 -25 22 -41 22s-32 -8 -41 -22 c-14 -24 -15 -77 -15 -155s1 -132 15 -156c9 -14 25 -21 41 -21s32 7 41 21c14 24 15 78 15 156z"/>
<glyph unicode="p" glyph-name="p" d="M372 264c0 -114 -3 -188 -37 -231c-24 -30 -53 -41 -93 -41c-19 0 -38 5 -53 14c-11 7 -22 17 -31 28v-219h-106v712h102v-39c5 10 24 26 35 33c15 9 34 14 53 14c40 0 69 -11 93 -41c34 -43 37 -116 37 -230zM266 264c0 100 -3 138 -17 156c-9 13 -23 21 -39 21 c-15 0 -27 -5 -36 -15c-10 -11 -16 -26 -16 -49v-227c0 -23 5 -38 16 -49c9 -9 21 -14 36 -14c16 0 30 7 39 20c14 18 17 57 17 157z" horiz-adv-x="408"/>
<glyph unicode="q" glyph-name="q" d="M356 -185h-106v219c-9 -11 -20 -21 -31 -28c-15 -9 -34 -14 -53 -14c-40 0 -68 11 -93 41c-35 42 -37 117 -37 231s2 188 37 230c25 30 53 41 93 41c19 0 38 -5 53 -14c11 -7 30 -23 35 -33v39h102v-712zM250 150v227c0 23 -5 38 -16 49c-9 9 -21 15 -36 15 c-16 0 -30 -8 -39 -21c-14 -18 -17 -56 -17 -156s3 -139 17 -157c9 -13 23 -20 39 -20c15 0 27 5 36 14c11 11 16 26 16 49z" horiz-adv-x="408"/>
<glyph unicode="r" glyph-name="r" d="M282 432h-36c-50 0 -88 -34 -88 -91v-341h-106v527h102v-56c11 16 28 31 46 42c23 14 51 22 82 22v-103z" horiz-adv-x="299"/>
<glyph unicode="s" glyph-name="s" d="M352 152c0 -52 -20 -90 -47 -117c-32 -32 -70 -43 -115 -43s-89 15 -116 43c-31 32 -47 69 -47 119h105c0 -21 6 -38 18 -50c10 -11 26 -16 40 -16c17 0 29 4 41 15c10 9 15 25 15 42c0 15 -3 27 -11 39s-22 22 -41 30l-70 31c-36 16 -62 37 -77 61c-12 19 -17 43 -17 72 c0 51 18 84 46 113c29 29 70 44 114 44s84 -14 111 -40c28 -27 45 -64 45 -117h-104c0 23 -5 37 -15 48s-23 16 -37 16c-16 0 -30 -6 -39 -15c-10 -10 -15 -24 -15 -40c0 -13 2 -22 8 -31c7 -11 21 -22 39 -30l70 -30c36 -16 60 -33 77 -58c14 -20 22 -50 22 -86z" horiz-adv-x="381"/>
<glyph unicode="t" glyph-name="t" d="M254 0c-50 0 -92 4 -128 32c-33 26 -53 66 -53 128v272h-54v81h54v149h106v-149h73v-81h-73v-266c0 -49 25 -71 75 -71v-95z" horiz-adv-x="274"/>
<glyph unicode="u" glyph-name="u" d="M365 0h-101v40c-9 -12 -23 -26 -36 -33c-15 -9 -34 -15 -53 -15c-43 0 -72 13 -96 41c-21 24 -30 53 -30 114v380h106v-379c0 -41 23 -61 52 -61s52 20 52 61v379h106v-527z" horiz-adv-x="417"/>
<glyph unicode="v" glyph-name="v" d="M377 527l-130 -527h-112l-131 527h117l70 -359l69 359h117z" horiz-adv-x="381"/>
<glyph unicode="w" glyph-name="w" d="M573 527l-118 -527h-105l-63 342l-62 -342h-105l-116 527h118l55 -359l65 359h91l66 -359l55 359h119z" horiz-adv-x="577"/>
<glyph unicode="x" glyph-name="x" d="M382 0h-118l-69 164l-69 -164h-117l124 268l-118 259h117l63 -160l63 160h118l-120 -259z" horiz-adv-x="391"/>
<glyph unicode="y" glyph-name="y" d="M377 527l-148 -594c-26 -106 -101 -118 -197 -118v94c46 1 81 5 94 55l9 37l-131 526h117l70 -359l69 359h117z" horiz-adv-x="382"/>
<glyph unicode="z" glyph-name="z" d="M299 0h-273v80l154 353h-142v94h261v-79l-154 -353h154v-95z" horiz-adv-x="325"/>
<glyph unicode="{" glyph-name="braceleft" d="M307 -74h-61c-35 0 -67 11 -94 36c-23 22 -38 55 -38 104v190c0 31 -19 53 -46 53h-39v94h39c27 0 46 22 46 53v190c0 49 15 82 38 104c27 25 59 36 94 36h61v-95h-39c-28 0 -48 -21 -48 -52v-180c0 -40 -12 -66 -27 -81c-12 -12 -24 -18 -40 -22c16 -4 29 -11 40 -22 c15 -15 27 -41 27 -81v-180c0 -31 20 -52 48 -52h39v-95z" horiz-adv-x="335"/>
<glyph unicode="|" glyph-name="bar" d="M218 -74h-106v860h106v-860z" horiz-adv-x="330"/>
<glyph unicode="}" glyph-name="braceright" d="M89 -74h-61v95h39c28 0 48 21 48 52v180c0 40 12 66 27 81c11 11 24 18 40 22c-16 4 -28 10 -40 22c-15 15 -27 41 -27 81v180c0 31 -20 52 -48 52h-39v95h61c35 0 67 -11 94 -36c23 -22 38 -55 38 -104v-190c0 -31 19 -53 46 -53h39v-94h-39c-27 0 -46 -22 -46 -53v-190 c0 -49 -15 -82 -38 -104c-27 -25 -59 -36 -94 -36z" horiz-adv-x="335"/>
<glyph unicode="~" glyph-name="asciitilde" d="M434 287c-47 -47 -82 -66 -126 -66c-36 0 -60 10 -88 25c-21 11 -40 20 -66 20s-43 -10 -66 -33l-65 64c47 47 82 66 126 66c36 0 61 -10 89 -25c21 -11 39 -20 65 -20s43 10 66 33z" horiz-adv-x="457"/>
<glyph unicode=" " glyph-name="uni00A0" horiz-adv-x="179"/>
<glyph unicode="¡" glyph-name="exclamdown" d="M170 -185h-106v513h106v-513zM179 404h-123v123h123v-123z" horiz-adv-x="257"/>
<glyph unicode="¢" glyph-name="cent" d="M360 259c-2 -47 -16 -90 -45 -118c-18 -18 -42 -28 -71 -34v-107h-81v107c-34 6 -63 21 -85 50c-33 44 -37 121 -37 206s4 162 37 206c22 29 51 44 85 50v93h81v-93c26 -4 49 -14 70 -33c33 -30 44 -76 46 -119h-105c0 16 -2 33 -13 47c-9 11 -21 17 -39 17 c-16 0 -32 -6 -41 -20c-14 -23 -15 -74 -15 -148s1 -125 15 -148c9 -14 25 -21 41 -21c17 0 30 7 39 18c11 13 13 30 13 47h105z" horiz-adv-x="392"/>
<glyph unicode="£" glyph-name="sterling" d="M427 0h-332v324h-63v81h63v122c0 117 83 193 191 193c57 0 106 -21 141 -57l-77 -75c-14 17 -32 31 -64 31c-43 0 -79 -33 -79 -91v-123h80v-81h-80v-223h220v-101z" horiz-adv-x="460"/>
<glyph unicode="¤" glyph-name="currency" d="M464 141l-65 -66l-57 56c-26 -15 -56 -25 -89 -25s-63 10 -90 25l-56 -56l-66 66l57 56c-16 26 -25 56 -25 89s9 64 25 90l-57 56l66 66l56 -56c27 15 57 24 90 24s63 -9 89 -24l57 56l65 -66l-56 -56c15 -26 25 -57 25 -90s-10 -63 -25 -89zM342 286c0 49 -40 90 -89 90 s-89 -41 -89 -90s40 -89 89 -89s89 40 89 89z" horiz-adv-x="505"/>
<glyph unicode="¥" glyph-name="yen" d="M380 712l-93 -305h59v-80h-84l-15 -48v-40h99v-81h-99v-158h-106v158h-99v81h99v40l-14 48h-85v80h60l-93 305h117l68 -282l69 282h117z" horiz-adv-x="389"/>
<glyph unicode="¦" glyph-name="brokenbar" d="M218 438h-106v346h106v-346zM218 -72h-106v346h106v-346z" horiz-adv-x="330"/>
<glyph unicode="§" glyph-name="section" d="M278 270c0 64 -5 85 -23 101c-11 10 -24 15 -40 15s-29 -6 -40 -15c-17 -15 -24 -34 -24 -101c0 -64 6 -85 24 -101c11 -10 24 -15 40 -15s29 5 40 15c17 15 23 37 23 101zM384 270c0 -73 -5 -114 -49 -151c-7 -6 -15 -12 -26 -15c21 -13 37 -27 49 -48 c13 -22 19 -49 19 -76c0 -52 -17 -88 -47 -118c-29 -30 -73 -42 -118 -42s-88 16 -116 44c-30 30 -47 66 -47 113h108c0 -18 5 -33 16 -45c10 -11 25 -16 39 -16c19 0 31 4 41 14c9 9 15 23 15 41c0 14 -4 27 -11 37c-9 13 -24 24 -41 31l-73 31c-18 8 -36 19 -50 32 c-46 45 -48 94 -48 168c0 72 6 110 49 146c8 6 17 12 28 16c-21 13 -40 30 -51 49c-12 19 -18 43 -18 75c0 48 18 84 46 112c29 29 72 44 116 44c42 0 78 -12 106 -35c33 -27 52 -68 52 -118h-106c0 17 -4 33 -15 44c-10 11 -23 16 -37 16c-16 0 -29 -6 -38 -15 c-10 -10 -15 -23 -15 -39c0 -15 3 -26 8 -35c7 -11 22 -23 39 -30l72 -31c20 -8 45 -22 59 -36c37 -38 44 -71 44 -163z" horiz-adv-x="429"/>
<glyph unicode="¨" glyph-name="dieresis" d="M337 597h-100v100h100v-100zM162 597h-100v100h100v-100z" horiz-adv-x="399"/>
<glyph unicode="©" glyph-name="copyright" d="M784 356c0 -200 -162 -362 -362 -362s-362 162 -362 362s162 362 362 362s362 -162 362 -362zM713 356c0 170 -127 297 -291 297s-291 -127 -291 -297s127 -297 291 -297s291 127 291 297zM526 268c-1 -38 -12 -68 -31 -87c-18 -18 -41 -27 -71 -27c-33 0 -57 10 -77 35 c-25 30 -29 78 -29 166s4 137 29 167c20 25 44 35 77 35c30 0 53 -9 71 -27c19 -19 30 -49 31 -88h-64c0 17 -2 34 -10 43c-7 8 -15 12 -28 12c-14 0 -23 -7 -29 -15c-12 -19 -13 -66 -13 -127s1 -108 13 -126c6 -8 15 -15 29 -15c13 0 21 4 28 12c8 9 10 25 10 42h64z" horiz-adv-x="844"/>
<glyph unicode="ª" glyph-name="ordfeminine" d="M289 294h-82v33c-10 -12 -21 -20 -28 -25c-12 -7 -29 -12 -47 -12c-35 0 -59 9 -81 34c-18 20 -26 50 -26 92c0 39 14 71 41 94c21 18 49 29 98 29h37v54c0 29 -14 47 -41 47c-13 0 -23 -6 -29 -13c-8 -8 -11 -19 -11 -38h-88c0 34 9 67 36 93c21 20 56 35 92 35 c35 0 68 -10 92 -33c23 -22 37 -53 37 -99v-291zM201 420v57h-28c-15 0 -32 -2 -43 -12c-10 -10 -17 -29 -17 -45c0 -33 14 -56 44 -56c25 0 44 21 44 56z" horiz-adv-x="331"/>
<glyph unicode="«" glyph-name="guillemotleft" d="M185 27l-161 249l161 248v-158l-61 -90l61 -92v-157zM367 27l-160 249l160 248v-158l-62 -90l62 -92v-157z" horiz-adv-x="414"/>
<glyph unicode="¬" glyph-name="logicalnot" d="M407 142h-101v110h-255v101h356v-211z" horiz-adv-x="457"/>
<glyph unicode="­" glyph-name="uni00AD" d="M249 238h-202v101h202v-101z" horiz-adv-x="295"/>
<glyph unicode="®" glyph-name="registered" d="M784 356c0 -200 -162 -362 -362 -362s-362 162 -362 362s162 362 362 362s362 -162 362 -362zM713 356c0 170 -127 297 -291 297s-291 -127 -291 -297s127 -297 291 -297s291 127 291 297zM544 158h-67l-49 160h-35v-160h-65v394h104c33 0 58 -8 74 -24 c20 -21 26 -51 26 -93c0 -39 -4 -66 -25 -88c-5 -6 -12 -11 -19 -15zM468 435c0 20 -2 36 -11 47c-6 6 -14 10 -25 10h-39v-114h39c11 0 19 4 25 10c10 11 11 26 11 47z" horiz-adv-x="844"/>
<glyph unicode="¯" glyph-name="macron" d="M322 610h-245v71h245v-71z" horiz-adv-x="399"/>
<glyph unicode="°" glyph-name="degree" d="M367 564c0 -89 -73 -162 -162 -162s-162 73 -162 162s73 162 162 162s162 -73 162 -162zM274 564c0 39 -31 70 -69 70s-69 -31 -69 -70s31 -69 69 -69s69 30 69 69z" horiz-adv-x="410"/>
<glyph unicode="±" glyph-name="plusminus" d="M413 316h-134v-134h-101v134h-134v101h134v134h101v-134h134v-101zM413 13h-369v101h369v-101z" horiz-adv-x="457"/>
<glyph unicode="²" glyph-name="twosuperior" d="M279 285h-231v56l133 203c13 21 21 43 21 72c0 26 -17 41 -41 41c-26 0 -41 -15 -41 -43v-30h-77v28c0 37 11 60 33 78c21 18 52 27 85 27s59 -7 82 -24c21 -17 36 -43 36 -79c0 -31 -13 -66 -30 -92l-118 -177h148v-60z" horiz-adv-x="321"/>
<glyph unicode="³" glyph-name="threesuperior" d="M282 405c0 -46 -3 -73 -34 -98c-20 -18 -52 -27 -85 -27s-64 10 -86 28c-21 17 -31 38 -31 80v18h77v-20c0 -19 3 -28 10 -35c8 -7 18 -11 30 -11c13 0 24 5 30 11c8 10 12 23 12 59s-3 47 -11 57c-7 9 -17 13 -32 13h-25v57h25c12 0 21 3 27 9c12 11 13 29 13 56 c0 25 -3 38 -11 45c-7 7 -15 10 -28 10c-11 0 -21 -3 -28 -10s-10 -18 -10 -31v-24h-77v20c0 38 11 61 32 78c21 18 49 27 83 27c37 0 64 -10 82 -26c23 -20 34 -51 34 -88c0 -26 -3 -48 -15 -67c-7 -11 -17 -21 -31 -27c15 -8 26 -18 34 -30c10 -17 15 -35 15 -74z" horiz-adv-x="321"/>
<glyph unicode="´" glyph-name="acute" d="M315 726l-87 -139h-74l72 139h89z" horiz-adv-x="399"/>
<glyph unicode="µ" glyph-name="mu" d="M367 0h-102v40c-9 -12 -22 -26 -35 -33c-15 -9 -34 -15 -56 -15c-10 0 -19 4 -22 8v-185h-102v712h106v-379c0 -41 24 -61 53 -61s52 20 52 61v379h106v-527z" horiz-adv-x="421"/>
<glyph unicode="¶" glyph-name="paragraph" d="M549 -185h-106v796h-101v-796h-106v471h-52c-92 0 -148 60 -148 213s56 213 148 213h365v-897z" horiz-adv-x="602"/>
<glyph unicode="·" glyph-name="periodcentered" d="M216 221h-160v160h160v-160z" horiz-adv-x="272"/>
<glyph unicode="¸" glyph-name="cedilla" d="M243 -40l-53 -154h-76l61 154h68z" horiz-adv-x="399"/>
<glyph unicode="¹" glyph-name="onesuperior" d="M223 285h-77v349l-74 -47v76l75 49h76v-427z" horiz-adv-x="322"/>
<glyph unicode="º" glyph-name="ordmasculine" d="M297 502c0 -70 -4 -134 -31 -170c-24 -34 -60 -44 -101 -44c-42 0 -78 10 -102 44c-27 36 -31 100 -31 170s4 134 31 170c24 34 60 44 102 44c41 0 77 -10 101 -44c27 -36 31 -100 31 -170zM209 502c0 64 -2 103 -13 120c-8 12 -18 17 -31 17s-24 -5 -32 -17 c-11 -17 -13 -56 -13 -120s2 -103 13 -120c8 -12 19 -17 32 -17s23 5 31 17c11 17 13 56 13 120z" horiz-adv-x="329"/>
<glyph unicode="»" glyph-name="guillemotright" d="M389 276l-160 -249v157l61 92l-61 90v158zM207 276l-160 -249v157l62 92l-62 90v158z" horiz-adv-x="414"/>
<glyph unicode="¼" glyph-name="onequarter" d="M223 285h-77v349l-74 -47v76l75 49h76v-427zM580 712l-246 -712h-82l246 712h82zM795 63h-33v-63h-77v63h-146v60l109 304h73l-106 -304h70v70h77v-70h33v-60z" horiz-adv-x="832"/>
<glyph unicode="½" glyph-name="onehalf" d="M223 285h-77v349l-74 -47v76l75 49h76v-427zM580 712l-246 -712h-82l246 712h82zM789 0h-231v56l133 203c13 21 21 43 21 72c0 26 -17 41 -41 41c-26 0 -41 -15 -41 -43v-30h-77v28c0 37 11 60 33 78c21 18 52 27 85 27s59 -7 82 -24c21 -17 36 -43 36 -79 c0 -31 -13 -66 -30 -92l-118 -177h148v-60z" horiz-adv-x="831"/>
<glyph unicode="¾" glyph-name="threequarters" d="M282 405c0 -46 -3 -73 -34 -98c-20 -18 -52 -27 -85 -27s-64 10 -86 28c-21 17 -31 38 -31 80v18h77v-20c0 -19 3 -28 10 -35c8 -7 18 -11 30 -11c13 0 24 5 30 11c8 10 12 23 12 59s-3 47 -11 57c-7 9 -17 13 -32 13h-25v57h25c12 0 21 3 27 9c12 11 13 29 13 56 c0 25 -3 38 -11 45c-7 7 -15 10 -28 10c-11 0 -21 -3 -28 -10s-10 -18 -10 -31v-24h-77v20c0 38 11 61 32 78c21 18 49 27 83 27c37 0 64 -10 82 -26c23 -20 34 -51 34 -88c0 -26 -3 -48 -15 -67c-7 -11 -17 -21 -31 -27c15 -8 26 -18 34 -30c10 -17 15 -35 15 -74zM579 712 l-246 -712h-82l246 712h82zM794 63h-33v-63h-77v63h-146v60l109 304h73l-106 -304h70v70h77v-70h33v-60z" horiz-adv-x="831"/>
<glyph unicode="¿" glyph-name="questiondown" d="M370 1c0 -60 -12 -112 -47 -145c-28 -26 -66 -47 -120 -47c-53 0 -94 17 -122 46c-35 35 -48 79 -48 149c0 55 10 91 34 123l59 78c15 20 23 41 23 65v58h106v-70c0 -32 -13 -62 -31 -86l-59 -78c-22 -29 -26 -54 -26 -93c0 -35 4 -60 20 -78c11 -12 24 -19 43 -19 c18 0 32 7 43 19c18 20 19 50 19 78h106zM264 404h-123v123h123v-123z" horiz-adv-x="426"/>
<glyph unicode="À" glyph-name="Agrave" d="M462 0h-117l-29 141h-165l-28 -141h-118l175 712h109zM295 242l-61 298l-61 -298h122zM280 760h-74l-88 139h90z" horiz-adv-x="468"/>
<glyph unicode="Á" glyph-name="Aacute" d="M462 0h-117l-29 141h-165l-28 -141h-118l175 712h109zM295 242l-61 298l-61 -298h122zM350 899l-87 -139h-74l72 139h89z" horiz-adv-x="468"/>
<glyph unicode="Â" glyph-name="Acircumflex" d="M462 0h-117l-29 141h-165l-28 -141h-118l175 712h109zM295 242l-61 298l-61 -298h122zM375 760h-81l-60 82l-59 -82h-81l99 139h83z" horiz-adv-x="468"/>
<glyph unicode="Ã" glyph-name="Atilde" d="M462 0h-117l-29 141h-165l-28 -141h-118l175 712h109zM295 242l-61 298l-61 -298h122zM381 814c-34 -34 -59 -46 -90 -46c-22 0 -39 5 -61 17c-15 9 -28 15 -44 15c-14 0 -25 -2 -46 -23l-46 46c35 35 58 47 89 47c23 0 40 -4 62 -17c15 -9 28 -15 44 -15 c13 0 25 2 45 23z" horiz-adv-x="468"/>
<glyph unicode="Ä" glyph-name="Adieresis" d="M462 0h-117l-29 141h-165l-28 -141h-118l175 712h109zM295 242l-61 298l-61 -298h122zM372 770h-100v100h100v-100zM197 770h-100v100h100v-100z" horiz-adv-x="468"/>
<glyph unicode="Å" glyph-name="Aring" d="M462 0h-117l-29 141h-165l-28 -141h-118l175 712h109zM295 242l-61 298l-61 -298h122zM339 858c0 -58 -47 -104 -105 -104c-57 0 -104 46 -104 104s47 104 104 104c58 0 105 -46 105 -104zM280 858c0 25 -21 46 -46 46s-45 -21 -45 -46s20 -46 45 -46s46 21 46 46z" horiz-adv-x="468"/>
<glyph unicode="Æ" glyph-name="AE" d="M638 0h-299v148h-158l-52 -148h-123l261 712h371v-101h-187v-202h161v-101h-161v-207h187v-101zM339 249v362l-125 -362h125z" horiz-adv-x="675"/>
<glyph unicode="Ç" glyph-name="Ccedilla" d="M413 189c-2 -64 -23 -119 -59 -152c-32 -30 -69 -45 -123 -45c-66 0 -109 26 -138 61c-47 56 -52 134 -52 303s5 247 52 303c29 35 72 61 138 61c54 0 93 -16 125 -46c36 -33 55 -87 57 -150h-112c-1 26 -5 52 -17 69c-10 16 -26 26 -53 26s-43 -11 -53 -27 c-22 -34 -25 -106 -25 -236s3 -202 25 -236c10 -16 26 -27 53 -27s43 10 53 26c12 18 16 44 17 70h112zM267 -40l-53 -154h-76l61 154h68z" horiz-adv-x="447"/>
<glyph unicode="È" glyph-name="Egrave" d="M359 0h-299v712h299v-101h-187v-202h161v-101h-161v-207h187v-101zM259 760h-74l-88 139h90z"/>
<glyph unicode="É" glyph-name="Eacute" d="M359 0h-299v712h299v-101h-187v-202h161v-101h-161v-207h187v-101zM329 899l-87 -139h-74l72 139h89z"/>
<glyph unicode="Ê" glyph-name="Ecircumflex" d="M359 0h-299v712h299v-101h-187v-202h161v-101h-161v-207h187v-101zM354 760h-81l-60 82l-59 -82h-81l99 139h83z"/>
<glyph unicode="Ë" glyph-name="Edieresis" d="M359 0h-299v712h299v-101h-187v-202h161v-101h-161v-207h187v-101zM351 770h-100v100h100v-100zM176 770h-100v100h100v-100z"/>
<glyph unicode="Ì" glyph-name="Igrave" d="M172 0h-112v712h112v-712zM162 760h-74l-88 139h90z" horiz-adv-x="232"/>
<glyph unicode="Í" glyph-name="Iacute" d="M172 0h-112v712h112v-712zM232 899l-87 -139h-74l72 139h89z" horiz-adv-x="232"/>
<glyph unicode="Î" glyph-name="Icircumflex" d="M172 0h-112v712h112v-712zM257 760h-81l-60 82l-59 -82h-81l99 139h83z" horiz-adv-x="232"/>
<glyph unicode="Ï" glyph-name="Idieresis" d="M172 0h-112v712h112v-712zM254 770h-100v100h100v-100zM79 770h-100v100h100v-100z" horiz-adv-x="232"/>
<glyph unicode="Ð" glyph-name="Eth" d="M26 314v88h51v310h181c68 0 109 -26 138 -59c48 -53 52 -132 52 -296s-4 -245 -52 -298c-29 -33 -70 -59 -138 -59h-181v314h-51zM336 357c0 124 -2 192 -24 225c-11 17 -30 29 -57 29h-66v-209h70v-88h-70v-213h66c27 0 46 12 57 29c22 33 24 103 24 227z" horiz-adv-x="489"/>
<glyph unicode="Ñ" glyph-name="Ntilde" d="M439 0h-99l-168 423v-423h-112v712h100l167 -423v423h112v-712zM396 814c-34 -34 -59 -46 -90 -46c-22 0 -39 5 -61 17c-15 9 -28 15 -44 15c-14 0 -25 -2 -46 -23l-46 46c35 35 58 47 89 47c23 0 40 -4 62 -17c15 -9 28 -15 44 -15c13 0 25 2 45 23z" horiz-adv-x="499"/>
<glyph unicode="Ò" glyph-name="Ograve" d="M421 356c0 -169 -4 -247 -52 -303c-29 -35 -72 -61 -138 -61s-109 26 -138 61c-47 57 -52 134 -52 303s5 246 52 303c29 35 72 61 138 61s109 -26 138 -61c48 -56 52 -134 52 -303zM309 356c0 130 -3 202 -24 236c-10 16 -27 27 -54 27s-43 -11 -53 -27 c-21 -34 -25 -106 -25 -236s4 -202 25 -236c10 -16 26 -27 53 -27s44 11 54 27c21 34 24 106 24 236zM277 760h-74l-88 139h90z" horiz-adv-x="462"/>
<glyph unicode="Ó" glyph-name="Oacute" d="M421 356c0 -169 -4 -247 -52 -303c-29 -35 -72 -61 -138 -61s-109 26 -138 61c-47 57 -52 134 -52 303s5 246 52 303c29 35 72 61 138 61s109 -26 138 -61c48 -56 52 -134 52 -303zM309 356c0 130 -3 202 -24 236c-10 16 -27 27 -54 27s-43 -11 -53 -27 c-21 -34 -25 -106 -25 -236s4 -202 25 -236c10 -16 26 -27 53 -27s44 11 54 27c21 34 24 106 24 236zM347 899l-87 -139h-74l72 139h89z" horiz-adv-x="462"/>
<glyph unicode="Ô" glyph-name="Ocircumflex" d="M421 356c0 -169 -4 -247 -52 -303c-29 -35 -72 -61 -138 -61s-109 26 -138 61c-47 57 -52 134 -52 303s5 246 52 303c29 35 72 61 138 61s109 -26 138 -61c48 -56 52 -134 52 -303zM309 356c0 130 -3 202 -24 236c-10 16 -27 27 -54 27s-43 -11 -53 -27 c-21 -34 -25 -106 -25 -236s4 -202 25 -236c10 -16 26 -27 53 -27s44 11 54 27c21 34 24 106 24 236zM372 760h-81l-60 82l-59 -82h-81l99 139h83z" horiz-adv-x="462"/>
<glyph unicode="Õ" glyph-name="Otilde" d="M421 356c0 -169 -4 -247 -52 -303c-29 -35 -72 -61 -138 -61s-109 26 -138 61c-47 57 -52 134 -52 303s5 246 52 303c29 35 72 61 138 61s109 -26 138 -61c48 -56 52 -134 52 -303zM309 356c0 130 -3 202 -24 236c-10 16 -27 27 -54 27s-43 -11 -53 -27 c-21 -34 -25 -106 -25 -236s4 -202 25 -236c10 -16 26 -27 53 -27s44 11 54 27c21 34 24 106 24 236zM378 814c-34 -34 -59 -46 -90 -46c-22 0 -39 5 -61 17c-15 9 -28 15 -44 15c-14 0 -25 -2 -46 -23l-46 46c35 35 58 47 89 47c23 0 40 -4 62 -17c15 -9 28 -15 44 -15 c13 0 25 2 45 23z" horiz-adv-x="462"/>
<glyph unicode="Ö" glyph-name="Odieresis" d="M421 356c0 -169 -4 -247 -52 -303c-29 -35 -72 -61 -138 -61s-109 26 -138 61c-47 57 -52 134 -52 303s5 246 52 303c29 35 72 61 138 61s109 -26 138 -61c48 -56 52 -134 52 -303zM309 356c0 130 -3 202 -24 236c-10 16 -27 27 -54 27s-43 -11 -53 -27 c-21 -34 -25 -106 -25 -236s4 -202 25 -236c10 -16 26 -27 53 -27s44 11 54 27c21 34 24 106 24 236zM369 770h-100v100h100v-100zM194 770h-100v100h100v-100z" horiz-adv-x="462"/>
<glyph unicode="×" glyph-name="multiply" d="M413 170l-68 -68l-116 116l-116 -116l-68 68l116 116l-116 116l68 68l116 -115l116 115l68 -68l-116 -116z" horiz-adv-x="457"/>
<glyph unicode="Ø" glyph-name="Oslash" d="M421 356c0 -169 -4 -247 -52 -303c-29 -35 -72 -61 -138 -61c-35 0 -64 8 -87 19l-19 -55h-74l37 103c-43 56 -47 133 -47 297c0 169 5 246 52 303c29 35 72 61 138 61c35 0 65 -8 87 -20l20 56h74l-37 -105c42 -52 46 -133 46 -295zM153 356c0 -54 0 -96 3 -132l125 374 c-11 13 -27 21 -50 21c-27 0 -43 -11 -53 -27c-21 -34 -25 -106 -25 -236zM309 356c0 53 -1 95 -3 130l-124 -371c9 -14 25 -22 49 -22c27 0 44 11 54 27c21 34 24 106 24 236z" horiz-adv-x="462"/>
<glyph unicode="Ù" glyph-name="Ugrave" d="M417 175c0 -54 -18 -99 -49 -131c-34 -35 -79 -52 -132 -52s-99 17 -133 52c-31 32 -49 77 -49 131v537h112v-543c0 -51 32 -76 70 -76s69 25 69 76v543h112v-537zM281 760h-74l-88 139h90z" horiz-adv-x="471"/>
<glyph unicode="Ú" glyph-name="Uacute" d="M417 175c0 -54 -18 -99 -49 -131c-34 -35 -79 -52 -132 -52s-99 17 -133 52c-31 32 -49 77 -49 131v537h112v-543c0 -51 32 -76 70 -76s69 25 69 76v543h112v-537zM351 899l-87 -139h-74l72 139h89z" horiz-adv-x="471"/>
<glyph unicode="Û" glyph-name="Ucircumflex" d="M417 175c0 -54 -18 -99 -49 -131c-34 -35 -79 -52 -132 -52s-99 17 -133 52c-31 32 -49 77 -49 131v537h112v-543c0 -51 32 -76 70 -76s69 25 69 76v543h112v-537zM376 760h-81l-60 82l-59 -82h-81l99 139h83z" horiz-adv-x="471"/>
<glyph unicode="Ü" glyph-name="Udieresis" d="M417 175c0 -54 -18 -99 -49 -131c-34 -35 -79 -52 -132 -52s-99 17 -133 52c-31 32 -49 77 -49 131v537h112v-543c0 -51 32 -76 70 -76s69 25 69 76v543h112v-537zM373 770h-100v100h100v-100zM198 770h-100v100h100v-100z" horiz-adv-x="471"/>
<glyph unicode="Ý" glyph-name="Yacute" d="M388 712l-138 -433v-279h-112v279l-138 433h124l70 -282l71 282h123zM312 899l-87 -139h-74l72 139h89z" horiz-adv-x="389"/>
<glyph unicode="Þ" glyph-name="Thorn" d="M422 361c0 -149 -54 -218 -183 -218h-67v-143h-112v712h112v-135h67c129 0 183 -67 183 -216zM310 360c0 72 -16 116 -71 116h-67v-232h67c55 0 71 44 71 116z" horiz-adv-x="459"/>
<glyph unicode="ß" glyph-name="germandbls" d="M381 215c0 -72 -1 -130 -47 -175c-33 -32 -78 -40 -122 -40v95c16 0 34 3 45 17c16 19 18 48 18 112c0 59 -3 87 -15 105c-9 12 -21 19 -40 19h-8v89h8c16 0 26 7 34 17c12 17 14 36 14 75c0 49 -5 63 -15 78c-8 10 -22 18 -41 18c-31 0 -54 -21 -54 -64v-561h-106v558 c0 59 16 91 45 119c30 29 70 43 114 43s86 -11 116 -41c40 -40 47 -86 47 -141c0 -35 -1 -69 -17 -101c-9 -16 -22 -32 -38 -43c16 -11 30 -25 39 -41c21 -34 23 -72 23 -138z" horiz-adv-x="416"/>
<glyph unicode="à" glyph-name="agrave" d="M350 0h-100v45c-9 -13 -20 -27 -32 -35c-16 -11 -33 -18 -60 -18c-44 0 -72 13 -99 44c-21 25 -32 65 -32 118c0 48 17 90 49 118c26 23 60 36 121 36h47v73c0 39 -18 61 -51 61c-16 0 -27 -6 -35 -15c-11 -12 -16 -27 -16 -49h-106c0 42 12 81 45 114 c25 25 68 43 111 43c44 0 85 -11 112 -39c28 -28 46 -67 46 -124v-372zM244 155v78h-35c-23 0 -40 -2 -55 -16c-13 -12 -21 -38 -21 -59c0 -47 19 -73 55 -73c32 0 56 27 56 70zM242 587h-74l-88 139h90z" horiz-adv-x="399"/>
<glyph unicode="á" glyph-name="aacute" d="M350 0h-100v45c-9 -13 -20 -27 -32 -35c-16 -11 -33 -18 -60 -18c-44 0 -72 13 -99 44c-21 25 -32 65 -32 118c0 48 17 90 49 118c26 23 60 36 121 36h47v73c0 39 -18 61 -51 61c-16 0 -27 -6 -35 -15c-11 -12 -16 -27 -16 -49h-106c0 42 12 81 45 114 c25 25 68 43 111 43c44 0 85 -11 112 -39c28 -28 46 -67 46 -124v-372zM244 155v78h-35c-23 0 -40 -2 -55 -16c-13 -12 -21 -38 -21 -59c0 -47 19 -73 55 -73c32 0 56 27 56 70zM313 726l-88 -139h-74l72 139h90z" horiz-adv-x="399"/>
<glyph unicode="â" glyph-name="acircumflex" d="M350 0h-100v45c-9 -13 -20 -27 -32 -35c-16 -11 -33 -18 -60 -18c-44 0 -72 13 -99 44c-21 25 -32 65 -32 118c0 48 17 90 49 118c26 23 60 36 121 36h47v73c0 39 -18 61 -51 61c-16 0 -27 -6 -35 -15c-11 -12 -16 -27 -16 -49h-106c0 42 12 81 45 114 c25 25 68 43 111 43c44 0 85 -11 112 -39c28 -28 46 -67 46 -124v-372zM244 155v78h-35c-23 0 -40 -2 -55 -16c-13 -12 -21 -38 -21 -59c0 -47 19 -73 55 -73c32 0 56 27 56 70zM336 587h-82l-59 82l-59 -82h-82l99 139h84z" horiz-adv-x="399"/>
<glyph unicode="ã" glyph-name="atilde" d="M350 0h-100v45c-9 -13 -20 -27 -32 -35c-16 -11 -33 -18 -60 -18c-44 0 -72 13 -99 44c-21 25 -32 65 -32 118c0 48 17 90 49 118c26 23 60 36 121 36h47v73c0 39 -18 61 -51 61c-16 0 -27 -6 -35 -15c-11 -12 -16 -27 -16 -49h-106c0 42 12 81 45 114 c25 25 68 43 111 43c44 0 85 -11 112 -39c28 -28 46 -67 46 -124v-372zM244 155v78h-35c-23 0 -40 -2 -55 -16c-13 -12 -21 -38 -21 -59c0 -47 19 -73 55 -73c32 0 56 27 56 70zM342 642c-34 -35 -59 -47 -90 -47c-22 0 -39 5 -61 17c-15 9 -28 15 -44 15 c-14 0 -25 -2 -46 -23l-46 46c35 35 58 47 89 47c23 0 40 -4 62 -17c15 -9 28 -15 44 -15c13 0 25 2 45 23z" horiz-adv-x="399"/>
<glyph unicode="ä" glyph-name="adieresis" d="M350 0h-100v45c-9 -13 -20 -27 -32 -35c-16 -11 -33 -18 -60 -18c-44 0 -72 13 -99 44c-21 25 -32 65 -32 118c0 48 17 90 49 118c26 23 60 36 121 36h47v73c0 39 -18 61 -51 61c-16 0 -27 -6 -35 -15c-11 -12 -16 -27 -16 -49h-106c0 42 12 81 45 114 c25 25 68 43 111 43c44 0 85 -11 112 -39c28 -28 46 -67 46 -124v-372zM244 155v78h-35c-23 0 -40 -2 -55 -16c-13 -12 -21 -38 -21 -59c0 -47 19 -73 55 -73c32 0 56 27 56 70zM333 597h-100v100h100v-100zM157 597h-99v100h99v-100z" horiz-adv-x="399"/>
<glyph unicode="å" glyph-name="aring" d="M350 0h-100v45c-9 -13 -20 -27 -32 -35c-16 -11 -33 -18 -60 -18c-44 0 -72 13 -99 44c-21 25 -32 65 -32 118c0 48 17 90 49 118c26 23 60 36 121 36h47v73c0 39 -18 61 -51 61c-16 0 -27 -6 -35 -15c-11 -12 -16 -27 -16 -49h-106c0 42 12 81 45 114 c25 25 68 43 111 43c44 0 85 -11 112 -39c28 -28 46 -67 46 -124v-372zM244 155v78h-35c-23 0 -40 -2 -55 -16c-13 -12 -21 -38 -21 -59c0 -47 19 -73 55 -73c32 0 56 27 56 70zM300 689c0 -57 -47 -104 -105 -104s-104 47 -104 104c0 58 46 105 104 105s105 -46 105 -105z M241 689c0 25 -21 46 -46 46s-46 -21 -46 -46s21 -45 46 -45s46 20 46 45z" horiz-adv-x="399"/>
<glyph unicode="æ" glyph-name="ae" d="M244 155v78h-35c-24 0 -40 -2 -55 -16c-13 -12 -21 -38 -21 -59c0 -47 20 -73 55 -73c32 0 56 27 56 70zM461 311c0 62 -4 93 -15 109c-9 13 -21 21 -41 21s-32 -8 -41 -21c-11 -16 -15 -47 -15 -109h112zM568 233h-218c0 -60 2 -105 16 -125c8 -12 21 -21 40 -21 c18 0 31 7 41 21c8 10 13 30 13 47h105c-2 -45 -14 -88 -44 -121c-28 -30 -68 -42 -115 -42c-35 0 -65 8 -89 26c-16 11 -30 27 -41 44c-13 -20 -27 -37 -42 -48c-20 -14 -43 -22 -76 -22c-44 0 -72 13 -99 44c-21 26 -32 65 -32 118c0 48 17 90 49 118c26 23 59 36 121 36 h47v74c0 39 -20 60 -51 60c-17 0 -29 -6 -37 -16c-10 -12 -14 -28 -14 -48h-106c0 42 12 81 45 114c25 25 68 43 111 43c33 0 66 -7 88 -24c7 -6 13 -13 19 -21c5 7 10 12 16 17c25 19 57 28 91 28c44 0 80 -9 113 -42c42 -42 49 -134 49 -260z" horiz-adv-x="602"/>
<glyph unicode="ç" glyph-name="ccedilla" d="M356 155c-3 -50 -17 -95 -46 -124c-27 -27 -65 -39 -112 -39c-50 0 -94 13 -125 56c-33 45 -37 127 -37 216s4 170 37 216c31 43 75 55 125 55c45 0 80 -9 111 -38c33 -32 44 -77 47 -124h-105c-1 17 -3 35 -14 49c-8 12 -22 19 -39 19c-16 0 -32 -8 -41 -22 c-14 -24 -15 -77 -15 -155s1 -131 15 -156c9 -14 25 -21 41 -21c17 0 31 7 39 18c11 15 13 31 14 50h105zM243 -40l-53 -154h-76l61 154h68z" horiz-adv-x="384"/>
<glyph unicode="è" glyph-name="egrave" d="M360 233h-218c0 -60 3 -105 16 -125c8 -12 22 -21 41 -21c17 0 31 7 40 20c9 11 13 30 13 48h106c-2 -47 -13 -87 -45 -121c-28 -30 -65 -42 -114 -42c-47 0 -82 10 -114 43c-44 46 -49 133 -49 229c0 95 5 183 49 229c32 33 70 42 113 42c44 0 80 -9 113 -42 c42 -42 49 -134 49 -260zM254 311c0 62 -4 93 -15 109c-9 13 -21 21 -41 21s-32 -8 -41 -21c-11 -16 -15 -47 -15 -109h112zM245 587h-74l-88 139h90z" horiz-adv-x="394"/>
<glyph unicode="é" glyph-name="eacute" d="M360 233h-218c0 -60 3 -105 16 -125c8 -12 22 -21 41 -21c17 0 31 7 40 20c9 11 13 30 13 48h106c-2 -47 -13 -87 -45 -121c-28 -30 -65 -42 -114 -42c-47 0 -82 10 -114 43c-44 46 -49 133 -49 229c0 95 5 183 49 229c32 33 70 42 113 42c44 0 80 -9 113 -42 c42 -42 49 -134 49 -260zM254 311c0 62 -4 93 -15 109c-9 13 -21 21 -41 21s-32 -8 -41 -21c-11 -16 -15 -47 -15 -109h112zM316 726l-88 -139h-74l72 139h90z" horiz-adv-x="394"/>
<glyph unicode="ê" glyph-name="ecircumflex" d="M360 233h-218c0 -60 3 -105 16 -125c8 -12 22 -21 41 -21c17 0 31 7 40 20c9 11 13 30 13 48h106c-2 -47 -13 -87 -45 -121c-28 -30 -65 -42 -114 -42c-47 0 -82 10 -114 43c-44 46 -49 133 -49 229c0 95 5 183 49 229c32 33 70 42 113 42c44 0 80 -9 113 -42 c42 -42 49 -134 49 -260zM254 311c0 62 -4 93 -15 109c-9 13 -21 21 -41 21s-32 -8 -41 -21c-11 -16 -15 -47 -15 -109h112zM339 587h-82l-59 82l-59 -82h-82l99 139h84z" horiz-adv-x="394"/>
<glyph unicode="ë" glyph-name="edieresis" d="M360 233h-218c0 -60 3 -105 16 -125c8 -12 22 -21 41 -21c17 0 31 7 40 20c9 11 13 30 13 48h106c-2 -47 -13 -87 -45 -121c-28 -30 -65 -42 -114 -42c-47 0 -82 10 -114 43c-44 46 -49 133 -49 229c0 95 5 183 49 229c32 33 70 42 113 42c44 0 80 -9 113 -42 c42 -42 49 -134 49 -260zM254 311c0 62 -4 93 -15 109c-9 13 -21 21 -41 21s-32 -8 -41 -21c-11 -16 -15 -47 -15 -109h112zM336 597h-100v100h100v-100zM160 597h-99v100h99v-100z" horiz-adv-x="394"/>
<glyph unicode="ì" glyph-name="igrave" d="M158 0h-106v513h106v-513zM151 587h-74l-88 139h90z" horiz-adv-x="210"/>
<glyph unicode="í" glyph-name="iacute" d="M158 0h-106v513h106v-513zM223 726l-88 -139h-74l72 139h90z" horiz-adv-x="210"/>
<glyph unicode="î" glyph-name="icircumflex" d="M158 0h-106v513h106v-513zM246 587h-82l-59 82l-59 -82h-82l99 139h84z" horiz-adv-x="210"/>
<glyph unicode="ï" glyph-name="idieresis" d="M158 0h-106v513h106v-513zM244 597h-100v100h100v-100zM68 597h-99v100h99v-100z" horiz-adv-x="210"/>
<glyph unicode="ð" glyph-name="eth" d="M362 243c0 -84 -6 -157 -39 -199c-30 -39 -73 -52 -124 -52s-93 13 -123 52c-33 42 -39 115 -39 199c0 106 3 174 38 213c24 27 53 38 94 38c19 0 44 -6 60 -17l-30 92h-75v78h51l-23 65h107l22 -65h70v-78h-47l31 -101c18 -60 27 -116 27 -225zM256 245 c0 71 -2 117 -16 139c-8 13 -25 20 -41 20s-32 -7 -40 -20c-14 -22 -16 -68 -16 -139s2 -116 16 -138c8 -13 24 -20 40 -20s33 7 41 20c14 22 16 67 16 138z" horiz-adv-x="400"/>
<glyph unicode="ñ" glyph-name="ntilde" d="M368 0h-106v379c0 41 -23 61 -52 61s-52 -20 -52 -61v-379h-106v527h102v-39c9 12 22 26 35 33c15 9 34 14 53 14c43 0 72 -13 96 -41c21 -24 30 -53 30 -114v-380zM358 642c-34 -35 -59 -47 -90 -47c-22 0 -39 5 -61 17c-15 9 -28 15 -44 15c-14 0 -25 -2 -46 -23 l-46 46c35 35 58 47 89 47c23 0 40 -4 62 -17c15 -9 28 -15 44 -15c13 0 25 2 45 23z" horiz-adv-x="417"/>
<glyph unicode="ò" glyph-name="ograve" d="M360 264c0 -89 -4 -170 -37 -216c-31 -43 -74 -56 -125 -56s-94 13 -125 56c-33 46 -37 127 -37 216s4 170 37 216c31 43 74 55 125 55s94 -12 125 -55c33 -46 37 -127 37 -216zM254 264c0 78 -1 131 -15 155c-9 14 -25 22 -41 22s-32 -8 -41 -22 c-14 -24 -15 -77 -15 -155s1 -132 15 -156c9 -14 25 -21 41 -21s32 7 41 21c14 24 15 78 15 156zM245 587h-74l-88 139h90z"/>
<glyph unicode="ó" glyph-name="oacute" d="M360 264c0 -89 -4 -170 -37 -216c-31 -43 -74 -56 -125 -56s-94 13 -125 56c-33 46 -37 127 -37 216s4 170 37 216c31 43 74 55 125 55s94 -12 125 -55c33 -46 37 -127 37 -216zM254 264c0 78 -1 131 -15 155c-9 14 -25 22 -41 22s-32 -8 -41 -22 c-14 -24 -15 -77 -15 -155s1 -132 15 -156c9 -14 25 -21 41 -21s32 7 41 21c14 24 15 78 15 156zM316 726l-88 -139h-74l72 139h90z"/>
<glyph unicode="ô" glyph-name="ocircumflex" d="M360 264c0 -89 -4 -170 -37 -216c-31 -43 -74 -56 -125 -56s-94 13 -125 56c-33 46 -37 127 -37 216s4 170 37 216c31 43 74 55 125 55s94 -12 125 -55c33 -46 37 -127 37 -216zM254 264c0 78 -1 131 -15 155c-9 14 -25 22 -41 22s-32 -8 -41 -22 c-14 -24 -15 -77 -15 -155s1 -132 15 -156c9 -14 25 -21 41 -21s32 7 41 21c14 24 15 78 15 156zM339 587h-82l-59 82l-59 -82h-82l99 139h84z"/>
<glyph unicode="õ" glyph-name="otilde" d="M360 264c0 -89 -4 -170 -37 -216c-31 -43 -74 -56 -125 -56s-94 13 -125 56c-33 46 -37 127 -37 216s4 170 37 216c31 43 74 55 125 55s94 -12 125 -55c33 -46 37 -127 37 -216zM254 264c0 78 -1 131 -15 155c-9 14 -25 22 -41 22s-32 -8 -41 -22 c-14 -24 -15 -77 -15 -155s1 -132 15 -156c9 -14 25 -21 41 -21s32 7 41 21c14 24 15 78 15 156zM345 642c-34 -35 -59 -47 -90 -47c-22 0 -39 5 -61 17c-15 9 -28 15 -44 15c-14 0 -25 -2 -46 -23l-46 46c35 35 58 47 89 47c23 0 40 -4 62 -17c15 -9 28 -15 44 -15 c13 0 25 2 45 23z"/>
<glyph unicode="ö" glyph-name="odieresis" d="M360 264c0 -89 -4 -170 -37 -216c-31 -43 -74 -56 -125 -56s-94 13 -125 56c-33 46 -37 127 -37 216s4 170 37 216c31 43 74 55 125 55s94 -12 125 -55c33 -46 37 -127 37 -216zM254 264c0 78 -1 131 -15 155c-9 14 -25 22 -41 22s-32 -8 -41 -22 c-14 -24 -15 -77 -15 -155s1 -132 15 -156c9 -14 25 -21 41 -21s32 7 41 21c14 24 15 78 15 156zM336 597h-100v100h100v-100zM160 597h-99v100h99v-100z"/>
<glyph unicode="÷" glyph-name="divide" d="M413 229h-369v101h369v-101zM291 32h-124v123h124v-123zM291 403h-124v123h124v-123z" horiz-adv-x="457"/>
<glyph unicode="ø" glyph-name="oslash" d="M367 571l-41 -95c31 -46 34 -127 34 -212c0 -89 -4 -170 -37 -216c-31 -43 -74 -56 -125 -56c-29 0 -55 4 -77 15l-21 -51h-71l41 96c-31 46 -34 127 -34 212c0 89 4 170 37 216c31 43 74 55 125 55c29 0 55 -4 77 -15l21 51h71zM235 429c-9 10 -23 16 -37 16 c-16 0 -32 -7 -41 -22c-15 -25 -16 -79 -16 -159c0 -23 1 -50 3 -60zM255 264c0 23 0 49 -3 59l-91 -225c9 -10 23 -16 37 -16c16 0 32 8 41 23c15 25 16 79 16 159z" horiz-adv-x="394"/>
<glyph unicode="ù" glyph-name="ugrave" d="M365 0h-101v40c-9 -12 -23 -26 -36 -33c-15 -9 -34 -15 -53 -15c-43 0 -72 13 -96 41c-21 24 -30 53 -30 114v380h106v-379c0 -41 23 -61 52 -61s52 20 52 61v379h106v-527zM254 587h-74l-88 139h90z" horiz-adv-x="417"/>
<glyph unicode="ú" glyph-name="uacute" d="M365 0h-101v40c-9 -12 -23 -26 -36 -33c-15 -9 -34 -15 -53 -15c-43 0 -72 13 -96 41c-21 24 -30 53 -30 114v380h106v-379c0 -41 23 -61 52 -61s52 20 52 61v379h106v-527zM325 726l-88 -139h-74l72 139h90z" horiz-adv-x="417"/>
<glyph unicode="û" glyph-name="ucircumflex" d="M365 0h-101v40c-9 -12 -23 -26 -36 -33c-15 -9 -34 -15 -53 -15c-43 0 -72 13 -96 41c-21 24 -30 53 -30 114v380h106v-379c0 -41 23 -61 52 -61s52 20 52 61v379h106v-527zM348 587h-82l-59 82l-59 -82h-82l99 139h84z" horiz-adv-x="417"/>
<glyph unicode="ü" glyph-name="udieresis" d="M365 0h-101v40c-9 -12 -23 -26 -36 -33c-15 -9 -34 -15 -53 -15c-43 0 -72 13 -96 41c-21 24 -30 53 -30 114v380h106v-379c0 -41 23 -61 52 -61s52 20 52 61v379h106v-527zM345 597h-100v100h100v-100zM169 597h-99v100h99v-100z" horiz-adv-x="417"/>
<glyph unicode="ý" glyph-name="yacute" d="M377 527l-148 -594c-26 -106 -101 -118 -197 -118v94c46 1 81 5 94 55l9 37l-131 526h117l70 -359l69 359h117zM311 726l-88 -139h-74l72 139h90z" horiz-adv-x="382"/>
<glyph unicode="þ" glyph-name="thorn" d="M374 264c0 -114 -3 -189 -38 -231c-23 -29 -52 -41 -92 -41c-19 0 -38 5 -54 14c-11 7 -22 17 -31 28v-219h-106v897h102v-224c6 10 24 26 35 33c16 9 35 14 54 14c39 0 68 -11 92 -41c35 -42 38 -116 38 -230zM268 264c0 100 -3 138 -17 156c-10 13 -23 21 -40 21 c-14 0 -27 -6 -36 -15c-10 -10 -16 -26 -16 -49v-227c0 -23 6 -38 16 -49c9 -9 22 -14 36 -14c17 0 30 7 40 20c14 18 17 57 17 157z" horiz-adv-x="411"/>
<glyph unicode="ÿ" glyph-name="ydieresis" d="M377 527l-148 -594c-26 -106 -101 -118 -197 -118v94c46 1 81 5 94 55l9 37l-131 526h117l70 -359l69 359h117zM331 597h-100v100h100v-100zM155 597h-99v100h99v-100z" horiz-adv-x="382"/>
<glyph unicode="Ā" glyph-name="Amacron" d="M462 0h-117l-29 141h-165l-28 -141h-118l175 712h109zM295 242l-61 298l-61 -298h122zM357 776h-245v70h245v-70z" horiz-adv-x="468"/>
<glyph unicode="ā" glyph-name="amacron" d="M350 0h-100v45c-9 -13 -20 -27 -32 -35c-16 -11 -33 -18 -60 -18c-44 0 -72 13 -99 44c-21 25 -32 65 -32 118c0 48 17 90 49 118c26 23 60 36 121 36h47v73c0 39 -18 61 -51 61c-16 0 -27 -6 -35 -15c-11 -12 -16 -27 -16 -49h-106c0 42 12 81 45 114 c25 25 68 43 111 43c44 0 85 -11 112 -39c28 -28 46 -67 46 -124v-372zM244 155v78h-35c-23 0 -40 -2 -55 -16c-13 -12 -21 -38 -21 -59c0 -47 19 -73 55 -73c32 0 56 27 56 70zM318 604h-246v71h246v-71z" horiz-adv-x="399"/>
<glyph unicode="Ă" glyph-name="Abreve" d="M462 0h-117l-29 141h-165l-28 -141h-118l175 712h109zM295 242l-61 298l-61 -298h122zM359 875c-3 -87 -60 -119 -125 -119c-64 0 -121 32 -124 119h71c3 -34 27 -46 53 -46c27 0 51 12 54 46h71z" horiz-adv-x="468"/>
<glyph unicode="ă" glyph-name="abreve" d="M350 0h-100v45c-9 -13 -20 -27 -32 -35c-16 -11 -33 -18 -60 -18c-44 0 -72 13 -99 44c-21 25 -32 65 -32 118c0 48 17 90 49 118c26 23 60 36 121 36h47v73c0 39 -18 61 -51 61c-16 0 -27 -6 -35 -15c-11 -12 -16 -27 -16 -49h-106c0 42 12 81 45 114 c25 25 68 43 111 43c44 0 85 -11 112 -39c28 -28 46 -67 46 -124v-372zM244 155v78h-35c-23 0 -40 -2 -55 -16c-13 -12 -21 -38 -21 -59c0 -47 19 -73 55 -73c32 0 56 27 56 70zM320 703c-3 -86 -60 -119 -125 -119s-121 33 -125 119h72c3 -33 27 -46 53 -46s50 13 53 46h72 z" horiz-adv-x="399"/>
<glyph unicode="Ą" glyph-name="Aogonek" d="M462 0h-117l-29 141h-165l-28 -141h-118l175 712h109zM295 242l-61 298l-61 -298h122zM449 -40l-53 -154h-76l61 154h68z" horiz-adv-x="468"/>
<glyph unicode="ą" glyph-name="aogonek" d="M350 0h-100v45c-9 -13 -20 -27 -32 -35c-16 -11 -33 -18 -60 -18c-44 0 -72 13 -99 44c-21 25 -32 65 -32 118c0 48 17 90 49 118c26 23 60 36 121 36h47v73c0 39 -18 61 -51 61c-16 0 -27 -6 -35 -15c-11 -12 -16 -27 -16 -49h-106c0 42 12 81 45 114 c25 25 68 43 111 43c44 0 85 -11 112 -39c28 -28 46 -67 46 -124v-372zM244 155v78h-35c-23 0 -40 -2 -55 -16c-13 -12 -21 -38 -21 -59c0 -47 19 -73 55 -73c32 0 56 27 56 70zM333 -40l-53 -154h-76l61 154h68z" horiz-adv-x="399"/>
<glyph unicode="Ć" glyph-name="Cacute" d="M413 189c-2 -64 -23 -119 -59 -152c-32 -30 -69 -45 -123 -45c-66 0 -109 26 -138 61c-47 56 -52 134 -52 303s5 247 52 303c29 35 72 61 138 61c54 0 93 -16 125 -46c36 -33 55 -87 57 -150h-112c-1 26 -5 52 -17 69c-10 16 -26 26 -53 26s-43 -11 -53 -27 c-22 -34 -25 -106 -25 -236s3 -202 25 -236c10 -16 26 -27 53 -27s43 10 53 26c12 18 16 44 17 70h112zM347 899l-87 -139h-74l72 139h89z" horiz-adv-x="447"/>
<glyph unicode="ć" glyph-name="cacute" d="M356 155c-3 -50 -17 -95 -46 -124c-27 -27 -65 -39 -112 -39c-50 0 -94 13 -125 56c-33 45 -37 127 -37 216s4 170 37 216c31 43 75 55 125 55c45 0 80 -9 111 -38c33 -32 44 -77 47 -124h-105c-1 17 -3 35 -14 49c-8 12 -22 19 -39 19c-16 0 -32 -8 -41 -22 c-14 -24 -15 -77 -15 -155s1 -131 15 -156c9 -14 25 -21 41 -21c17 0 31 7 39 18c11 15 13 31 14 50h105zM316 726l-88 -139h-74l72 139h90z" horiz-adv-x="384"/>
<glyph unicode="Ĉ" glyph-name="Ccircumflex" d="M413 189c-2 -64 -23 -119 -59 -152c-32 -30 -69 -45 -123 -45c-66 0 -109 26 -138 61c-47 56 -52 134 -52 303s5 247 52 303c29 35 72 61 138 61c54 0 93 -16 125 -46c36 -33 55 -87 57 -150h-112c-1 26 -5 52 -17 69c-10 16 -26 26 -53 26s-43 -11 -53 -27 c-22 -34 -25 -106 -25 -236s3 -202 25 -236c10 -16 26 -27 53 -27s43 10 53 26c12 18 16 44 17 70h112zM372 760h-81l-60 82l-59 -82h-81l99 139h83z" horiz-adv-x="447"/>
<glyph unicode="ĉ" glyph-name="ccircumflex" d="M356 155c-3 -50 -17 -95 -46 -124c-27 -27 -65 -39 -112 -39c-50 0 -94 13 -125 56c-33 45 -37 127 -37 216s4 170 37 216c31 43 75 55 125 55c45 0 80 -9 111 -38c33 -32 44 -77 47 -124h-105c-1 17 -3 35 -14 49c-8 12 -22 19 -39 19c-16 0 -32 -8 -41 -22 c-14 -24 -15 -77 -15 -155s1 -131 15 -156c9 -14 25 -21 41 -21c17 0 31 7 39 18c11 15 13 31 14 50h105zM339 587h-82l-59 82l-59 -82h-82l99 139h84z" horiz-adv-x="384"/>
<glyph unicode="Ċ" glyph-name="Cdotaccent" d="M413 189c-2 -64 -23 -119 -59 -152c-32 -30 -69 -45 -123 -45c-66 0 -109 26 -138 61c-47 56 -52 134 -52 303s5 247 52 303c29 35 72 61 138 61c54 0 93 -16 125 -46c36 -33 55 -87 57 -150h-112c-1 26 -5 52 -17 69c-10 16 -26 26 -53 26s-43 -11 -53 -27 c-22 -34 -25 -106 -25 -236s3 -202 25 -236c10 -16 26 -27 53 -27s43 10 53 26c12 18 16 44 17 70h112zM281 770h-99v100h99v-100z" horiz-adv-x="447"/>
<glyph unicode="ċ" glyph-name="cdotaccent" d="M356 155c-3 -50 -17 -95 -46 -124c-27 -27 -65 -39 -112 -39c-50 0 -94 13 -125 56c-33 45 -37 127 -37 216s4 170 37 216c31 43 75 55 125 55c45 0 80 -9 111 -38c33 -32 44 -77 47 -124h-105c-1 17 -3 35 -14 49c-8 12 -22 19 -39 19c-16 0 -32 -8 -41 -22 c-14 -24 -15 -77 -15 -155s1 -131 15 -156c9 -14 25 -21 41 -21c17 0 31 7 39 18c11 15 13 31 14 50h105zM248 598h-100v100h100v-100z" horiz-adv-x="384"/>
<glyph unicode="Č" glyph-name="Ccaron" d="M413 189c-2 -64 -23 -119 -59 -152c-32 -30 -69 -45 -123 -45c-66 0 -109 26 -138 61c-47 56 -52 134 -52 303s5 247 52 303c29 35 72 61 138 61c54 0 93 -16 125 -46c36 -33 55 -87 57 -150h-112c-1 26 -5 52 -17 69c-10 16 -26 26 -53 26s-43 -11 -53 -27 c-22 -34 -25 -106 -25 -236s3 -202 25 -236c10 -16 26 -27 53 -27s43 10 53 26c12 18 16 44 17 70h112zM372 897l-99 -140h-83l-99 140h81l59 -82l60 82h81z" horiz-adv-x="447"/>
<glyph unicode="č" glyph-name="ccaron" d="M356 155c-3 -50 -17 -95 -46 -124c-27 -27 -65 -39 -112 -39c-50 0 -94 13 -125 56c-33 45 -37 127 -37 216s4 170 37 216c31 43 75 55 125 55c45 0 80 -9 111 -38c33 -32 44 -77 47 -124h-105c-1 17 -3 35 -14 49c-8 12 -22 19 -39 19c-16 0 -32 -8 -41 -22 c-14 -24 -15 -77 -15 -155s1 -131 15 -156c9 -14 25 -21 41 -21c17 0 31 7 39 18c11 15 13 31 14 50h105zM339 724l-99 -140h-84l-99 140h82l59 -82l59 82h82z" horiz-adv-x="384"/>
<glyph unicode="Ď" glyph-name="Dcaron" d="M431 357c0 -164 -4 -245 -52 -298c-29 -33 -70 -59 -138 -59h-181v712h181c68 0 109 -26 138 -59c48 -53 52 -132 52 -296zM319 357c0 124 -2 192 -24 225c-11 17 -30 29 -57 29h-66v-510h66c27 0 46 12 57 29c22 33 24 103 24 227zM375 897l-99 -140h-83l-99 140h81 l59 -82l60 82h81z" horiz-adv-x="472"/>
<glyph unicode="ď" glyph-name="dcaron" d="M356 0h-102v40c-5 -11 -24 -27 -35 -33c-15 -10 -34 -15 -53 -15c-40 0 -68 11 -93 41c-35 42 -37 117 -37 231s2 188 37 230c24 29 52 41 93 41c19 0 38 -5 53 -14c11 -6 22 -17 31 -28v219h106v-712zM250 150v227c0 23 -5 38 -16 49c-10 10 -21 15 -36 15 c-16 0 -30 -8 -39 -21c-14 -18 -17 -56 -17 -156s3 -139 17 -157c9 -13 23 -20 39 -20c15 0 26 4 36 14c11 11 16 26 16 49zM500 741l-36 -154h-67l24 154h79z" horiz-adv-x="408"/>
<glyph unicode="Đ" glyph-name="Dcroat" d="M448 357c0 -164 -4 -245 -52 -298c-29 -33 -70 -59 -138 -59h-181v314h-51v88h51v310h181c68 0 109 -26 138 -59c48 -53 52 -132 52 -296zM336 357c0 124 -2 192 -24 225c-11 17 -30 29 -57 29h-66v-209h70v-88h-70v-213h66c27 0 46 12 57 29c22 33 24 103 24 227z" horiz-adv-x="489"/>
<glyph unicode="đ" glyph-name="dcroat" d="M356 0h-102v40c-5 -11 -24 -27 -35 -33c-15 -10 -34 -15 -53 -15c-40 0 -68 11 -93 41c-35 42 -37 117 -37 231s2 188 37 230c24 29 52 41 93 41c19 0 38 -5 53 -14c11 -6 22 -17 31 -28v87h-86v67h86v65h106v-65h49v-67h-49v-580zM250 150v227c0 23 -5 39 -16 49 c-9 10 -21 15 -36 15c-16 0 -30 -8 -39 -21c-14 -18 -17 -56 -17 -156s3 -139 17 -157c9 -13 23 -20 39 -20c15 0 27 5 36 14c11 11 16 26 16 49z" horiz-adv-x="425"/>
<glyph unicode="Ē" glyph-name="Emacron" d="M359 0h-299v712h299v-101h-187v-202h161v-101h-161v-207h187v-101zM336 776h-245v70h245v-70z"/>
<glyph unicode="ē" glyph-name="emacron" d="M360 233h-218c0 -60 3 -105 16 -125c8 -12 22 -21 41 -21c17 0 31 7 40 20c9 11 13 30 13 48h106c-2 -47 -13 -87 -45 -121c-28 -30 -65 -42 -114 -42c-47 0 -82 10 -114 43c-44 46 -49 133 -49 229c0 95 5 183 49 229c32 33 70 42 113 42c44 0 80 -9 113 -42 c42 -42 49 -134 49 -260zM254 311c0 62 -4 93 -15 109c-9 13 -21 21 -41 21s-32 -8 -41 -21c-11 -16 -15 -47 -15 -109h112zM321 604h-246v71h246v-71z" horiz-adv-x="394"/>
<glyph unicode="Ĕ" glyph-name="Ebreve" d="M359 0h-299v712h299v-101h-187v-202h161v-101h-161v-207h187v-101zM338 875c-3 -87 -60 -119 -125 -119c-64 0 -121 32 -124 119h71c3 -34 27 -46 53 -46c27 0 51 12 54 46h71z"/>
<glyph unicode="ĕ" glyph-name="ebreve" d="M360 233h-218c0 -60 3 -105 16 -125c8 -12 22 -21 41 -21c17 0 31 7 40 20c9 11 13 30 13 48h106c-2 -47 -13 -87 -45 -121c-28 -30 -65 -42 -114 -42c-47 0 -82 10 -114 43c-44 46 -49 133 -49 229c0 95 5 183 49 229c32 33 70 42 113 42c44 0 80 -9 113 -42 c42 -42 49 -134 49 -260zM254 311c0 62 -4 93 -15 109c-9 13 -21 21 -41 21s-32 -8 -41 -21c-11 -16 -15 -47 -15 -109h112zM323 703c-3 -86 -60 -119 -125 -119s-121 33 -125 119h72c3 -33 27 -46 53 -46s50 13 53 46h72z" horiz-adv-x="394"/>
<glyph unicode="Ė" glyph-name="Edotaccent" d="M359 0h-299v712h299v-101h-187v-202h161v-101h-161v-207h187v-101zM263 770h-99v100h99v-100z"/>
<glyph unicode="ė" glyph-name="edotaccent" d="M360 233h-218c0 -60 3 -105 16 -125c8 -12 22 -21 41 -21c17 0 31 7 40 20c9 11 13 30 13 48h106c-2 -47 -13 -87 -45 -121c-28 -30 -65 -42 -114 -42c-47 0 -82 10 -114 43c-44 46 -49 133 -49 229c0 95 5 183 49 229c32 33 70 42 113 42c44 0 80 -9 113 -42 c42 -42 49 -134 49 -260zM254 311c0 62 -4 93 -15 109c-9 13 -21 21 -41 21s-32 -8 -41 -21c-11 -16 -15 -47 -15 -109h112zM248 598h-100v100h100v-100z" horiz-adv-x="394"/>
<glyph unicode="Ę" glyph-name="Eogonek" d="M359 0h-299v712h299v-101h-187v-202h161v-101h-161v-207h187v-101zM353 -40l-53 -154h-76l61 154h68z"/>
<glyph unicode="ę" glyph-name="eogonek" d="M360 233h-218c0 -60 3 -105 16 -125c8 -12 22 -21 41 -21c17 0 31 7 40 20c9 11 13 30 13 48h106c-2 -47 -13 -87 -45 -121c-28 -30 -65 -42 -114 -42c-47 0 -82 10 -114 43c-44 46 -49 133 -49 229c0 95 5 183 49 229c32 33 70 42 113 42c44 0 80 -9 113 -42 c42 -42 49 -134 49 -260zM254 311c0 62 -4 93 -15 109c-9 13 -21 21 -41 21s-32 -8 -41 -21c-11 -16 -15 -47 -15 -109h112zM285 -40l-53 -154h-76l61 154h68z" horiz-adv-x="394"/>
<glyph unicode="Ě" glyph-name="Ecaron" d="M359 0h-299v712h299v-101h-187v-202h161v-101h-161v-207h187v-101zM354 897l-99 -140h-83l-99 140h81l59 -82l60 82h81z"/>
<glyph unicode="ě" glyph-name="ecaron" d="M360 233h-218c0 -60 3 -105 16 -125c8 -12 22 -21 41 -21c17 0 31 7 40 20c9 11 13 30 13 48h106c-2 -47 -13 -87 -45 -121c-28 -30 -65 -42 -114 -42c-47 0 -82 10 -114 43c-44 46 -49 133 -49 229c0 95 5 183 49 229c32 33 70 42 113 42c44 0 80 -9 113 -42 c42 -42 49 -134 49 -260zM254 311c0 62 -4 93 -15 109c-9 13 -21 21 -41 21s-32 -8 -41 -21c-11 -16 -15 -47 -15 -109h112zM339 724l-99 -140h-84l-99 140h82l59 -82l59 82h82z" horiz-adv-x="394"/>
<glyph unicode="Ĝ" glyph-name="Gcircumflex" d="M413 190c0 -130 -75 -198 -182 -198c-66 0 -109 26 -138 61c-47 56 -52 134 -52 303s5 247 52 303c29 35 72 61 138 61c55 0 97 -18 127 -48c35 -36 53 -88 55 -149h-112c-1 39 -9 96 -70 96c-27 0 -43 -11 -53 -27c-22 -34 -25 -106 -25 -236s3 -202 25 -236 c10 -16 26 -27 53 -27c49 0 70 42 70 91v111h-70v92h182v-197zM372 760h-81l-60 82l-59 -82h-81l99 139h83z" horiz-adv-x="455"/>
<glyph unicode="ĝ" glyph-name="gcircumflex" d="M356 527v-537c0 -68 -16 -108 -45 -137c-27 -27 -71 -43 -114 -43c-44 0 -86 13 -114 41c-33 32 -44 73 -44 116h105c0 -20 4 -37 14 -50c9 -11 23 -16 39 -16s29 6 38 17c10 13 15 32 15 65v91c-8 -10 -18 -20 -29 -28c-15 -10 -32 -14 -53 -14c-40 0 -66 12 -90 39 c-34 40 -42 98 -42 213c0 114 8 172 42 212c24 27 50 39 90 39c21 0 40 -4 55 -14c12 -8 23 -18 31 -28v34h102zM250 187v190c0 23 -5 38 -16 49c-10 10 -21 15 -36 15s-30 -8 -39 -21c-14 -18 -17 -51 -17 -138s3 -120 17 -138c10 -12 24 -20 39 -20s26 4 36 14 c11 11 16 26 16 49zM339 587h-82l-59 82l-59 -82h-82l99 139h84z" horiz-adv-x="408"/>
<glyph unicode="Ğ" glyph-name="Gbreve" d="M413 190c0 -130 -75 -198 -182 -198c-66 0 -109 26 -138 61c-47 56 -52 134 -52 303s5 247 52 303c29 35 72 61 138 61c55 0 97 -18 127 -48c35 -36 53 -88 55 -149h-112c-1 39 -9 96 -70 96c-27 0 -43 -11 -53 -27c-22 -34 -25 -106 -25 -236s3 -202 25 -236 c10 -16 26 -27 53 -27c49 0 70 42 70 91v111h-70v92h182v-197zM356 875c-3 -87 -60 -119 -125 -119c-64 0 -121 32 -124 119h71c3 -34 27 -46 53 -46c27 0 51 12 54 46h71z" horiz-adv-x="455"/>
<glyph unicode="ğ" glyph-name="gbreve" d="M356 527v-537c0 -68 -16 -108 -45 -137c-27 -27 -71 -43 -114 -43c-44 0 -86 13 -114 41c-33 32 -44 73 -44 116h105c0 -20 4 -37 14 -50c9 -11 23 -16 39 -16s29 6 38 17c10 13 15 32 15 65v91c-8 -10 -18 -20 -29 -28c-15 -10 -32 -14 -53 -14c-40 0 -66 12 -90 39 c-34 40 -42 98 -42 213c0 114 8 172 42 212c24 27 50 39 90 39c21 0 40 -4 55 -14c12 -8 23 -18 31 -28v34h102zM250 187v190c0 23 -5 38 -16 49c-10 10 -21 15 -36 15s-30 -8 -39 -21c-14 -18 -17 -51 -17 -138s3 -120 17 -138c10 -12 24 -20 39 -20s26 4 36 14 c11 11 16 26 16 49zM323 703c-3 -86 -60 -119 -125 -119s-121 33 -125 119h72c3 -33 27 -46 53 -46s50 13 53 46h72z" horiz-adv-x="408"/>
<glyph unicode="Ġ" glyph-name="Gdotaccent" d="M413 190c0 -130 -75 -198 -182 -198c-66 0 -109 26 -138 61c-47 56 -52 134 -52 303s5 247 52 303c29 35 72 61 138 61c55 0 97 -18 127 -48c35 -36 53 -88 55 -149h-112c-1 39 -9 96 -70 96c-27 0 -43 -11 -53 -27c-22 -34 -25 -106 -25 -236s3 -202 25 -236 c10 -16 26 -27 53 -27c49 0 70 42 70 91v111h-70v92h182v-197zM281 770h-99v100h99v-100z" horiz-adv-x="455"/>
<glyph unicode="ġ" glyph-name="gdotaccent" d="M356 527v-537c0 -68 -16 -108 -45 -137c-27 -27 -71 -43 -114 -43c-44 0 -86 13 -114 41c-33 32 -44 73 -44 116h105c0 -20 4 -37 14 -50c9 -11 23 -16 39 -16s29 6 38 17c10 13 15 32 15 65v91c-8 -10 -18 -20 -29 -28c-15 -10 -32 -14 -53 -14c-40 0 -66 12 -90 39 c-34 40 -42 98 -42 213c0 114 8 172 42 212c24 27 50 39 90 39c21 0 40 -4 55 -14c12 -8 23 -18 31 -28v34h102zM250 187v190c0 23 -5 38 -16 49c-10 10 -21 15 -36 15s-30 -8 -39 -21c-14 -18 -17 -51 -17 -138s3 -120 17 -138c10 -12 24 -20 39 -20s26 4 36 14 c11 11 16 26 16 49zM248 598h-100v100h100v-100z" horiz-adv-x="408"/>
<glyph unicode="Ģ" glyph-name="Gcommaaccent" d="M413 190c0 -130 -75 -198 -182 -198c-66 0 -109 26 -138 61c-47 56 -52 134 -52 303s5 247 52 303c29 35 72 61 138 61c55 0 97 -18 127 -48c35 -36 53 -88 55 -149h-112c-1 39 -9 96 -70 96c-27 0 -43 -11 -53 -27c-22 -34 -25 -106 -25 -236s3 -202 25 -236 c10 -16 26 -27 53 -27c49 0 70 42 70 91v111h-70v92h182v-197zM267 -40l-53 -154h-76l61 154h68z" horiz-adv-x="455"/>
<glyph unicode="ģ" glyph-name="gcommaaccent" d="M356 527v-537c0 -68 -16 -108 -45 -137c-27 -27 -71 -43 -114 -43c-44 0 -86 13 -114 41c-33 32 -44 73 -44 116h105c0 -20 4 -37 14 -50c9 -11 23 -16 39 -16s29 6 38 17c10 13 15 32 15 65v91c-8 -10 -18 -20 -29 -28c-15 -10 -32 -14 -53 -14c-40 0 -66 12 -90 39 c-34 40 -42 98 -42 213c0 114 8 172 42 212c24 27 50 39 90 39c21 0 40 -4 55 -14c12 -8 23 -18 31 -28v34h102zM250 187v190c0 23 -5 38 -16 49c-10 10 -21 15 -36 15s-30 -8 -39 -21c-14 -18 -17 -51 -17 -138s3 -120 17 -138c10 -12 24 -20 39 -20s26 4 36 14 c11 11 16 26 16 49zM168 587l53 154h76l-61 -154h-68z" horiz-adv-x="408"/>
<glyph unicode="Ĥ" glyph-name="Hcircumflex" d="M423 0h-112v311h-139v-311h-112v712h112v-300h139v300h112v-712zM382 760h-81l-60 82l-59 -82h-81l99 139h83z" horiz-adv-x="483"/>
<glyph unicode="ĥ" glyph-name="hcircumflex" d="M368 0h-106v379c0 41 -23 61 -52 61s-52 -20 -52 -61v-379h-106v712h106v-219c8 11 20 22 31 28c15 9 34 14 53 14c43 0 72 -13 96 -41c21 -24 30 -53 30 -114v-380zM248 759h-82l-59 82l-59 -82h-82l99 139h84z" horiz-adv-x="417"/>
<glyph unicode="Ħ" glyph-name="Hbar" d="M490 517h-50v-517h-113v311h-139v-311h-112v517h-50v88h50v107h112v-107h139v107h113v-107h50v-88zM327 413v104h-139v-104h139z" horiz-adv-x="516"/>
<glyph unicode="ħ" glyph-name="hbar" d="M386 0h-106v379c0 41 -23 61 -52 61s-52 -20 -52 -61v-379h-106v580h-50v67h50v65h106v-65h85v-67h-85v-87c8 11 20 22 31 28c15 9 34 14 53 14c43 0 72 -13 96 -41c21 -24 30 -53 30 -114v-380z" horiz-adv-x="435"/>
<glyph unicode="Ĩ" glyph-name="Itilde" d="M172 0h-112v712h112v-712zM260 814c-34 -34 -59 -46 -90 -46c-22 0 -39 5 -61 17c-15 9 -28 15 -44 15c-14 0 -25 -2 -46 -23l-46 46c35 35 58 47 89 47c23 0 40 -4 62 -17c15 -9 28 -15 44 -15c13 0 25 2 45 23z" horiz-adv-x="232"/>
<glyph unicode="ĩ" glyph-name="itilde" d="M158 0h-106v513h106v-513zM253 642c-34 -35 -59 -47 -90 -47c-22 0 -39 5 -61 17c-15 9 -28 15 -44 15c-14 0 -25 -2 -46 -23l-46 46c35 35 58 47 89 47c23 0 40 -4 62 -17c15 -9 28 -15 44 -15c13 0 25 2 45 23z" horiz-adv-x="210"/>
<glyph unicode="Ī" glyph-name="Imacron" d="M172 0h-112v712h112v-712zM239 776h-245v70h245v-70z" horiz-adv-x="232"/>
<glyph unicode="ī" glyph-name="imacron" d="M158 0h-106v513h106v-513zM229 604h-246v71h246v-71z" horiz-adv-x="210"/>
<glyph unicode="Ĭ" glyph-name="Ibreve" d="M172 0h-112v712h112v-712zM241 875c-3 -87 -60 -119 -125 -119c-64 0 -121 32 -124 119h71c3 -34 27 -46 53 -46c27 0 51 12 54 46h71z" horiz-adv-x="232"/>
<glyph unicode="ĭ" glyph-name="ibreve" d="M158 0h-106v513h106v-513zM230 703c-3 -86 -60 -119 -125 -119s-121 33 -125 119h72c3 -33 27 -46 53 -46s50 13 53 46h72z" horiz-adv-x="210"/>
<glyph unicode="Į" glyph-name="Iogonek" d="M172 0h-112v712h112v-712zM159 -40l-53 -154h-76l61 154h68z" horiz-adv-x="232"/>
<glyph unicode="į" glyph-name="iogonek" d="M158 0h-106v513h106v-513zM163 594h-117v117h117v-117zM149 -40l-53 -154h-76l61 154h68z" horiz-adv-x="210"/>
<glyph unicode="İ" glyph-name="Idotaccent" d="M172 0h-112v712h112v-712zM166 770h-99v100h99v-100z" horiz-adv-x="232"/>
<glyph unicode="ı" glyph-name="dotlessi" d="M158 0h-106v513h106v-513z" horiz-adv-x="210"/>
<glyph unicode="Ĳ" glyph-name="IJ" d="M172 0h-112v712h112v-712zM567 186c0 -57 -16 -106 -49 -140c-34 -36 -80 -54 -143 -54c-58 0 -106 21 -140 57l78 75c12 -17 36 -31 62 -31c46 0 80 32 80 93v526h112v-526z" horiz-adv-x="621"/>
<glyph unicode="ĳ" glyph-name="ij" d="M158 0h-106v513h106v-513zM163 594h-117v117h117v-117zM368 -25c0 -63 -21 -102 -54 -127c-35 -27 -75 -33 -124 -33v95c48 0 72 18 72 71v532h106v-538zM373 594h-117v117h117v-117z" horiz-adv-x="420"/>
<glyph unicode="Ĵ" glyph-name="Jcircumflex" d="M335 186c0 -57 -16 -106 -49 -140c-34 -36 -80 -54 -143 -54c-58 0 -106 21 -140 57l78 75c12 -17 36 -31 62 -31c46 0 80 32 80 93v526h112v-526zM420 760h-81l-60 82l-59 -82h-81l99 139h83z" horiz-adv-x="389"/>
<glyph unicode="ĵ" glyph-name="jcircumflex" d="M158 -25c0 -63 -21 -102 -54 -127c-35 -27 -75 -33 -124 -33v95c48 0 72 18 72 71v532h106v-538zM246 587h-82l-59 82l-59 -82h-82l99 139h84z" horiz-adv-x="210"/>
<glyph unicode="Ķ" glyph-name="Kcommaaccent" d="M462 0h-121l-115 293l-54 -110v-183h-112v712h112v-335l155 335h113l-143 -295zM283 -40l-53 -154h-76l61 154h68z" horiz-adv-x="469"/>
<glyph unicode="ķ" glyph-name="kcommaaccent" d="M409 0h-117l-89 222l-45 -71v-151h-106v712h106v-410l133 225h111l-131 -209zM256 -40l-53 -154h-76l61 154h68z" horiz-adv-x="416"/>
<glyph unicode="ĸ" glyph-name="kgreenlandic" d="M409 0h-117l-89 222l-45 -71v-151h-106v527h106v-225l133 225h111l-131 -209z" horiz-adv-x="416"/>
<glyph unicode="Ĺ" glyph-name="Lacute" d="M359 0h-299v712h112v-611h187v-101zM232 899l-87 -139h-74l72 139h89z" horiz-adv-x="383"/>
<glyph unicode="ĺ" glyph-name="lacute" d="M227 0c-49 0 -90 5 -125 32c-33 25 -53 65 -53 128v552h106v-546c0 -47 23 -71 72 -71v-95zM219 900l-88 -139h-74l72 139h90z" horiz-adv-x="244"/>
<glyph unicode="Ļ" glyph-name="Lcommaaccent" d="M359 0h-299v712h112v-611h187v-101zM255 -40l-53 -154h-76l61 154h68z" horiz-adv-x="383"/>
<glyph unicode="ļ" glyph-name="lcommaaccent" d="M227 0c-49 0 -90 5 -125 32c-33 25 -53 65 -53 128v552h106v-546c0 -47 23 -71 72 -71v-95zM190 -40l-53 -154h-76l61 154h68z" horiz-adv-x="244"/>
<glyph unicode="Ľ" glyph-name="Lcaron" d="M359 0h-299v712h112v-611h187v-101zM335 712l-36 -154h-67l24 154h79z" horiz-adv-x="383"/>
<glyph unicode="ľ" glyph-name="lcaron" d="M227 0c-49 0 -90 5 -125 32c-33 25 -53 65 -53 128v552h106v-546c0 -47 23 -71 72 -71v-95zM298 741l-36 -154h-67l24 154h79z" horiz-adv-x="244"/>
<glyph unicode="Ŀ" glyph-name="Ldot" d="M359 0h-299v712h112v-611h187v-101zM356 308h-100v100h100v-100z" horiz-adv-x="383"/>
<glyph unicode="ŀ" glyph-name="ldot" d="M227 0c-49 0 -90 5 -125 32c-33 25 -53 65 -53 128v552h106v-546c0 -47 23 -71 72 -71v-95zM305 250h-100v100h100v-100z" horiz-adv-x="304"/>
<glyph unicode="Ł" glyph-name="Lslash" d="M372 0h-299v257l-47 -40v106l47 39v350h112v-260l93 78v-105l-93 -79v-245h187v-101z" horiz-adv-x="395"/>
<glyph unicode="ł" glyph-name="lslash" d="M252 0c-49 0 -89 5 -124 32c-33 25 -54 65 -54 128v138l-52 -47v100l52 46v315h106v-229l53 47v-99l-53 -47v-218c0 -47 23 -71 72 -71v-95z" horiz-adv-x="272"/>
<glyph unicode="Ń" glyph-name="Nacute" d="M439 0h-99l-168 423v-423h-112v712h100l167 -423v423h112v-712zM365 899l-87 -139h-74l72 139h89z" horiz-adv-x="499"/>
<glyph unicode="ń" glyph-name="nacute" d="M368 0h-106v379c0 41 -23 61 -52 61s-52 -20 -52 -61v-379h-106v527h102v-39c9 12 22 26 35 33c15 9 34 14 53 14c43 0 72 -13 96 -41c21 -24 30 -53 30 -114v-380zM329 726l-88 -139h-74l72 139h90z" horiz-adv-x="417"/>
<glyph unicode="Ņ" glyph-name="Ncommaaccent" d="M439 0h-99l-168 423v-423h-112v712h100l167 -423v423h112v-712zM283 -40l-53 -154h-76l61 154h68z" horiz-adv-x="499"/>
<glyph unicode="ņ" glyph-name="ncommaaccent" d="M368 0h-106v379c0 41 -23 61 -52 61s-52 -20 -52 -61v-379h-106v527h102v-39c9 12 22 26 35 33c15 9 34 14 53 14c43 0 72 -13 96 -41c21 -24 30 -53 30 -114v-380zM246 -40l-53 -154h-76l61 154h68z" horiz-adv-x="417"/>
<glyph unicode="Ň" glyph-name="Ncaron" d="M439 0h-99l-168 423v-423h-112v712h100l167 -423v423h112v-712zM390 897l-99 -140h-83l-99 140h81l59 -82l60 82h81z" horiz-adv-x="499"/>
<glyph unicode="ň" glyph-name="ncaron" d="M368 0h-106v379c0 41 -23 61 -52 61s-52 -20 -52 -61v-379h-106v527h102v-39c9 12 22 26 35 33c15 9 34 14 53 14c43 0 72 -13 96 -41c21 -24 30 -53 30 -114v-380zM352 724l-99 -140h-84l-99 140h82l59 -82l59 82h82z" horiz-adv-x="417"/>
<glyph unicode="ŉ" glyph-name="napostrophe" d="M404 0h-106v379c0 41 -23 61 -52 61s-52 -20 -52 -61v-379h-106v527h102v-39c9 12 22 26 35 33c15 9 34 14 53 14c43 0 72 -13 96 -41c21 -24 30 -53 30 -114v-380zM79 604l-79 -56v193h79v-137z" horiz-adv-x="453"/>
<glyph unicode="Ŋ" glyph-name="Eng" d="M261 -194v95c39 0 66 18 66 71v61l-155 390v-423h-112v712h100l167 -423v423h112v-746c0 -63 -21 -102 -54 -127c-35 -27 -75 -33 -124 -33z" horiz-adv-x="499"/>
<glyph unicode="ŋ" glyph-name="eng" d="M368 -34c0 -63 -21 -102 -54 -127c-35 -27 -75 -33 -124 -33v95c48 0 72 18 72 71v407c0 41 -23 61 -52 61s-52 -20 -52 -61v-379h-106v527h102v-39c9 12 22 26 35 33c15 9 34 14 53 14c43 0 72 -13 96 -41c21 -24 30 -53 30 -114v-414z" horiz-adv-x="417"/>
<glyph unicode="Ō" glyph-name="Omacron" d="M421 356c0 -169 -4 -247 -52 -303c-29 -35 -72 -61 -138 -61s-109 26 -138 61c-47 57 -52 134 -52 303s5 246 52 303c29 35 72 61 138 61s109 -26 138 -61c48 -56 52 -134 52 -303zM309 356c0 130 -3 202 -24 236c-10 16 -27 27 -54 27s-43 -11 -53 -27 c-21 -34 -25 -106 -25 -236s4 -202 25 -236c10 -16 26 -27 53 -27s44 11 54 27c21 34 24 106 24 236zM354 776h-245v70h245v-70z" horiz-adv-x="462"/>
<glyph unicode="ō" glyph-name="omacron" d="M360 264c0 -89 -4 -170 -37 -216c-31 -43 -74 -56 -125 -56s-94 13 -125 56c-33 46 -37 127 -37 216s4 170 37 216c31 43 74 55 125 55s94 -12 125 -55c33 -46 37 -127 37 -216zM254 264c0 78 -1 131 -15 155c-9 14 -25 22 -41 22s-32 -8 -41 -22 c-14 -24 -15 -77 -15 -155s1 -132 15 -156c9 -14 25 -21 41 -21s32 7 41 21c14 24 15 78 15 156zM321 604h-246v71h246v-71z"/>
<glyph unicode="Ŏ" glyph-name="Obreve" d="M421 356c0 -169 -4 -247 -52 -303c-29 -35 -72 -61 -138 -61s-109 26 -138 61c-47 57 -52 134 -52 303s5 246 52 303c29 35 72 61 138 61s109 -26 138 -61c48 -56 52 -134 52 -303zM309 356c0 130 -3 202 -24 236c-10 16 -27 27 -54 27s-43 -11 -53 -27 c-21 -34 -25 -106 -25 -236s4 -202 25 -236c10 -16 26 -27 53 -27s44 11 54 27c21 34 24 106 24 236zM356 875c-3 -87 -60 -119 -125 -119c-64 0 -121 32 -124 119h71c3 -34 27 -46 53 -46c27 0 51 12 54 46h71z" horiz-adv-x="462"/>
<glyph unicode="ŏ" glyph-name="obreve" d="M360 264c0 -89 -4 -170 -37 -216c-31 -43 -74 -56 -125 -56s-94 13 -125 56c-33 46 -37 127 -37 216s4 170 37 216c31 43 74 55 125 55s94 -12 125 -55c33 -46 37 -127 37 -216zM254 264c0 78 -1 131 -15 155c-9 14 -25 22 -41 22s-32 -8 -41 -22 c-14 -24 -15 -77 -15 -155s1 -132 15 -156c9 -14 25 -21 41 -21s32 7 41 21c14 24 15 78 15 156zM323 703c-3 -86 -60 -119 -125 -119s-121 33 -125 119h72c3 -33 27 -46 53 -46s50 13 53 46h72z"/>
<glyph unicode="Ő" glyph-name="Ohungarumlaut" d="M421 356c0 -169 -4 -247 -52 -303c-29 -35 -72 -61 -138 -61s-109 26 -138 61c-47 57 -52 134 -52 303s5 246 52 303c29 35 72 61 138 61s109 -26 138 -61c48 -56 52 -134 52 -303zM309 356c0 130 -3 202 -24 236c-10 16 -27 27 -54 27s-43 -11 -53 -27 c-21 -34 -25 -106 -25 -236s4 -202 25 -236c10 -16 26 -27 53 -27s44 11 54 27c21 34 24 106 24 236zM256 900l-68 -140h-69l47 140h90zM404 900l-67 -140h-68l46 140h89z" horiz-adv-x="462"/>
<glyph unicode="ő" glyph-name="ohungarumlaut" d="M360 264c0 -89 -4 -170 -37 -216c-31 -43 -74 -56 -125 -56s-94 13 -125 56c-33 46 -37 127 -37 216s4 170 37 216c31 43 74 55 125 55s94 -12 125 -55c33 -46 37 -127 37 -216zM254 264c0 78 -1 131 -15 155c-9 14 -25 22 -41 22s-32 -8 -41 -22 c-14 -24 -15 -77 -15 -155s1 -132 15 -156c9 -14 25 -21 41 -21s32 7 41 21c14 24 15 78 15 156zM222 727l-67 -140h-69l47 140h89zM371 727l-67 -140h-69l46 140h90z"/>
<glyph unicode="Œ" glyph-name="OE" d="M604 0h-288v27c-21 -21 -54 -35 -90 -35c-61 0 -105 24 -133 60c-45 58 -52 164 -52 304s5 247 52 304c29 36 72 60 133 60c36 0 71 -15 90 -35v27h288v-101h-187v-202h161v-101h-161v-207h187v-101zM309 356c0 130 -3 202 -24 236c-10 16 -27 27 -54 27s-43 -11 -53 -27 c-21 -34 -25 -106 -25 -236s4 -202 25 -236c10 -16 26 -27 53 -27s44 11 54 27c21 34 24 106 24 236z" horiz-adv-x="642"/>
<glyph unicode="œ" glyph-name="oe" d="M578 233h-218c0 -60 3 -105 16 -125c8 -12 22 -21 41 -21c18 0 32 7 41 20c8 11 12 30 12 48h106c-2 -47 -13 -87 -45 -121c-27 -30 -65 -42 -114 -42c-37 0 -69 13 -91 31c-7 5 -12 12 -17 19c-5 -8 -9 -13 -18 -20c-23 -18 -57 -30 -93 -30c-51 0 -94 13 -125 56 c-33 45 -37 127 -37 216s4 170 37 216c31 43 74 55 125 55c36 0 71 -11 95 -31c6 -5 11 -11 16 -19c4 8 11 15 18 20c25 19 56 30 89 30c44 0 80 -9 113 -42c42 -42 49 -134 49 -260zM254 264c0 78 -1 131 -15 155c-9 14 -25 22 -41 22s-32 -8 -41 -22 c-14 -24 -15 -77 -15 -155s1 -131 15 -156c9 -14 25 -21 41 -21s32 7 41 21c14 25 15 78 15 156zM472 311c0 62 -4 93 -15 109c-9 13 -21 21 -41 21s-32 -8 -40 -21c-12 -16 -16 -47 -16 -109h112z" horiz-adv-x="613"/>
<glyph unicode="Ŕ" glyph-name="Racute" d="M445 0h-117l-93 292h-63v-292h-112v712h180c130 0 182 -63 182 -210c0 -88 -18 -151 -83 -186zM310 502c0 59 -9 109 -69 109h-69v-218h69c60 0 69 50 69 109zM345 899l-87 -139h-74l72 139h89z" horiz-adv-x="478"/>
<glyph unicode="ŕ" glyph-name="racute" d="M282 432h-36c-50 0 -88 -34 -88 -91v-341h-106v527h102v-56c11 16 28 31 46 42c23 14 51 22 82 22v-103zM271 726l-88 -139h-74l72 139h90z" horiz-adv-x="299"/>
<glyph unicode="Ŗ" glyph-name="Rcommaaccent" d="M445 0h-117l-93 292h-63v-292h-112v712h180c130 0 182 -63 182 -210c0 -88 -18 -151 -83 -186zM310 502c0 59 -9 109 -69 109h-69v-218h69c60 0 69 50 69 109zM282 -40l-53 -154h-76l61 154h68z" horiz-adv-x="478"/>
<glyph unicode="ŗ" glyph-name="rcommaaccent" d="M282 432h-36c-50 0 -88 -34 -88 -91v-341h-106v527h102v-56c11 16 28 31 46 42c23 14 51 22 82 22v-103zM139 -40l-53 -154h-76l61 154h68z" horiz-adv-x="299"/>
<glyph unicode="Ř" glyph-name="Rcaron" d="M445 0h-117l-93 292h-63v-292h-112v712h180c130 0 182 -63 182 -210c0 -88 -18 -151 -83 -186zM310 502c0 59 -9 109 -69 109h-69v-218h69c60 0 69 50 69 109zM370 897l-99 -140h-83l-99 140h81l59 -82l60 82h81z" horiz-adv-x="478"/>
<glyph unicode="ř" glyph-name="rcaron" d="M282 432h-36c-50 0 -88 -34 -88 -91v-341h-106v527h102v-56c11 16 28 31 46 42c23 14 51 22 82 22v-103zM296 724l-99 -140h-84l-99 140h82l59 -82l59 82h82z" horiz-adv-x="299"/>
<glyph unicode="Ś" glyph-name="Sacute" d="M404 197c0 -73 -10 -122 -46 -157c-29 -28 -76 -47 -139 -47c-62 0 -108 17 -138 47c-34 34 -46 78 -46 153h112c0 -38 4 -62 20 -80c10 -11 27 -19 52 -19c26 0 43 7 54 20c15 17 19 41 19 79c0 76 -12 95 -67 117l-85 35c-72 30 -99 69 -99 179c0 64 19 116 58 151 c31 27 71 43 122 43c57 0 99 -15 128 -43c37 -36 50 -87 50 -155h-112c0 32 -2 57 -17 76c-10 13 -26 21 -50 21c-23 0 -37 -8 -48 -20c-13 -15 -19 -39 -19 -70c0 -58 9 -76 59 -96l84 -34c85 -35 108 -80 108 -200zM343 899l-87 -139h-74l72 139h89z" horiz-adv-x="442"/>
<glyph unicode="ś" glyph-name="sacute" d="M352 152c0 -52 -20 -90 -47 -117c-32 -32 -70 -43 -115 -43s-89 15 -116 43c-31 32 -47 69 -47 119h105c0 -21 6 -38 18 -50c10 -11 26 -16 40 -16c17 0 29 4 41 15c10 9 15 25 15 42c0 15 -3 27 -11 39s-22 22 -41 30l-70 31c-36 16 -62 37 -77 61c-12 19 -17 43 -17 72 c0 51 18 84 46 113c29 29 70 44 114 44s84 -14 111 -40c28 -27 45 -64 45 -117h-104c0 23 -5 37 -15 48s-23 16 -37 16c-16 0 -30 -6 -39 -15c-10 -10 -15 -24 -15 -40c0 -13 2 -22 8 -31c7 -11 21 -22 39 -30l70 -30c36 -16 60 -33 77 -58c14 -20 22 -50 22 -86zM310 726 l-88 -139h-74l72 139h90z" horiz-adv-x="381"/>
<glyph unicode="Ŝ" glyph-name="Scircumflex" d="M404 197c0 -73 -10 -122 -46 -157c-29 -28 -76 -47 -139 -47c-62 0 -108 17 -138 47c-34 34 -46 78 -46 153h112c0 -38 4 -62 20 -80c10 -11 27 -19 52 -19c26 0 43 7 54 20c15 17 19 41 19 79c0 76 -12 95 -67 117l-85 35c-72 30 -99 69 -99 179c0 64 19 116 58 151 c31 27 71 43 122 43c57 0 99 -15 128 -43c37 -36 50 -87 50 -155h-112c0 32 -2 57 -17 76c-10 13 -26 21 -50 21c-23 0 -37 -8 -48 -20c-13 -15 -19 -39 -19 -70c0 -58 9 -76 59 -96l84 -34c85 -35 108 -80 108 -200zM369 760h-81l-60 82l-59 -82h-81l99 139h83z" horiz-adv-x="442"/>
<glyph unicode="ŝ" glyph-name="scircumflex" d="M352 152c0 -52 -20 -90 -47 -117c-32 -32 -70 -43 -115 -43s-89 15 -116 43c-31 32 -47 69 -47 119h105c0 -21 6 -38 18 -50c10 -11 26 -16 40 -16c17 0 29 4 41 15c10 9 15 25 15 42c0 15 -3 27 -11 39s-22 22 -41 30l-70 31c-36 16 -62 37 -77 61c-12 19 -17 43 -17 72 c0 51 18 84 46 113c29 29 70 44 114 44s84 -14 111 -40c28 -27 45 -64 45 -117h-104c0 23 -5 37 -15 48s-23 16 -37 16c-16 0 -30 -6 -39 -15c-10 -10 -15 -24 -15 -40c0 -13 2 -22 8 -31c7 -11 21 -22 39 -30l70 -30c36 -16 60 -33 77 -58c14 -20 22 -50 22 -86zM334 587 h-82l-59 82l-59 -82h-82l99 139h84z" horiz-adv-x="381"/>
<glyph unicode="Ş" glyph-name="Scedilla" d="M404 197c0 -73 -10 -122 -46 -157c-29 -28 -76 -47 -139 -47c-62 0 -108 17 -138 47c-34 34 -46 78 -46 153h112c0 -38 4 -62 20 -80c10 -11 27 -19 52 -19c26 0 43 7 54 20c15 17 19 41 19 79c0 76 -12 95 -67 117l-85 35c-72 30 -99 69 -99 179c0 64 19 116 58 151 c31 27 71 43 122 43c57 0 99 -15 128 -43c37 -36 50 -87 50 -155h-112c0 32 -2 57 -17 76c-10 13 -26 21 -50 21c-23 0 -37 -8 -48 -20c-13 -15 -19 -39 -19 -70c0 -58 9 -76 59 -96l84 -34c85 -35 108 -80 108 -200zM253 -40l-53 -154h-76l61 154h68z" horiz-adv-x="442"/>
<glyph unicode="ş" glyph-name="scedilla" d="M352 152c0 -52 -20 -90 -47 -117c-32 -32 -70 -43 -115 -43s-89 15 -116 43c-31 32 -47 69 -47 119h105c0 -21 6 -38 18 -50c10 -11 26 -16 40 -16c17 0 29 4 41 15c10 9 15 25 15 42c0 15 -3 27 -11 39s-22 22 -41 30l-70 31c-36 16 -62 37 -77 61c-12 19 -17 43 -17 72 c0 51 18 84 46 113c29 29 70 44 114 44s84 -14 111 -40c28 -27 45 -64 45 -117h-104c0 23 -5 37 -15 48s-23 16 -37 16c-16 0 -30 -6 -39 -15c-10 -10 -15 -24 -15 -40c0 -13 2 -22 8 -31c7 -11 21 -22 39 -30l70 -30c36 -16 60 -33 77 -58c14 -20 22 -50 22 -86zM224 -40 l-53 -154h-76l61 154h68z" horiz-adv-x="381"/>
<glyph unicode="Š" glyph-name="Scaron" d="M404 197c0 -73 -10 -122 -46 -157c-29 -28 -76 -47 -139 -47c-62 0 -108 17 -138 47c-34 34 -46 78 -46 153h112c0 -38 4 -62 20 -80c10 -11 27 -19 52 -19c26 0 43 7 54 20c15 17 19 41 19 79c0 76 -12 95 -67 117l-85 35c-72 30 -99 69 -99 179c0 64 19 116 58 151 c31 27 71 43 122 43c57 0 99 -15 128 -43c37 -36 50 -87 50 -155h-112c0 32 -2 57 -17 76c-10 13 -26 21 -50 21c-23 0 -37 -8 -48 -20c-13 -15 -19 -39 -19 -70c0 -58 9 -76 59 -96l84 -34c85 -35 108 -80 108 -200zM370 897l-99 -140h-83l-99 140h81l59 -82l60 82h81z" horiz-adv-x="442"/>
<glyph unicode="š" glyph-name="scaron" d="M352 152c0 -52 -20 -90 -47 -117c-32 -32 -70 -43 -115 -43s-89 15 -116 43c-31 32 -47 69 -47 119h105c0 -21 6 -38 18 -50c10 -11 26 -16 40 -16c17 0 29 4 41 15c10 9 15 25 15 42c0 15 -3 27 -11 39s-22 22 -41 30l-70 31c-36 16 -62 37 -77 61c-12 19 -17 43 -17 72 c0 51 18 84 46 113c29 29 70 44 114 44s84 -14 111 -40c28 -27 45 -64 45 -117h-104c0 23 -5 37 -15 48s-23 16 -37 16c-16 0 -30 -6 -39 -15c-10 -10 -15 -24 -15 -40c0 -13 2 -22 8 -31c7 -11 21 -22 39 -30l70 -30c36 -16 60 -33 77 -58c14 -20 22 -50 22 -86zM335 724 l-99 -140h-84l-99 140h82l59 -82l59 82h82z" horiz-adv-x="381"/>
<glyph unicode="Ţ" glyph-name="Tcommaaccent" d="M372 611h-120v-611h-112v611h-119v101h351v-101zM230 -40l-53 -154h-76l61 154h68z" horiz-adv-x="393"/>
<glyph unicode="ţ" glyph-name="tcommaaccent" d="M254 0c-50 0 -92 4 -128 32c-33 26 -53 66 -53 128v272h-54v81h54v149h106v-149h73v-81h-73v-266c0 -49 25 -71 75 -71v-95zM202 -40l-53 -154h-76l61 154h68z" horiz-adv-x="274"/>
<glyph unicode="Ť" glyph-name="Tcaron" d="M372 611h-120v-611h-112v611h-119v101h351v-101zM337 897l-99 -140h-83l-99 140h81l59 -82l60 82h81z" horiz-adv-x="393"/>
<glyph unicode="ť" glyph-name="tcaron" d="M254 0c-50 0 -92 4 -128 32c-33 26 -53 66 -53 128v272h-54v81h54v149h106v-149h73v-81h-73v-266c0 -49 25 -71 75 -71v-95zM319 741l-36 -154h-67l24 154h79z" horiz-adv-x="274"/>
<glyph unicode="Ŧ" glyph-name="Tbar" d="M372 611h-120v-209h61v-88h-61v-314h-112v314h-60v88h60v209h-119v101h351v-101z" horiz-adv-x="393"/>
<glyph unicode="ŧ" glyph-name="tbar" d="M254 0c-50 0 -92 4 -128 32c-33 26 -53 66 -53 128v101h-54v81h54v90h-54v81h54v149h106v-149h73v-81h-73v-90h73v-81h-73v-95c0 -49 25 -71 75 -71v-95z" horiz-adv-x="274"/>
<glyph unicode="Ũ" glyph-name="Utilde" d="M417 175c0 -54 -18 -99 -49 -131c-34 -35 -79 -52 -132 -52s-99 17 -133 52c-31 32 -49 77 -49 131v537h112v-543c0 -51 32 -76 70 -76s69 25 69 76v543h112v-537zM382 814c-34 -34 -59 -46 -90 -46c-22 0 -39 5 -61 17c-15 9 -28 15 -44 15c-14 0 -25 -2 -46 -23l-46 46 c35 35 58 47 89 47c23 0 40 -4 62 -17c15 -9 28 -15 44 -15c13 0 25 2 45 23z" horiz-adv-x="471"/>
<glyph unicode="ũ" glyph-name="utilde" d="M365 0h-101v40c-9 -12 -23 -26 -36 -33c-15 -9 -34 -15 -53 -15c-43 0 -72 13 -96 41c-21 24 -30 53 -30 114v380h106v-379c0 -41 23 -61 52 -61s52 20 52 61v379h106v-527zM351 642c-34 -35 -59 -47 -90 -47c-22 0 -39 5 -61 17c-15 9 -28 15 -44 15 c-14 0 -25 -2 -46 -23l-46 46c35 35 58 47 89 47c23 0 40 -4 62 -17c15 -9 28 -15 44 -15c13 0 25 2 45 23z" horiz-adv-x="417"/>
<glyph unicode="Ū" glyph-name="Umacron" d="M417 175c0 -54 -18 -99 -49 -131c-34 -35 -79 -52 -132 -52s-99 17 -133 52c-31 32 -49 77 -49 131v537h112v-543c0 -51 32 -76 70 -76s69 25 69 76v543h112v-537zM358 776h-245v70h245v-70z" horiz-adv-x="471"/>
<glyph unicode="ū" glyph-name="umacron" d="M365 0h-101v40c-9 -12 -23 -26 -36 -33c-15 -9 -34 -15 -53 -15c-43 0 -72 13 -96 41c-21 24 -30 53 -30 114v380h106v-379c0 -41 23 -61 52 -61s52 20 52 61v379h106v-527zM330 604h-246v71h246v-71z" horiz-adv-x="417"/>
<glyph unicode="Ŭ" glyph-name="Ubreve" d="M417 175c0 -54 -18 -99 -49 -131c-34 -35 -79 -52 -132 -52s-99 17 -133 52c-31 32 -49 77 -49 131v537h112v-543c0 -51 32 -76 70 -76s69 25 69 76v543h112v-537zM360 875c-3 -87 -60 -119 -125 -119c-64 0 -121 32 -124 119h71c3 -34 27 -46 53 -46c27 0 51 12 54 46 h71z" horiz-adv-x="471"/>
<glyph unicode="ŭ" glyph-name="ubreve" d="M365 0h-101v40c-9 -12 -23 -26 -36 -33c-15 -9 -34 -15 -53 -15c-43 0 -72 13 -96 41c-21 24 -30 53 -30 114v380h106v-379c0 -41 23 -61 52 -61s52 20 52 61v379h106v-527zM332 703c-3 -86 -60 -119 -125 -119s-121 33 -125 119h72c3 -33 27 -46 53 -46s50 13 53 46h72z " horiz-adv-x="417"/>
<glyph unicode="Ů" glyph-name="Uring" d="M417 175c0 -54 -18 -99 -49 -131c-34 -35 -79 -52 -132 -52s-99 17 -133 52c-31 32 -49 77 -49 131v537h112v-543c0 -51 32 -76 70 -76s69 25 69 76v543h112v-537zM340 858c0 -58 -47 -104 -105 -104c-57 0 -104 46 -104 104s47 104 104 104c58 0 105 -46 105 -104z M281 858c0 25 -21 46 -46 46s-45 -21 -45 -46s20 -46 45 -46s46 21 46 46z" horiz-adv-x="471"/>
<glyph unicode="ů" glyph-name="uring" d="M365 0h-101v40c-9 -12 -23 -26 -36 -33c-15 -9 -34 -15 -53 -15c-43 0 -72 13 -96 41c-21 24 -30 53 -30 114v380h106v-379c0 -41 23 -61 52 -61s52 20 52 61v379h106v-527zM312 689c0 -57 -47 -104 -105 -104s-104 47 -104 104c0 58 46 105 104 105s105 -46 105 -105z M253 689c0 25 -21 46 -46 46s-46 -21 -46 -46s21 -45 46 -45s46 20 46 45z" horiz-adv-x="417"/>
<glyph unicode="Ű" glyph-name="Uhungarumlaut" d="M417 175c0 -54 -18 -99 -49 -131c-34 -35 -79 -52 -132 -52s-99 17 -133 52c-31 32 -49 77 -49 131v537h112v-543c0 -51 32 -76 70 -76s69 25 69 76v543h112v-537zM260 900l-68 -140h-69l47 140h90zM408 900l-67 -140h-68l46 140h89z" horiz-adv-x="471"/>
<glyph unicode="ű" glyph-name="uhungarumlaut" d="M365 0h-101v40c-9 -12 -23 -26 -36 -33c-15 -9 -34 -15 -53 -15c-43 0 -72 13 -96 41c-21 24 -30 53 -30 114v380h106v-379c0 -41 23 -61 52 -61s52 20 52 61v379h106v-527zM231 727l-67 -140h-69l47 140h89zM380 727l-67 -140h-69l46 140h90z" horiz-adv-x="417"/>
<glyph unicode="Ų" glyph-name="Uogonek" d="M417 175c0 -54 -18 -99 -49 -131c-34 -35 -79 -52 -132 -52s-99 17 -133 52c-31 32 -49 77 -49 131v537h112v-543c0 -51 32 -76 70 -76s69 25 69 76v543h112v-537zM346 -40l-53 -154h-76l61 154h68z" horiz-adv-x="471"/>
<glyph unicode="ų" glyph-name="uogonek" d="M365 0h-101v40c-9 -12 -23 -26 -36 -33c-15 -9 -34 -15 -53 -15c-43 0 -72 13 -96 41c-21 24 -30 53 -30 114v380h106v-379c0 -41 23 -61 52 -61s52 20 52 61v379h106v-527zM353 -40l-53 -154h-76l61 154h68z" horiz-adv-x="417"/>
<glyph unicode="Ŵ" glyph-name="Wcircumflex" d="M710 712l-134 -712h-117l-102 541l-101 -541h-117l-135 712h123l70 -540l98 540h124l99 -540l69 540h123zM498 760h-81l-60 82l-59 -82h-81l99 139h83z" horiz-adv-x="714"/>
<glyph unicode="ŵ" glyph-name="wcircumflex" d="M573 527l-118 -527h-105l-63 342l-62 -342h-105l-116 527h118l55 -359l65 359h91l66 -359l55 359h119zM429 587h-82l-59 82l-59 -82h-82l99 139h84z" horiz-adv-x="577"/>
<glyph unicode="Ŷ" glyph-name="Ycircumflex" d="M388 712l-138 -433v-279h-112v279l-138 433h124l70 -282l71 282h123zM335 760h-81l-60 82l-59 -82h-81l99 139h83z" horiz-adv-x="389"/>
<glyph unicode="ŷ" glyph-name="ycircumflex" d="M377 527l-148 -594c-26 -106 -101 -118 -197 -118v94c46 1 81 5 94 55l9 37l-131 526h117l70 -359l69 359h117zM334 587h-82l-59 82l-59 -82h-82l99 139h84z" horiz-adv-x="382"/>
<glyph unicode="Ÿ" glyph-name="Ydieresis" d="M388 712l-138 -433v-279h-112v279l-138 433h124l70 -282l71 282h123zM333 770h-100v100h100v-100zM158 770h-100v100h100v-100z" horiz-adv-x="389"/>
<glyph unicode="Ź" glyph-name="Zacute" d="M341 0h-310v84l194 527h-182v101h298v-84l-193 -527h193v-101zM310 899l-87 -139h-74l72 139h89z" horiz-adv-x="373"/>
<glyph unicode="ź" glyph-name="zacute" d="M299 0h-273v80l154 353h-142v94h261v-79l-154 -353h154v-95zM289 726l-88 -139h-74l72 139h90z" horiz-adv-x="325"/>
<glyph unicode="Ż" glyph-name="Zdotaccent" d="M341 0h-310v84l194 527h-182v101h298v-84l-193 -527h193v-101zM244 770h-99v100h99v-100z" horiz-adv-x="373"/>
<glyph unicode="ż" glyph-name="zdotaccent" d="M299 0h-273v80l154 353h-142v94h261v-79l-154 -353h154v-95zM221 598h-100v100h100v-100z" horiz-adv-x="325"/>
<glyph unicode="Ž" glyph-name="Zcaron" d="M341 0h-310v84l194 527h-182v101h298v-84l-193 -527h193v-101zM335 897l-99 -140h-83l-99 140h81l59 -82l60 82h81z" horiz-adv-x="373"/>
<glyph unicode="ž" glyph-name="zcaron" d="M299 0h-273v80l154 353h-142v94h261v-79l-154 -353h154v-95zM312 724l-99 -140h-84l-99 140h82l59 -82l59 82h82z" horiz-adv-x="325"/>
<glyph unicode="ſ" glyph-name="longs" d="M158 552v-552h-106v558c0 62 20 101 53 127c35 27 77 33 126 33v-95c-49 0 -73 -23 -73 -71z" horiz-adv-x="210"/>
<glyph unicode="Ə" glyph-name="uni018F" d="M40 190v197h260c-1 110 -5 174 -25 205c-10 16 -26 27 -53 27c-61 0 -69 -57 -70 -96h-112c2 61 20 113 55 149c30 30 72 48 127 48c66 0 109 -26 138 -61c47 -56 52 -134 52 -303s-5 -247 -52 -303c-29 -35 -72 -61 -138 -61c-107 0 -182 68 -182 198zM152 295v-111 c0 -49 21 -91 70 -91c27 0 43 11 53 27c18 28 24 83 25 175h-148z" horiz-adv-x="455"/>
<glyph unicode="ƒ" glyph-name="florin" d="M342 624h-41c-30 0 -54 -20 -59 -50l-33 -186h75v-80h-90l-89 -493h-105l89 493h-52v80h67l33 192c17 97 88 139 161 139h44v-95z" horiz-adv-x="365"/>
<glyph unicode="Ƶ" glyph-name="uni01B5" d="M341 0h-310v84l87 236h-67v71h93l81 220h-182v101h298v-84l-86 -237h65v-71h-92l-80 -219h193v-101z" horiz-adv-x="373"/>
<glyph unicode="ƶ" glyph-name="uni01B6" d="M299 0h-273v80l65 150h-49v67h78l60 136h-142v94h261v-79l-66 -151h49v-67h-78l-59 -135h154v-95z" horiz-adv-x="325"/>
<glyph unicode="Ǆ" glyph-name="uni01C4" d="M431 357c0 -164 -4 -245 -52 -298c-29 -33 -70 -59 -138 -59h-181v712h181c68 0 109 -26 138 -59c48 -53 52 -132 52 -296zM319 357c0 124 -2 192 -24 225c-11 17 -30 29 -57 29h-66v-510h66c27 0 46 12 57 29c22 33 24 103 24 227zM813 0h-310v84l194 527h-182v101h298 v-84l-193 -527h193v-101zM807 897l-99 -140h-83l-99 140h81l59 -82l60 82h81z" horiz-adv-x="845"/>
<glyph unicode="ǅ" glyph-name="uni01C5" d="M431 357c0 -164 -4 -245 -52 -298c-29 -33 -70 -59 -138 -59h-181v712h181c68 0 109 -26 138 -59c48 -53 52 -132 52 -296zM319 357c0 124 -2 192 -24 225c-11 17 -30 29 -57 29h-66v-510h66c27 0 46 12 57 29c22 33 24 103 24 227zM771 0h-273v80l154 353h-142v94h261 v-79l-154 -353h154v-95zM784 724l-99 -140h-84l-99 140h82l59 -82l59 82h82z" horiz-adv-x="797"/>
<glyph unicode="ǆ" glyph-name="uni01C6" d="M356 0h-102v40c-5 -11 -24 -27 -35 -33c-15 -10 -34 -15 -53 -15c-40 0 -68 11 -93 41c-35 42 -37 117 -37 231s2 188 37 230c24 29 52 41 93 41c19 0 38 -5 53 -14c11 -6 22 -17 31 -28v219h106v-712zM250 150v227c0 23 -5 38 -16 49c-10 10 -21 15 -36 15 c-16 0 -30 -8 -39 -21c-14 -18 -17 -56 -17 -156s3 -139 17 -157c9 -13 23 -20 39 -20c15 0 26 4 36 14c11 11 16 26 16 49zM707 0h-273v80l154 353h-142v94h261v-79l-154 -353h154v-95zM720 724l-99 -140h-84l-99 140h82l59 -82l59 82h82z" horiz-adv-x="733"/>
<glyph unicode="Ǉ" glyph-name="uni01C7" d="M359 0h-299v712h112v-611h187v-101zM718 186c0 -57 -16 -106 -49 -140c-34 -36 -80 -54 -143 -54c-58 0 -106 21 -140 57l78 75c12 -17 36 -31 62 -31c46 0 80 32 80 93v526h112v-526z" horiz-adv-x="772"/>
<glyph unicode="ǈ" glyph-name="uni01C8" d="M359 0h-299v712h112v-611h187v-101zM541 -25c0 -63 -21 -102 -54 -127c-35 -27 -75 -33 -124 -33v95c48 0 72 18 72 71v532h106v-538zM546 594h-117v117h117v-117z" horiz-adv-x="593"/>
<glyph unicode="ǉ" glyph-name="uni01C9" d="M227 0c-49 0 -90 5 -125 32c-33 25 -53 65 -53 128v552h106v-546c0 -47 23 -71 72 -71v-95zM402 -25c0 -63 -21 -102 -54 -127c-35 -27 -75 -33 -124 -33v95c48 0 72 18 72 71v532h106v-538zM407 594h-117v117h117v-117z" horiz-adv-x="454"/>
<glyph unicode="Ǌ" glyph-name="uni01CA" d="M439 0h-99l-168 423v-423h-112v712h100l167 -423v423h112v-712zM834 186c0 -57 -16 -106 -49 -140c-34 -36 -80 -54 -143 -54c-58 0 -106 21 -140 57l78 75c12 -17 36 -31 62 -31c46 0 80 32 80 93v526h112v-526z" horiz-adv-x="888"/>
<glyph unicode="ǋ" glyph-name="uni01CB" d="M439 0h-99l-168 423v-423h-112v712h100l167 -423v423h112v-712zM657 -25c0 -63 -21 -102 -54 -127c-35 -27 -75 -33 -124 -33v95c48 0 72 18 72 71v532h106v-538zM662 594h-117v117h117v-117z" horiz-adv-x="709"/>
<glyph unicode="ǌ" glyph-name="uni01CC" d="M368 0h-106v379c0 41 -23 61 -52 61s-52 -20 -52 -61v-379h-106v527h102v-39c9 12 22 26 35 33c15 9 34 14 53 14c43 0 72 -13 96 -41c21 -24 30 -53 30 -114v-380zM575 -25c0 -63 -21 -102 -54 -127c-35 -27 -75 -33 -124 -33v95c48 0 72 18 72 71v532h106v-538z M580 594h-117v117h117v-117z" horiz-adv-x="627"/>
<glyph unicode="Ǳ" glyph-name="uni01F1" d="M431 357c0 -164 -4 -245 -52 -298c-29 -33 -70 -59 -138 -59h-181v712h181c68 0 109 -26 138 -59c48 -53 52 -132 52 -296zM319 357c0 124 -2 192 -24 225c-11 17 -30 29 -57 29h-66v-510h66c27 0 46 12 57 29c22 33 24 103 24 227zM813 0h-310v84l194 527h-182v101h298 v-84l-193 -527h193v-101z" horiz-adv-x="845"/>
<glyph unicode="ǲ" glyph-name="uni01F2" d="M431 357c0 -164 -4 -245 -52 -298c-29 -33 -70 -59 -138 -59h-181v712h181c68 0 109 -26 138 -59c48 -53 52 -132 52 -296zM319 357c0 124 -2 192 -24 225c-11 17 -30 29 -57 29h-66v-510h66c27 0 46 12 57 29c22 33 24 103 24 227zM771 0h-273v80l154 353h-142v94h261 v-79l-154 -353h154v-95z" horiz-adv-x="797"/>
<glyph unicode="ǳ" glyph-name="uni01F3" d="M356 0h-102v40c-5 -11 -24 -27 -35 -33c-15 -10 -34 -15 -53 -15c-40 0 -68 11 -93 41c-35 42 -37 117 -37 231s2 188 37 230c24 29 52 41 93 41c19 0 38 -5 53 -14c11 -6 22 -17 31 -28v219h106v-712zM250 150v227c0 23 -5 38 -16 49c-10 10 -21 15 -36 15 c-16 0 -30 -8 -39 -21c-14 -18 -17 -56 -17 -156s3 -139 17 -157c9 -13 23 -20 39 -20c15 0 26 4 36 14c11 11 16 26 16 49zM707 0h-273v80l154 353h-142v94h261v-79l-154 -353h154v-95z" horiz-adv-x="733"/>
<glyph unicode="Ǻ" glyph-name="Aringacute" d="M462 0h-117l-29 141h-165l-28 -141h-118l175 712h109zM295 242l-61 298l-61 -298h122zM339 858c0 -58 -47 -104 -105 -104c-57 0 -104 46 -104 104s47 104 104 104c58 0 105 -46 105 -104zM280 858c0 25 -21 46 -46 46s-45 -21 -45 -46s20 -46 45 -46s46 21 46 46z M350 1111l-87 -139h-74l72 139h89z" horiz-adv-x="468"/>
<glyph unicode="ǻ" glyph-name="aringacute" d="M350 0h-100v45c-9 -13 -20 -27 -32 -35c-16 -11 -33 -18 -60 -18c-44 0 -72 13 -99 44c-21 25 -32 65 -32 118c0 48 17 90 49 118c26 23 60 36 121 36h47v73c0 39 -18 61 -51 61c-16 0 -27 -6 -35 -15c-11 -12 -16 -27 -16 -49h-106c0 42 12 81 45 114 c25 25 68 43 111 43c44 0 85 -11 112 -39c28 -28 46 -67 46 -124v-372zM244 155v78h-35c-23 0 -40 -2 -55 -16c-13 -12 -21 -38 -21 -59c0 -47 19 -73 55 -73c32 0 56 27 56 70zM300 689c0 -57 -47 -104 -105 -104s-104 47 -104 104c0 58 46 105 104 105s105 -46 105 -105z M241 689c0 25 -21 46 -46 46s-46 -21 -46 -46s21 -45 46 -45s46 20 46 45zM313 943l-88 -139h-74l72 139h90z" horiz-adv-x="399"/>
<glyph unicode="Ǽ" glyph-name="AEacute" d="M638 0h-299v148h-158l-52 -148h-123l261 712h371v-101h-187v-202h161v-101h-161v-207h187v-101zM339 249v362l-125 -362h125zM511 899l-87 -139h-74l72 139h89z" horiz-adv-x="675"/>
<glyph unicode="ǽ" glyph-name="aeacute" d="M244 155v78h-35c-24 0 -40 -2 -55 -16c-13 -12 -21 -38 -21 -59c0 -47 20 -73 55 -73c32 0 56 27 56 70zM461 311c0 62 -4 93 -15 109c-9 13 -21 21 -41 21s-32 -8 -41 -21c-11 -16 -15 -47 -15 -109h112zM568 233h-218c0 -60 2 -105 16 -125c8 -12 21 -21 40 -21 c18 0 31 7 41 21c8 10 13 30 13 47h105c-2 -45 -14 -88 -44 -121c-28 -30 -68 -42 -115 -42c-35 0 -65 8 -89 26c-16 11 -30 27 -41 44c-13 -20 -27 -37 -42 -48c-20 -14 -43 -22 -76 -22c-44 0 -72 13 -99 44c-21 26 -32 65 -32 118c0 48 17 90 49 118c26 23 59 36 121 36 h47v74c0 39 -20 60 -51 60c-17 0 -29 -6 -37 -16c-10 -12 -14 -28 -14 -48h-106c0 42 12 81 45 114c25 25 68 43 111 43c33 0 66 -7 88 -24c7 -6 13 -13 19 -21c5 7 10 12 16 17c25 19 57 28 91 28c44 0 80 -9 113 -42c42 -42 49 -134 49 -260zM417 726l-88 -139h-74l72 139 h90z" horiz-adv-x="602"/>
<glyph unicode="Ǿ" glyph-name="Oslashacute" d="M421 356c0 -169 -4 -247 -52 -303c-29 -35 -72 -61 -138 -61c-35 0 -64 8 -87 19l-19 -55h-74l37 103c-43 56 -47 133 -47 297c0 169 5 246 52 303c29 35 72 61 138 61c35 0 65 -8 87 -20l20 56h74l-37 -105c42 -52 46 -133 46 -295zM153 356c0 -54 0 -96 3 -132l125 374 c-11 13 -27 21 -50 21c-27 0 -43 -11 -53 -27c-21 -34 -25 -106 -25 -236zM309 356c0 53 -1 95 -3 130l-124 -371c9 -14 25 -22 49 -22c27 0 44 11 54 27c21 34 24 106 24 236zM347 899l-87 -139h-74l72 139h89z" horiz-adv-x="462"/>
<glyph unicode="ǿ" glyph-name="oslashacute" d="M367 571l-41 -95c31 -46 34 -127 34 -212c0 -89 -4 -170 -37 -216c-31 -43 -74 -56 -125 -56c-29 0 -55 4 -77 15l-21 -51h-71l41 96c-31 46 -34 127 -34 212c0 89 4 170 37 216c31 43 74 55 125 55c29 0 55 -4 77 -15l21 51h71zM235 429c-9 10 -23 16 -37 16 c-16 0 -32 -7 -41 -22c-15 -25 -16 -79 -16 -159c0 -23 1 -50 3 -60zM255 264c0 23 0 49 -3 59l-91 -225c9 -10 23 -16 37 -16c16 0 32 8 41 23c15 25 16 79 16 159zM316 726l-88 -139h-74l72 139h90z" horiz-adv-x="394"/>
<glyph unicode="Ș" glyph-name="Scommaaccent" d="M404 197c0 -73 -10 -122 -46 -157c-29 -28 -76 -47 -139 -47c-62 0 -108 17 -138 47c-34 34 -46 78 -46 153h112c0 -38 4 -62 20 -80c10 -11 27 -19 52 -19c26 0 43 7 54 20c15 17 19 41 19 79c0 76 -12 95 -67 117l-85 35c-72 30 -99 69 -99 179c0 64 19 116 58 151 c31 27 71 43 122 43c57 0 99 -15 128 -43c37 -36 50 -87 50 -155h-112c0 32 -2 57 -17 76c-10 13 -26 21 -50 21c-23 0 -37 -8 -48 -20c-13 -15 -19 -39 -19 -70c0 -58 9 -76 59 -96l84 -34c85 -35 108 -80 108 -200zM253 -40l-53 -154h-76l61 154h68z" horiz-adv-x="442"/>
<glyph unicode="ș" glyph-name="scommaaccent" d="M352 152c0 -52 -20 -90 -47 -117c-32 -32 -70 -43 -115 -43s-89 15 -116 43c-31 32 -47 69 -47 119h105c0 -21 6 -38 18 -50c10 -11 26 -16 40 -16c17 0 29 4 41 15c10 9 15 25 15 42c0 15 -3 27 -11 39s-22 22 -41 30l-70 31c-36 16 -62 37 -77 61c-12 19 -17 43 -17 72 c0 51 18 84 46 113c29 29 70 44 114 44s84 -14 111 -40c28 -27 45 -64 45 -117h-104c0 23 -5 37 -15 48s-23 16 -37 16c-16 0 -30 -6 -39 -15c-10 -10 -15 -24 -15 -40c0 -13 2 -22 8 -31c7 -11 21 -22 39 -30l70 -30c36 -16 60 -33 77 -58c14 -20 22 -50 22 -86zM224 -40 l-53 -154h-76l61 154h68z" horiz-adv-x="381"/>
<glyph unicode="Ț" glyph-name="uni021A" d="M372 611h-120v-611h-112v611h-119v101h351v-101zM230 -40l-53 -154h-76l61 154h68z" horiz-adv-x="393"/>
<glyph unicode="ț" glyph-name="uni021B" d="M254 0c-50 0 -92 4 -128 32c-33 26 -53 66 -53 128v272h-54v81h54v149h106v-149h73v-81h-73v-266c0 -49 25 -71 75 -71v-95zM202 -40l-53 -154h-76l61 154h68z" horiz-adv-x="274"/>
<glyph unicode="ȷ" glyph-name="uni0237" d="M158 -25c0 -63 -21 -102 -54 -127c-35 -27 -75 -33 -124 -33v95c48 0 72 18 72 71v532h106v-538z" horiz-adv-x="210"/>
<glyph unicode="ə" glyph-name="uni0259" d="M36 294h218c0 60 -3 105 -16 125c-8 12 -22 21 -41 21c-17 0 -31 -7 -40 -20c-9 -11 -13 -30 -13 -48h-106c2 47 13 87 45 121c28 30 65 42 114 42c47 0 82 -10 114 -43c44 -46 49 -133 49 -229c0 -95 -5 -183 -49 -229c-32 -33 -70 -42 -113 -42c-44 0 -80 9 -113 42 c-42 42 -49 134 -49 260zM142 216c0 -62 4 -93 15 -109c9 -13 21 -21 41 -21s32 8 41 21c11 16 15 47 15 109h-112z" horiz-adv-x="394"/>
<glyph unicode="ʻ" glyph-name="uni02BB" d="M172 588h-115v124l115 85v-209z" horiz-adv-x="229"/>
<glyph unicode="ʼ" glyph-name="afii57929" d="M172 588l-115 -86v210h115v-124z" horiz-adv-x="229"/>
<glyph unicode="ˆ" glyph-name="circumflex" d="M339 587h-82l-59 82l-59 -82h-82l99 139h84z"/>
<glyph unicode="ˇ" glyph-name="caron" d="M339 724l-99 -140h-84l-99 140h82l59 -82l59 82h82z"/>
<glyph unicode="˘" glyph-name="breve" d="M323 703c-3 -86 -60 -119 -125 -119s-121 33 -125 119h72c3 -33 27 -46 53 -46s50 13 53 46h72z"/>
<glyph unicode="˙" glyph-name="dotaccent" d="M248 598h-100v100h100v-100z"/>
<glyph unicode="˚" glyph-name="ring" d="M303 689c0 -57 -47 -104 -105 -104s-104 47 -104 104c0 58 46 105 104 105s105 -46 105 -105zM244 689c0 25 -21 46 -46 46s-46 -21 -46 -46s21 -45 46 -45s46 20 46 45z"/>
<glyph unicode="˛" glyph-name="ogonek" d="M243 -40l-53 -154h-76l61 154h68z"/>
<glyph unicode="˜" glyph-name="tilde" d="M345 642c-34 -35 -59 -47 -90 -47c-22 0 -39 5 -61 17c-15 9 -28 15 -44 15c-14 0 -25 -2 -46 -23l-46 46c35 35 58 47 89 47c23 0 40 -4 62 -17c15 -9 28 -15 44 -15c13 0 25 2 45 23z"/>
<glyph unicode="˝" glyph-name="hungarumlaut" d="M222 727l-67 -140h-69l47 140h89zM371 727l-67 -140h-69l46 140h90z"/>
<glyph unicode="Δ" glyph-name="uni0394" d="M462 0h-457l175 712h109zM324 101l-90 439l-90 -439h180z" horiz-adv-x="468"/>
<glyph unicode="Ω" glyph-name="uni03A9" d="M440 0h-167v84c16 9 31 23 38 51c11 46 12 113 12 221c0 150 -6 208 -25 236c-10 15 -28 27 -53 27s-43 -12 -53 -27c-19 -29 -24 -86 -24 -236c0 -108 0 -175 11 -221c7 -28 23 -42 39 -51v-84h-167v94h56c-12 8 -21 19 -28 37c-18 47 -23 133 -23 225 c0 161 3 247 52 304c30 34 69 60 137 60s108 -26 138 -60c49 -57 52 -143 52 -304c0 -92 -3 -179 -23 -225c-7 -18 -17 -29 -29 -37h57v-94z" horiz-adv-x="491"/>
<glyph unicode="μ" glyph-name="uni03BC" d="M367 0h-102v40c-9 -12 -22 -26 -35 -33c-15 -9 -34 -15 -56 -15c-10 0 -19 4 -22 8v-185h-102v712h106v-379c0 -41 24 -61 53 -61s52 20 52 61v379h106v-527z" horiz-adv-x="421"/>
<glyph unicode="π" glyph-name="pi" d="M376 527v-527h-106v439h-104v-439h-106v527h316z" horiz-adv-x="436"/>
<glyph unicode="Ѐ" glyph-name="uni0400" d="M359 0h-299v712h299v-101h-187v-202h161v-101h-161v-207h187v-101zM259 760h-74l-88 139h90z"/>
<glyph unicode="Ё" glyph-name="afii10023" d="M359 0h-299v712h299v-101h-187v-202h161v-101h-161v-207h187v-101zM347 770h-100v100h100v-100zM172 770h-100v100h100v-100z"/>
<glyph unicode="Ђ" glyph-name="afii10051" d="M486 219c0 -144 -50 -219 -184 -219h-11v100h11c61 0 72 52 72 119c0 68 -11 120 -72 120h-67v-339h-112v611h-102v101h349v-101h-135v-172h67c135 0 184 -74 184 -220z" horiz-adv-x="522"/>
<glyph unicode="Ѓ" glyph-name="afii10052" d="M354 611h-182v-611h-112v712h294v-101zM305 899l-87 -139h-74l72 139h89z" horiz-adv-x="376"/>
<glyph unicode="Є" glyph-name="afii10053" d="M413 189c-2 -64 -23 -119 -59 -152c-32 -30 -69 -45 -123 -45c-66 0 -109 26 -138 61c-47 56 -52 134 -52 303s5 247 52 303c29 35 72 61 138 61c54 0 93 -16 125 -46c36 -33 55 -87 57 -150h-112c-1 26 -5 52 -17 69c-10 16 -26 26 -53 26s-43 -11 -53 -27 c-19 -29 -24 -87 -25 -184h134v-100h-134c1 -100 6 -159 25 -188c10 -16 26 -27 53 -27s43 10 53 26c12 18 16 44 17 70h112z" horiz-adv-x="447"/>
<glyph unicode="Ѕ" glyph-name="afii10054" d="M404 197c0 -73 -10 -122 -46 -157c-29 -28 -76 -47 -139 -47c-62 0 -108 17 -138 47c-34 34 -46 78 -46 153h112c0 -38 4 -62 20 -80c10 -11 27 -19 52 -19c26 0 43 7 54 20c15 17 19 41 19 79c0 76 -12 95 -67 117l-85 35c-72 30 -99 69 -99 179c0 64 19 116 58 151 c31 27 71 43 122 43c57 0 99 -15 128 -43c37 -36 50 -87 50 -155h-112c0 32 -2 57 -17 76c-10 13 -26 21 -50 21c-23 0 -37 -8 -48 -20c-13 -15 -19 -39 -19 -70c0 -58 9 -76 59 -96l84 -34c85 -35 108 -80 108 -200z" horiz-adv-x="442"/>
<glyph unicode="І" glyph-name="afii10055" d="M172 0h-112v712h112v-712z" horiz-adv-x="232"/>
<glyph unicode="Ї" glyph-name="afii10056" d="M172 0h-112v712h112v-712zM254 770h-100v100h100v-100zM79 770h-100v100h100v-100z" horiz-adv-x="232"/>
<glyph unicode="Ј" glyph-name="afii10057" d="M335 186c0 -57 -16 -106 -49 -140c-34 -36 -80 -54 -143 -54c-58 0 -106 21 -140 57l78 75c12 -17 36 -31 62 -31c46 0 80 32 80 93v526h112v-526z" horiz-adv-x="389"/>
<glyph unicode="Љ" glyph-name="afii10058" d="M704 217c0 -149 -54 -217 -183 -217h-179v611h-116v-306c0 -275 -81 -305 -180 -305h-33v99h10c51 0 96 16 96 219v394h335v-279h67c129 0 183 -68 183 -216zM592 217c0 72 -15 115 -75 115h-63v-231h63c60 0 75 44 75 116z" horiz-adv-x="741"/>
<glyph unicode="Њ" glyph-name="afii10059" d="M673 217c0 -149 -54 -217 -183 -217h-179v333h-139v-333h-112v712h112v-278h139v278h112v-279h67c129 0 183 -67 183 -216zM561 217c0 72 -15 115 -75 115h-63v-231h63c60 0 75 44 75 116z" horiz-adv-x="709"/>
<glyph unicode="Ћ" glyph-name="afii10060" d="M483 0h-112v225c0 77 -18 114 -83 114h-53v-339h-112v611h-102v101h349v-101h-135v-171h69c141 0 179 -77 179 -198v-242z" horiz-adv-x="523"/>
<glyph unicode="Ќ" glyph-name="afii10061" d="M470 0h-124l-173 371l160 341h118l-163 -336zM171 0h-112v712h112v-712zM361 899l-87 -139h-74l72 139h89z" horiz-adv-x="476"/>
<glyph unicode="Ѝ" glyph-name="uni040D" d="M159 0h-99v712h112v-436l159 436h100v-712h-112v436zM286 760h-74l-88 139h90z" horiz-adv-x="491"/>
<glyph unicode="Ў" glyph-name="afii10062" d="M419 712l-188 -591c-32 -100 -73 -121 -187 -121v100c62 0 84 17 100 73l16 58l-156 481h122l86 -329l85 329h122zM340 873c-3 -88 -62 -116 -128 -116s-125 28 -128 116h75c2 -34 25 -46 53 -46s51 12 53 46h75z" horiz-adv-x="423"/>
<glyph unicode="Џ" glyph-name="afii10145" d="M422 0h-128v-143h-106v143h-128v712h112v-611h138v611h112v-712z" horiz-adv-x="483"/>
<glyph unicode="А" glyph-name="afii10017" d="M462 0h-117l-29 141h-165l-28 -141h-118l175 712h109zM295 242l-61 298l-61 -298h122z" horiz-adv-x="468"/>
<glyph unicode="Б" glyph-name="afii10018" d="M422 217c0 -149 -54 -217 -183 -217h-179v712h331v-100h-219v-179h67c129 0 183 -67 183 -216zM310 217c0 72 -15 115 -75 115h-63v-231h63c60 0 75 44 75 116z" horiz-adv-x="461"/>
<glyph unicode="В" glyph-name="afii10019" d="M423 204c0 -84 -12 -124 -46 -159c-30 -30 -73 -45 -140 -45h-177v712h178c66 0 109 -14 138 -44c33 -33 45 -69 45 -146c0 -51 -8 -90 -41 -124c-10 -10 -22 -19 -37 -25c15 -7 29 -16 39 -26c33 -34 41 -77 41 -143zM311 212c0 79 -25 111 -85 111h-54v-222h54 c60 0 85 28 85 111zM309 515c0 70 -23 96 -81 96h-56v-193h56c58 0 81 29 81 97z" horiz-adv-x="472"/>
<glyph unicode="Г" glyph-name="afii10020" d="M354 611h-182v-611h-112v712h294v-101z" horiz-adv-x="376"/>
<glyph unicode="Д" glyph-name="afii10021" d="M513 -135h-106v135h-288v-135h-106v236h46c37 94 59 204 59 345v266h336v-611h59v-236zM342 101v511h-117v-194c0 -128 -19 -228 -52 -317h169z" horiz-adv-x="539"/>
<glyph unicode="Е" glyph-name="afii10022" d="M359 0h-299v712h299v-101h-187v-202h161v-101h-161v-207h187v-101z"/>
<glyph unicode="Ж" glyph-name="afii10024" d="M714 0h-124l-173 371l160 341h118l-163 -336zM128 0h-124l182 376l-163 336h118l160 -341zM415 0h-112v712h112v-712z" horiz-adv-x="714"/>
<glyph unicode="З" glyph-name="afii10025" d="M399 198c0 -72 -11 -116 -45 -153c-33 -36 -78 -53 -138 -53c-57 0 -99 14 -129 44c-35 35 -51 86 -53 152h112c0 -31 6 -56 20 -74c12 -13 28 -21 50 -21s38 7 49 20c17 20 22 48 22 89c0 52 -8 76 -24 93c-13 13 -28 18 -47 18h-56v95h56c18 0 34 5 45 17 c16 17 23 39 23 89c0 41 -3 66 -20 85c-11 13 -27 20 -48 20c-22 0 -38 -8 -49 -21c-14 -18 -20 -44 -21 -74h-111c1 65 19 115 52 150c30 30 73 46 129 46c58 0 102 -16 134 -50c36 -38 46 -81 46 -152c0 -56 -9 -86 -31 -114c-13 -17 -28 -30 -47 -41 c20 -10 36 -24 48 -39c22 -27 33 -60 33 -126z" horiz-adv-x="447"/>
<glyph unicode="И" glyph-name="afii10026" d="M159 0h-99v712h112v-436l159 436h100v-712h-112v436z" horiz-adv-x="491"/>
<glyph unicode="Й" glyph-name="afii10027" d="M159 0h-99v712h112v-436l159 436h100v-712h-112v436zM373 873c-3 -88 -62 -116 -128 -116s-125 28 -128 116h75c2 -34 25 -46 53 -46s51 12 53 46h75z" horiz-adv-x="491"/>
<glyph unicode="К" glyph-name="afii10028" d="M470 0h-124l-173 371l160 341h118l-163 -336zM171 0h-112v712h112v-712z" horiz-adv-x="476"/>
<glyph unicode="Л" glyph-name="afii10029" d="M452 0h-112v611h-113v-307c0 -274 -81 -304 -181 -304h-33v101h10c51 0 96 14 96 216v395h333v-712z" horiz-adv-x="512"/>
<glyph unicode="М" glyph-name="afii10030" d="M538 0h-112v444l-97 -292h-62l-95 287v-439h-112v712h101l138 -374l137 374h102v-712z" horiz-adv-x="597"/>
<glyph unicode="Н" glyph-name="afii10031" d="M423 0h-112v311h-139v-311h-112v712h112v-300h139v300h112v-712z" horiz-adv-x="483"/>
<glyph unicode="О" glyph-name="afii10032" d="M421 356c0 -169 -4 -247 -52 -303c-29 -35 -72 -61 -138 -61s-109 26 -138 61c-47 57 -52 134 -52 303s5 246 52 303c29 35 72 61 138 61s109 -26 138 -61c48 -56 52 -134 52 -303zM309 356c0 130 -3 202 -24 236c-10 16 -27 27 -54 27s-43 -11 -53 -27 c-21 -34 -25 -106 -25 -236s4 -202 25 -236c10 -16 26 -27 53 -27s44 11 54 27c21 34 24 106 24 236z" horiz-adv-x="462"/>
<glyph unicode="П" glyph-name="afii10033" d="M423 0h-112v611h-140v-611h-112v712h364v-712z" horiz-adv-x="483"/>
<glyph unicode="Р" glyph-name="afii10034" d="M422 495c0 -149 -54 -216 -183 -216h-67v-279h-112v712h179c129 0 183 -68 183 -217zM310 495c0 72 -15 116 -75 116h-63v-231h63c60 0 75 43 75 115z" horiz-adv-x="458"/>
<glyph unicode="С" glyph-name="afii10035" d="M413 189c-2 -64 -23 -119 -59 -152c-32 -30 -69 -45 -123 -45c-66 0 -109 26 -138 61c-47 56 -52 134 -52 303s5 247 52 303c29 35 72 61 138 61c54 0 93 -16 125 -46c36 -33 55 -87 57 -150h-112c-1 26 -5 52 -17 69c-10 16 -26 26 -53 26s-43 -11 -53 -27 c-22 -34 -25 -106 -25 -236s3 -202 25 -236c10 -16 26 -27 53 -27s43 10 53 26c12 18 16 44 17 70h112z" horiz-adv-x="446"/>
<glyph unicode="Т" glyph-name="afii10036" d="M372 611h-120v-611h-112v611h-119v101h351v-101z" horiz-adv-x="393"/>
<glyph unicode="У" glyph-name="afii10037" d="M419 712l-188 -591c-32 -100 -73 -121 -187 -121v100c62 0 84 17 100 73l16 58l-156 481h122l86 -329l85 329h122z" horiz-adv-x="423"/>
<glyph unicode="Ф" glyph-name="afii10038" d="M586 377c0 -172 -30 -291 -218 -298v-84h-112v84c-185 7 -217 123 -217 298c0 181 35 291 217 298v69h112v-69c188 -7 218 -125 218 -298zM474 377c0 134 -13 197 -108 201v-401c95 4 108 66 108 200zM258 177v401c-94 -4 -107 -67 -107 -201s13 -196 107 -200z" horiz-adv-x="625"/>
<glyph unicode="Х" glyph-name="afii10039" d="M421 0h-123l-82 256l-82 -256h-123l141 369l-130 343h123l71 -238l71 238h123l-133 -343z" horiz-adv-x="432"/>
<glyph unicode="Ц" glyph-name="afii10040" d="M482 -143h-106v143h-316v712h112v-611h138v611h112v-611h60v-244z" horiz-adv-x="507"/>
<glyph unicode="Ч" glyph-name="afii10041" d="M411 0h-111v246c-29 -4 -56 -5 -82 -5c-116 0 -165 47 -165 173v298h112v-287c0 -66 23 -84 71 -84c23 0 40 2 63 5v366h112v-712z" horiz-adv-x="471"/>
<glyph unicode="Ш" glyph-name="afii10042" d="M642 0h-582v712h112v-611h123v611h112v-611h123v611h112v-712z" horiz-adv-x="702"/>
<glyph unicode="Щ" glyph-name="afii10043" d="M596 -143v143h-536v712h112v-611h123v611h112v-611h123v611h112v-611h60v-244h-106z" horiz-adv-x="727"/>
<glyph unicode="Ъ" glyph-name="afii10044" d="M487 216c0 -149 -54 -216 -183 -216h-179v612h-104v100h216v-278h67c135 0 183 -74 183 -218zM375 217c0 63 -9 116 -69 116h-69v-232h69c60 0 69 53 69 116z" horiz-adv-x="524"/>
<glyph unicode="Ы" glyph-name="afii10045" d="M422 217c0 -149 -54 -217 -183 -217h-179v712h112v-279h67c129 0 183 -67 183 -216zM310 217c0 72 -15 115 -75 115h-63v-231h63c60 0 75 44 75 116zM595 0h-112v712h112v-712z" horiz-adv-x="654"/>
<glyph unicode="Ь" glyph-name="afii10046" d="M422 217c0 -149 -54 -217 -183 -217h-179v712h112v-279h67c129 0 183 -67 183 -216zM310 217c0 72 -15 115 -75 115h-63v-231h63c60 0 75 44 75 116z" horiz-adv-x="458"/>
<glyph unicode="Э" glyph-name="afii10047" d="M155 308v100h137c-1 97 -6 155 -25 184c-10 16 -26 27 -53 27s-43 -10 -53 -26c-12 -17 -16 -43 -17 -69h-112c2 63 21 117 57 150c32 30 71 46 125 46c66 0 109 -26 138 -61c47 -56 52 -134 52 -303s-5 -247 -52 -303c-29 -35 -72 -61 -138 -61c-54 0 -91 15 -123 45 c-36 33 -57 88 -59 152h112c1 -26 5 -52 17 -70c10 -16 26 -26 53 -26s43 11 53 27c19 29 24 88 25 188h-137z" horiz-adv-x="446"/>
<glyph unicode="Ю" glyph-name="afii10048" d="M172 0h-112v712h112v-312h72c1 138 9 207 52 259c29 35 72 61 138 61s109 -26 138 -61c48 -56 52 -134 52 -303s-4 -247 -52 -303c-29 -35 -72 -61 -138 -61s-109 26 -138 61c-42 50 -51 116 -52 247h-72v-300zM512 356c0 130 -3 202 -24 236c-10 16 -27 27 -54 27 s-43 -11 -53 -27c-21 -34 -25 -106 -25 -236s4 -202 25 -236c10 -16 26 -27 53 -27s44 11 54 27c21 34 24 106 24 236z" horiz-adv-x="666"/>
<glyph unicode="Я" glyph-name="afii10049" d="M149 0h-117l106 316c-65 35 -83 98 -83 186c0 147 52 210 182 210h180v-712h-112v292h-63zM167 502c0 -59 9 -109 69 -109h69v218h-69c-60 0 -69 -50 -69 -109z" horiz-adv-x="477"/>
<glyph unicode="а" glyph-name="afii10065" d="M350 0h-100v45c-9 -13 -20 -27 -32 -35c-16 -11 -33 -18 -60 -18c-44 0 -72 13 -99 44c-21 25 -32 65 -32 118c0 48 17 90 49 118c26 23 60 36 121 36h47v73c0 39 -18 61 -51 61c-16 0 -27 -6 -35 -15c-11 -12 -16 -27 -16 -49h-106c0 42 12 81 45 114 c25 25 68 43 111 43c44 0 85 -11 112 -39c28 -28 46 -67 46 -124v-372zM244 155v78h-35c-23 0 -40 -2 -55 -16c-13 -12 -21 -38 -21 -59c0 -47 19 -73 55 -73c32 0 56 27 56 70z" horiz-adv-x="399"/>
<glyph unicode="б" glyph-name="afii10066" d="M365 264c0 -89 -4 -171 -37 -216c-31 -43 -74 -56 -125 -56s-94 13 -125 56c-33 45 -37 128 -37 216c0 253 7 298 43 357c42 67 126 94 255 97v-94c-80 -1 -131 -11 -159 -41c-20 -23 -29 -52 -34 -92c20 23 52 37 85 37c34 0 64 -9 94 -43c36 -41 40 -109 40 -221z M259 264c0 78 -1 131 -15 155c-9 14 -25 22 -41 22s-32 -8 -41 -22c-14 -24 -15 -77 -15 -155s1 -131 15 -156c9 -14 25 -21 41 -21s32 7 41 21c14 25 15 78 15 156z" horiz-adv-x="400"/>
<glyph unicode="в" glyph-name="afii10067" d="M371 153c0 -60 -11 -90 -39 -117c-25 -24 -64 -36 -120 -36h-160v527h160c56 0 94 -9 119 -33c27 -25 38 -55 38 -109c0 -45 -14 -73 -33 -90c-8 -8 -23 -17 -33 -21c11 -4 27 -13 34 -20c22 -19 34 -49 34 -101zM265 160c0 51 -20 70 -64 70h-46v-139h46 c44 0 64 15 64 69zM263 375c0 46 -20 62 -59 62h-49v-125h49c39 0 59 17 59 63z" horiz-adv-x="408"/>
<glyph unicode="г" glyph-name="afii10068" d="M323 527v-94h-165v-433h-106v527h271z" horiz-adv-x="340"/>
<glyph unicode="д" glyph-name="afii10069" d="M450 -134h-101v134h-235v-134h-101v228h44c29 72 46 146 46 268v165h298v-433h49v-228zM295 94v339h-90v-90c0 -115 -14 -182 -39 -249h129z" horiz-adv-x="472"/>
<glyph unicode="е" glyph-name="afii10070" d="M360 233h-218c0 -60 3 -105 16 -125c8 -12 22 -21 41 -21c17 0 31 7 40 20c9 11 13 30 13 48h106c-2 -47 -13 -87 -45 -121c-28 -30 -65 -42 -114 -42c-47 0 -82 10 -114 43c-44 46 -49 133 -49 229c0 95 5 183 49 229c32 33 70 42 113 42c44 0 80 -9 113 -42 c42 -42 49 -134 49 -260zM254 311c0 62 -4 93 -15 109c-9 13 -21 21 -41 21s-32 -8 -41 -21c-11 -16 -15 -47 -15 -109h112z" horiz-adv-x="394"/>
<glyph unicode="ж" glyph-name="afii10072" d="M620 0h-118l-136 275l124 252h115l-130 -249zM365 0h-106v527h106v-527zM258 275l-135 -275h-119l145 278l-130 249h115z" horiz-adv-x="624"/>
<glyph unicode="з" glyph-name="afii10073" d="M346 145c0 -58 -14 -90 -46 -119c-25 -22 -61 -34 -114 -34c-52 0 -88 14 -114 40c-29 28 -45 69 -45 124h105c0 -25 4 -44 17 -57c8 -8 21 -13 37 -13c17 0 30 6 38 14c11 11 16 25 16 54c0 31 -6 47 -18 58c-10 9 -21 13 -40 13h-36v85h35c17 0 30 5 38 12 c11 11 17 27 17 54s-4 41 -15 52c-8 8 -19 13 -35 13c-17 0 -29 -5 -38 -13c-12 -13 -16 -30 -16 -56h-105c0 52 16 95 43 121s64 42 116 42c53 0 89 -10 115 -36c28 -28 41 -59 41 -114c0 -39 -8 -61 -27 -84c-9 -11 -21 -21 -36 -29c15 -8 28 -18 37 -27 c22 -24 30 -48 30 -100z" horiz-adv-x="381"/>
<glyph unicode="и" glyph-name="afii10074" d="M372 0h-106v300l-120 -300h-94v527h106v-300l120 300h94v-527z" horiz-adv-x="424"/>
<glyph unicode="й" glyph-name="afii10075" d="M372 0h-106v300l-120 -300h-94v527h106v-300l120 300h94v-527zM337 703c-3 -86 -60 -119 -125 -119s-121 33 -125 119h72c3 -33 27 -46 53 -46s50 13 53 46h72z" horiz-adv-x="424"/>
<glyph unicode="к" glyph-name="afii10076" d="M414 0h-118l-136 275l125 252h114l-130 -249zM159 0h-106v527h106v-527z" horiz-adv-x="419"/>
<glyph unicode="л" glyph-name="afii10077" d="M389 0h-106v432h-84v-215c0 -172 -51 -217 -152 -217h-34v94h16c34 0 68 9 68 139v294h292v-527z" horiz-adv-x="441"/>
<glyph unicode="м" glyph-name="afii10078" d="M465 0h-106v303l-72 -172h-57l-72 172v-303h-106v527h97l110 -261l110 261h96v-527z" horiz-adv-x="517"/>
<glyph unicode="н" glyph-name="afii10079" d="M363 0h-106v222h-99v-222h-106v527h106v-211h99v211h106v-527z" horiz-adv-x="415"/>
<glyph unicode="о" glyph-name="afii10080" d="M360 264c0 -89 -4 -170 -37 -216c-31 -43 -74 -56 -125 -56s-94 13 -125 56c-33 46 -37 127 -37 216s4 170 37 216c31 43 74 55 125 55s94 -12 125 -55c33 -46 37 -127 37 -216zM254 264c0 78 -1 131 -15 155c-9 14 -25 22 -41 22s-32 -8 -41 -22 c-14 -24 -15 -77 -15 -155s1 -132 15 -156c9 -14 25 -21 41 -21s32 7 41 21c14 24 15 78 15 156z" horiz-adv-x="395"/>
<glyph unicode="п" glyph-name="afii10081" d="M363 0h-106v432h-99v-432h-106v527h311v-527z" horiz-adv-x="415"/>
<glyph unicode="р" glyph-name="afii10082" d="M372 264c0 -114 -3 -188 -37 -231c-24 -30 -53 -41 -93 -41c-19 0 -38 5 -53 14c-11 7 -22 17 -31 28v-219h-106v712h102v-39c5 10 24 26 35 33c15 9 34 14 53 14c40 0 69 -11 93 -41c34 -43 37 -116 37 -230zM266 264c0 100 -3 138 -17 156c-9 13 -23 21 -39 21 c-15 0 -27 -5 -36 -15c-10 -11 -16 -26 -16 -49v-227c0 -23 5 -38 16 -49c9 -9 21 -14 36 -14c16 0 30 7 39 20c14 18 17 57 17 157z" horiz-adv-x="407"/>
<glyph unicode="с" glyph-name="afii10083" d="M356 155c-3 -50 -17 -95 -46 -124c-27 -27 -65 -39 -112 -39c-50 0 -94 13 -125 56c-33 45 -37 127 -37 216s4 170 37 216c31 43 75 55 125 55c45 0 80 -9 111 -38c33 -32 44 -77 47 -124h-105c-1 17 -3 35 -14 49c-8 12 -22 19 -39 19c-16 0 -32 -8 -41 -22 c-14 -24 -15 -77 -15 -155s1 -131 15 -156c9 -14 25 -21 41 -21c17 0 31 7 39 18c11 15 13 31 14 50h105z" horiz-adv-x="383"/>
<glyph unicode="т" glyph-name="afii10084" d="M316 432h-96v-432h-106v432h-97v95h299v-95z" horiz-adv-x="337"/>
<glyph unicode="у" glyph-name="afii10085" d="M377 527l-148 -594c-26 -106 -101 -118 -197 -118v94c46 1 81 5 94 55l9 37l-131 526h117l70 -359l69 359h117z" horiz-adv-x="382"/>
<glyph unicode="ф" glyph-name="afii10086" d="M518 264c0 -90 -8 -161 -46 -208c-35 -43 -84 -58 -142 -60v-181h-105v181c-58 2 -108 17 -142 60c-39 47 -47 118 -47 208c0 89 8 159 46 205c35 43 85 60 143 62v181h105v-181c58 -2 107 -17 142 -60c38 -46 46 -118 46 -207zM412 264c0 78 -6 126 -26 148 c-13 14 -34 24 -58 25v-347c24 1 45 10 58 25c21 24 26 70 26 149zM227 90v347c-24 0 -46 -11 -58 -25c-21 -25 -27 -70 -27 -148c0 -79 6 -125 27 -149c12 -15 34 -24 58 -25z" horiz-adv-x="554"/>
<glyph unicode="х" glyph-name="afii10087" d="M382 0h-118l-69 164l-69 -164h-117l124 268l-118 259h117l63 -160l63 160h118l-120 -259z" horiz-adv-x="390"/>
<glyph unicode="ц" glyph-name="afii10088" d="M413 -134h-96v134h-265v527h106v-432h99v432h106v-432h50v-229z" horiz-adv-x="434"/>
<glyph unicode="ч" glyph-name="afii10089" d="M341 0h-106v173c-19 -3 -39 -4 -60 -4c-92 0 -139 35 -139 135v223h106v-208c0 -44 16 -57 50 -57c14 0 28 2 43 5v260h106v-527z" horiz-adv-x="393"/>
<glyph unicode="ш" glyph-name="afii10090" d="M542 0h-490v527h106v-433h86v433h106v-433h86v433h106v-527z" horiz-adv-x="594"/>
<glyph unicode="щ" glyph-name="afii10091" d="M542 527v-432h43v-229h-96v134h-437v527h106v-433h86v433h106v-433h86v433h106z" horiz-adv-x="594"/>
<glyph unicode="ъ" glyph-name="afii10092" d="M17 433v94h189v-189h53c115 0 157 -54 157 -169s-42 -169 -157 -169h-159v433h-83zM310 169c0 53 -16 75 -56 75h-48v-150h48c40 0 56 22 56 75z" horiz-adv-x="442"/>
<glyph unicode="ы" glyph-name="afii10093" d="M529 0h-106v527h106v-527zM368 169c0 -115 -42 -169 -157 -169h-159v527h106v-189h53c115 0 157 -54 157 -169zM262 169c0 53 -16 75 -56 75h-48v-150h48c40 0 56 22 56 75z" horiz-adv-x="581"/>
<glyph unicode="ь" glyph-name="afii10094" d="M368 169c0 -115 -42 -169 -157 -169h-159v527h106v-189h53c115 0 157 -54 157 -169zM262 169c0 53 -16 75 -56 75h-48v-150h48c40 0 56 22 56 75z" horiz-adv-x="399"/>
<glyph unicode="э" glyph-name="afii10095" d="M140 224v88h103c-1 52 -4 88 -15 107c-9 14 -25 22 -41 22c-18 0 -31 -7 -39 -19c-11 -14 -13 -33 -14 -49h-105c3 45 14 93 47 125c31 29 66 37 111 37c50 0 94 -12 125 -55c33 -46 37 -127 37 -216c0 -90 -4 -171 -37 -216c-31 -43 -75 -56 -125 -56 c-47 0 -85 12 -112 39c-29 29 -43 74 -46 124h105c1 -18 3 -36 14 -50c8 -11 21 -18 39 -18c16 0 32 7 41 21c11 20 14 59 15 116h-103z" horiz-adv-x="385"/>
<glyph unicode="ю" glyph-name="afii10096" d="M159 0h-106v527h106v-210h73c2 67 10 126 37 163c31 43 74 55 125 55s94 -12 125 -55c33 -46 37 -127 37 -216s-4 -170 -37 -216c-31 -43 -74 -56 -125 -56s-94 13 -125 56c-28 38 -36 102 -37 174h-73v-222zM450 264c0 78 -1 131 -15 155c-9 14 -25 22 -41 22 s-32 -8 -41 -22c-14 -24 -15 -77 -15 -155s1 -132 15 -156c9 -14 25 -21 41 -21s32 7 41 21c14 24 15 78 15 156z" horiz-adv-x="593"/>
<glyph unicode="я" glyph-name="afii10097" d="M349 0h-106v201h-41l-70 -201h-110l83 223c-51 28 -66 80 -66 142c0 102 37 162 155 162h155v-527zM243 295v138h-48c-42 0 -50 -29 -50 -68c0 -40 9 -70 50 -70h48z" horiz-adv-x="401"/>
<glyph unicode="ѐ" glyph-name="uni0450" d="M360 233h-218c0 -60 3 -105 16 -125c8 -12 22 -21 41 -21c17 0 31 7 40 20c9 11 13 30 13 48h106c-2 -47 -13 -87 -45 -121c-28 -30 -65 -42 -114 -42c-47 0 -82 10 -114 43c-44 46 -49 133 -49 229c0 95 5 183 49 229c32 33 70 42 113 42c44 0 80 -9 113 -42 c42 -42 49 -134 49 -260zM254 311c0 62 -4 93 -15 109c-9 13 -21 21 -41 21s-32 -8 -41 -21c-11 -16 -15 -47 -15 -109h112zM245 587h-74l-88 139h90z" horiz-adv-x="394"/>
<glyph unicode="ё" glyph-name="afii10071" d="M360 233h-218c0 -60 3 -105 16 -125c8 -12 22 -21 41 -21c17 0 31 7 40 20c9 11 13 30 13 48h106c-2 -47 -13 -87 -45 -121c-28 -30 -65 -42 -114 -42c-47 0 -82 10 -114 43c-44 46 -49 133 -49 229c0 95 5 183 49 229c32 33 70 42 113 42c44 0 80 -9 113 -42 c42 -42 49 -134 49 -260zM254 311c0 62 -4 93 -15 109c-9 13 -21 21 -41 21s-32 -8 -41 -21c-11 -16 -15 -47 -15 -109h112zM337 597h-100v100h100v-100zM161 597h-99v100h99v-100z" horiz-adv-x="394"/>
<glyph unicode="ђ" glyph-name="afii10099" d="M306 588h-148v-95c8 11 20 22 31 28c15 9 34 14 53 14c43 0 72 -13 96 -41c21 -24 30 -53 30 -114v-401c0 -62 -20 -100 -52 -125c-35 -26 -75 -31 -122 -31v94c46 0 68 17 68 68v394c0 41 -23 61 -52 61s-52 -20 -52 -61v-379h-106v588h-49v67h49v57h106v-57h148v-67z " horiz-adv-x="417"/>
<glyph unicode="ѓ" glyph-name="afii10100" d="M323 527v-94h-165v-433h-106v527h271zM310 726l-88 -139h-74l72 139h90z" horiz-adv-x="340"/>
<glyph unicode="є" glyph-name="afii10101" d="M356 155c-3 -50 -17 -95 -46 -124c-27 -27 -65 -39 -112 -39c-50 0 -94 13 -125 56c-33 45 -37 127 -37 216s4 170 37 216c31 43 75 55 125 55c45 0 80 -9 111 -38c33 -32 44 -77 47 -124h-105c-1 17 -3 35 -14 49c-8 12 -22 19 -39 19c-16 0 -32 -8 -41 -22 c-11 -19 -14 -55 -15 -107h103v-88h-103c0 -57 3 -96 15 -116c9 -14 25 -21 41 -21c17 0 31 7 39 18c11 15 13 31 14 50h105z" horiz-adv-x="385"/>
<glyph unicode="ѕ" glyph-name="afii10102" d="M352 152c0 -52 -20 -90 -47 -117c-32 -32 -70 -43 -115 -43s-89 15 -116 43c-31 32 -47 69 -47 119h105c0 -21 6 -38 18 -50c10 -11 26 -16 40 -16c17 0 29 4 41 15c10 9 15 25 15 42c0 15 -3 27 -11 39s-22 22 -41 30l-70 31c-36 16 -62 37 -77 61c-12 19 -17 43 -17 72 c0 51 18 84 46 113c29 29 70 44 114 44s84 -14 111 -40c28 -27 45 -64 45 -117h-104c0 23 -5 37 -15 48s-23 16 -37 16c-16 0 -30 -6 -39 -15c-10 -10 -15 -24 -15 -40c0 -13 2 -22 8 -31c7 -11 21 -22 39 -30l70 -30c36 -16 60 -33 77 -58c14 -20 22 -50 22 -86z" horiz-adv-x="380"/>
<glyph unicode="і" glyph-name="afii10103" d="M158 0h-106v513h106v-513zM163 594h-117v117h117v-117z" horiz-adv-x="210"/>
<glyph unicode="ї" glyph-name="afii10104" d="M158 0h-106v513h106v-513zM244 597h-100v100h100v-100zM68 597h-99v100h99v-100z" horiz-adv-x="210"/>
<glyph unicode="ј" glyph-name="afii10105" d="M158 -25c0 -63 -21 -102 -54 -127c-35 -27 -75 -33 -124 -33v95c48 0 72 18 72 71v532h106v-538zM163 594h-117v117h117v-117z" horiz-adv-x="209"/>
<glyph unicode="љ" glyph-name="afii10106" d="M600 169c0 -115 -42 -169 -157 -169h-159v432h-85v-215c0 -172 -51 -217 -152 -217h-34v91h16c34 0 68 10 68 140v296h293v-189h53c115 0 157 -54 157 -169zM494 169c0 53 -16 75 -56 75h-48v-150h48c40 0 56 22 56 75z" horiz-adv-x="627"/>
<glyph unicode="њ" glyph-name="afii10107" d="M574 169c0 -115 -42 -169 -157 -169h-159v244h-100v-244h-106v527h106v-188h100v188h106v-189h53c115 0 157 -54 157 -169zM468 169c0 53 -16 75 -56 75h-48v-150h48c40 0 56 22 56 75z" horiz-adv-x="601"/>
<glyph unicode="ћ" glyph-name="afii10108" d="M368 0h-106v379c0 41 -23 61 -52 61s-52 -20 -52 -61v-379h-106v588h-49v67h49v57h106v-57h148v-67h-148v-95c8 11 20 22 31 28c15 9 34 14 53 14c43 0 72 -13 96 -41c21 -24 30 -53 30 -114v-380z" horiz-adv-x="417"/>
<glyph unicode="ќ" glyph-name="afii10109" d="M414 0h-118l-136 275l125 252h114l-130 -249zM159 0h-106v527h106v-527zM355 726l-88 -139h-74l72 139h90z" horiz-adv-x="419"/>
<glyph unicode="ѝ" glyph-name="uni045D" d="M372 0h-106v300l-120 -300h-94v527h106v-300l120 300h94v-527zM251 587h-74l-88 139h90z" horiz-adv-x="424"/>
<glyph unicode="ў" glyph-name="afii10110" d="M377 527l-148 -594c-26 -106 -101 -118 -197 -118v94c46 1 81 5 94 55l9 37l-131 526h117l70 -359l69 359h117zM320 701c-3 -87 -63 -115 -128 -115c-66 0 -126 28 -128 115h75c2 -33 25 -46 53 -46s50 13 53 46h75z" horiz-adv-x="382"/>
<glyph unicode="џ" glyph-name="afii10193" d="M363 0h-108v-134h-95v134h-108v527h106v-432h99v432h106v-527z" horiz-adv-x="415"/>
<glyph unicode="Ѣ" glyph-name="afii10146" d="M77 537h-51v88h51v87h112v-87h70v-88h-70v-104h67c129 0 183 -68 183 -216c0 -149 -54 -217 -183 -217h-179v537zM327 217c0 72 -15 115 -75 115h-63v-231h63c60 0 75 44 75 116z" horiz-adv-x="475"/>
<glyph unicode="ѣ" glyph-name="afii10194" d="M385 169c0 -115 -42 -169 -157 -169h-159v408h-49v67h49v52h106v-52h86v-67h-86v-70h53c115 0 157 -54 157 -169zM279 169c0 53 -16 75 -56 75h-48v-150h48c40 0 56 22 56 75z" horiz-adv-x="412"/>
<glyph unicode="Ѳ" glyph-name="afii10147" d="M421 356c0 -169 -4 -247 -52 -303c-29 -35 -72 -61 -138 -61s-109 26 -138 61c-47 57 -52 134 -52 303s5 246 52 303c29 35 72 61 138 61s109 -26 138 -61c48 -56 52 -134 52 -303zM285 120c18 29 23 88 24 188h-156c1 -100 7 -159 25 -188c10 -16 26 -27 53 -27 s44 11 54 27zM178 592c-18 -29 -24 -86 -25 -183h156c-1 97 -6 154 -24 183c-10 16 -27 27 -54 27s-43 -11 -53 -27z" horiz-adv-x="462"/>
<glyph unicode="ѳ" glyph-name="afii10195" d="M360 264c0 -89 -4 -170 -37 -216c-31 -43 -74 -56 -125 -56s-94 13 -125 56c-33 46 -37 127 -37 216s4 170 37 216c31 43 74 55 125 55s94 -12 125 -55c33 -46 37 -127 37 -216zM239 108c12 20 14 63 15 124h-112c0 -61 3 -104 15 -124c9 -14 25 -21 41 -21s32 7 41 21z M157 419c-11 -19 -14 -56 -15 -108h112c-1 52 -4 89 -15 108c-9 14 -25 22 -41 22s-32 -8 -41 -22z"/>
<glyph unicode="Ѵ" glyph-name="afii10148" d="M218 172l68 399c18 104 65 141 191 141v-100c-42 -2 -70 -20 -82 -73l-119 -539h-116l-156 712h123z" horiz-adv-x="490"/>
<glyph unicode="ѵ" glyph-name="afii10196" d="M340 378l-93 -378h-112l-131 527h117l70 -359l41 217c22 115 77 142 203 142v-94c-46 -1 -82 -5 -95 -55z" horiz-adv-x="452"/>
<glyph unicode="Ґ" glyph-name="afii10050" d="M354 611h-182v-611h-112v712h188v124h106v-225z" horiz-adv-x="376"/>
<glyph unicode="ґ" glyph-name="afii10098" d="M323 433h-165v-433h-106v527h175v132h96v-226z" horiz-adv-x="340"/>
<glyph unicode="Ғ" glyph-name="uni0492" d="M371 611h-182v-209h70v-88h-70v-314h-112v314h-51v88h51v310h294v-101z" horiz-adv-x="393"/>
<glyph unicode="ғ" glyph-name="uni0493" d="M340 433h-165v-98h86v-67h-86v-268h-106v268h-49v67h49v192h271v-94z" horiz-adv-x="357"/>
<glyph unicode="Җ" glyph-name="uni0496" d="M608 -143v143h-18l-173 371l160 341h118l-163 -336l133 -275h49v-244h-106zM128 0h-124l182 376l-163 336h118l160 -341zM415 0h-112v712h112v-712z" horiz-adv-x="714"/>
<glyph unicode="җ" glyph-name="uni0497" d="M605 527l-130 -249l96 -183h49v-229h-96v134h-22l-136 275l124 252h115zM258 275l-135 -275h-119l145 278l-130 249h115zM365 0h-106v527h106v-527z" horiz-adv-x="624"/>
<glyph unicode="Қ" glyph-name="uni049A" d="M364 -143v143h-18l-173 371l160 341h118l-163 -336l133 -275h49v-244h-106zM171 0h-112v712h112v-712z" horiz-adv-x="476"/>
<glyph unicode="қ" glyph-name="uni049B" d="M399 527l-130 -249l95 -183h50v-229h-96v134h-22l-136 275l125 252h114zM159 0h-106v527h106v-527z" horiz-adv-x="418"/>
<glyph unicode="Ҝ" glyph-name="uni049C" d="M553 0h-124l-116 322h-29v-104h-78v104h-34v-322h-112v712h112v-289h34v104h78v-104h30l101 289h119l-123 -335z" horiz-adv-x="559"/>
<glyph unicode="ҝ" glyph-name="uni049D" d="M481 0h-119l-82 228h-26v-110h-65v110h-30v-228h-106v527h106v-205h30v110h65v-110h25l72 205h115l-92 -248z" horiz-adv-x="486"/>
<glyph unicode="Ң" glyph-name="uni04A2" d="M367 -143v143h-56v311h-139v-311h-112v712h112v-300h139v300h112v-611h50v-244h-106z" horiz-adv-x="483"/>
<glyph unicode="ң" glyph-name="uni04A3" d="M363 527v-432h43v-229h-96v134h-53v222h-99v-222h-106v527h106v-211h99v211h106z" horiz-adv-x="415"/>
<glyph unicode="Ү" glyph-name="uni04AE" d="M388 712l-138 -433v-279h-112v279l-138 433h124l70 -282l71 282h123z" horiz-adv-x="389"/>
<glyph unicode="ү" glyph-name="uni04AF" d="M377 527l-130 -526v-185h-112v185l-131 526h117l70 -359l69 359h117z" horiz-adv-x="382"/>
<glyph unicode="Ұ" glyph-name="uni04B0" d="M388 712l-138 -433h61v-88h-61v-191h-112v191h-60v88h60l-138 433h124l70 -282l71 282h123z" horiz-adv-x="389"/>
<glyph unicode="ұ" glyph-name="uni04B1" d="M247 -66v-118h-112v118h-64v67h64l-131 526h117l70 -359l69 359h117l-130 -526h65v-67h-65z" horiz-adv-x="382"/>
<glyph unicode="Ҳ" glyph-name="uni04B2" d="M315 -143v143h-17l-82 256l-82 -256h-123l141 369l-130 343h123l71 -238l71 238h123l-133 -343l105 -268h39v-244h-106z" horiz-adv-x="432"/>
<glyph unicode="ҳ" glyph-name="uni04B3" d="M376 527l-120 -259l81 -173h45v-229h-96v134h-22l-69 164l-69 -164h-117l124 268l-118 259h117l63 -160l63 160h118z" horiz-adv-x="390"/>
<glyph unicode="Ҷ" glyph-name="uni04B6" d="M355 -143v143h-55v246c-29 -4 -56 -5 -82 -5c-116 0 -165 47 -165 173v298h112v-287c0 -66 23 -84 71 -84c23 0 40 2 63 5v366h112v-611h50v-244h-106z" horiz-adv-x="471"/>
<glyph unicode="ҷ" glyph-name="uni04B7" d="M341 527v-432h43v-229h-96v134h-53v173c-19 -3 -39 -4 -60 -4c-92 0 -139 35 -139 135v223h106v-208c0 -44 16 -57 50 -57c14 0 28 2 43 5v260h106z" horiz-adv-x="392"/>
<glyph unicode="Ҹ" glyph-name="uni04B8" d="M289 136h-78v105c-113 9 -158 60 -158 173v298h111v-286c0 -45 14 -68 47 -78v96h78v-103c16 0 29 2 46 5v366h112v-712h-112v246c-16 -2 -31 -4 -46 -5v-105z" horiz-adv-x="507"/>
<glyph unicode="ҹ" glyph-name="uni04B9" d="M239 58h-64v111c-94 7 -139 45 -139 135v223h108v-208c0 -27 9 -42 31 -50v103h64v-109c10 0 20 1 31 4v260h106v-527h-106v173c-10 -2 -21 -4 -31 -4v-111z" horiz-adv-x="428"/>
<glyph unicode="Һ" glyph-name="uni04BA" d="M60 712h111v-246c29 4 56 5 82 5c116 0 165 -47 165 -173v-298h-112v287c0 66 -23 84 -71 84c-23 0 -40 -2 -63 -5v-366h-112v712z" horiz-adv-x="471"/>
<glyph unicode="һ" glyph-name="uni04BB" d="M52 527h106v-173c19 3 39 4 60 4c92 0 139 -35 139 -135v-223h-106v208c0 44 -16 57 -50 57c-14 0 -28 -2 -43 -5v-260h-106v527z" horiz-adv-x="393"/>
<glyph unicode="Ӏ" glyph-name="uni04C0" d="M172 0h-112v712h112v-712z" horiz-adv-x="232"/>
<glyph unicode="ӏ" glyph-name="uni04CF" d="M155 0h-106v712h106v-712z" horiz-adv-x="204"/>
<glyph unicode="Ә" glyph-name="uni04D8" d="M40 190v197h260c-1 110 -5 174 -25 205c-10 16 -26 27 -53 27c-61 0 -69 -57 -70 -96h-112c2 61 20 113 55 149c30 30 72 48 127 48c66 0 109 -26 138 -61c47 -56 52 -134 52 -303s-5 -247 -52 -303c-29 -35 -72 -61 -138 -61c-107 0 -182 68 -182 198zM152 295v-111 c0 -49 21 -91 70 -91c27 0 43 11 53 27c18 28 24 83 25 175h-148z" horiz-adv-x="455"/>
<glyph unicode="ә" glyph-name="afii10846" d="M36 294h218c0 60 -3 105 -16 125c-8 12 -22 21 -41 21c-17 0 -31 -7 -40 -20c-9 -11 -13 -30 -13 -48h-106c2 47 13 87 45 121c28 30 65 42 114 42c47 0 82 -10 114 -43c44 -46 49 -133 49 -229c0 -95 -5 -183 -49 -229c-32 -33 -70 -42 -113 -42c-44 0 -80 9 -113 42 c-42 42 -49 134 -49 260zM142 216c0 -62 4 -93 15 -109c9 -13 21 -21 41 -21s32 8 41 21c11 16 15 47 15 109h-112z" horiz-adv-x="394"/>
<glyph unicode="Ӣ" glyph-name="uni04E2" d="M159 0h-99v712h112v-436l159 436h100v-712h-112v436zM368 776h-245v70h245v-70z" horiz-adv-x="491"/>
<glyph unicode="ӣ" glyph-name="uni04E3" d="M372 0h-106v300l-120 -300h-94v527h106v-300l120 300h94v-527zM335 604h-246v71h246v-71z" horiz-adv-x="424"/>
<glyph unicode="Ө" glyph-name="uni04E8" d="M421 356c0 -169 -4 -247 -52 -303c-29 -35 -72 -61 -138 -61s-109 26 -138 61c-47 57 -52 134 -52 303s5 246 52 303c29 35 72 61 138 61s109 -26 138 -61c48 -56 52 -134 52 -303zM285 120c18 29 23 88 24 188h-156c1 -100 7 -159 25 -188c10 -16 26 -27 53 -27 s44 11 54 27zM178 592c-18 -29 -24 -86 -25 -183h156c-1 97 -6 154 -24 183c-10 16 -27 27 -54 27s-43 -11 -53 -27z" horiz-adv-x="462"/>
<glyph unicode="ө" glyph-name="uni04E9" d="M360 264c0 -89 -4 -170 -37 -216c-31 -43 -74 -56 -125 -56s-94 13 -125 56c-33 46 -37 127 -37 216s4 170 37 216c31 43 74 55 125 55s94 -12 125 -55c33 -46 37 -127 37 -216zM239 108c12 20 14 63 15 124h-112c0 -61 3 -104 15 -124c9 -14 25 -21 41 -21s32 7 41 21z M157 419c-11 -19 -14 -56 -15 -108h112c-1 52 -4 89 -15 108c-9 14 -25 22 -41 22s-32 -8 -41 -22z"/>
<glyph unicode="Ӯ" glyph-name="uni04EE" d="M419 712l-188 -591c-32 -100 -73 -121 -187 -121v100c62 0 84 17 100 73l16 58l-156 481h122l86 -329l85 329h122zM335 776h-245v70h245v-70z" horiz-adv-x="423"/>
<glyph unicode="ӯ" glyph-name="uni04EF" d="M315 604h-246v71h246v-71zM377 527l-148 -594c-26 -106 -101 -118 -197 -118v94c46 1 81 5 94 55l9 37l-131 526h117l70 -359l69 359h117z" horiz-adv-x="382"/>
<glyph unicode="Ẁ" glyph-name="Wgrave" d="M710 712l-134 -712h-117l-102 541l-101 -541h-117l-135 712h123l70 -540l98 540h124l99 -540l69 540h123zM403 760h-74l-88 139h90z" horiz-adv-x="714"/>
<glyph unicode="ẁ" glyph-name="wgrave" d="M573 527l-118 -527h-105l-63 342l-62 -342h-105l-116 527h118l55 -359l65 359h91l66 -359l55 359h119zM321 587h-74l-88 139h90z" horiz-adv-x="577"/>
<glyph unicode="Ẃ" glyph-name="Wacute" d="M710 712l-134 -712h-117l-102 541l-101 -541h-117l-135 712h123l70 -540l98 540h124l99 -540l69 540h123zM473 899l-87 -139h-74l72 139h89z" horiz-adv-x="714"/>
<glyph unicode="ẃ" glyph-name="wacute" d="M573 527l-118 -527h-105l-63 342l-62 -342h-105l-116 527h118l55 -359l65 359h91l66 -359l55 359h119zM411 726l-88 -139h-74l72 139h90z" horiz-adv-x="577"/>
<glyph unicode="Ẅ" glyph-name="Wdieresis" d="M710 712l-134 -712h-117l-102 541l-101 -541h-117l-135 712h123l70 -540l98 540h124l99 -540l69 540h123zM495 770h-100v100h100v-100zM320 770h-100v100h100v-100z" horiz-adv-x="714"/>
<glyph unicode="ẅ" glyph-name="wdieresis" d="M573 527l-118 -527h-105l-63 342l-62 -342h-105l-116 527h118l55 -359l65 359h91l66 -359l55 359h119zM425 597h-100v100h100v-100zM249 597h-99v100h99v-100z" horiz-adv-x="577"/>
<glyph unicode="Ẋ" glyph-name="uni1E8A" d="M421 0h-123l-82 256l-82 -256h-123l141 369l-130 343h123l71 -238l71 238h123l-133 -343zM266 770h-99v100h99v-100z" horiz-adv-x="432"/>
<glyph unicode="ẋ" glyph-name="uni1E8B" d="M382 0h-118l-69 164l-69 -164h-117l124 268l-118 259h117l63 -160l63 160h118l-120 -259zM245 598h-100v100h100v-100z" horiz-adv-x="391"/>
<glyph unicode="Ỳ" glyph-name="Ygrave" d="M388 712l-138 -433v-279h-112v279l-138 433h124l70 -282l71 282h123zM240 760h-74l-88 139h90z" horiz-adv-x="389"/>
<glyph unicode="ỳ" glyph-name="ygrave" d="M377 527l-148 -594c-26 -106 -101 -118 -197 -118v94c46 1 81 5 94 55l9 37l-131 526h117l70 -359l69 359h117zM237 587h-74l-88 139h90z" horiz-adv-x="382"/>
<glyph unicode=" " glyph-name="uni2007" horiz-adv-x="401"/>
<glyph unicode=" " glyph-name="uni2008" horiz-adv-x="234"/>
<glyph unicode="​" glyph-name="uni200B" horiz-adv-x="0"/>
<glyph unicode="﻿" glyph-name="uniFEFF" horiz-adv-x="0"/>
<glyph unicode="–" glyph-name="endash" d="M413 238h-369v101h369v-101z" horiz-adv-x="457"/>
<glyph unicode="—" glyph-name="emdash" d="M665 238h-618v101h618v-101z" horiz-adv-x="711"/>
<glyph unicode="―" glyph-name="afii00208" d="M665 238h-618v101h618v-101z" horiz-adv-x="711"/>
<glyph unicode="‘" glyph-name="quoteleft" d="M172 588h-115v124l115 85v-209z" horiz-adv-x="229"/>
<glyph unicode="’" glyph-name="quoteright" d="M172 588l-115 -86v210h115v-124z" horiz-adv-x="229"/>
<glyph unicode="‚" glyph-name="quotesinglbase" d="M172 0l-115 -85v209h115v-124z" horiz-adv-x="229"/>
<glyph unicode="“" glyph-name="quotedblleft" d="M361 588h-116v124l116 85v-209zM172 588h-115v124l115 85v-209z" horiz-adv-x="418"/>
<glyph unicode="”" glyph-name="quotedblright" d="M361 588l-116 -86v210h116v-124zM172 588l-115 -86v210h115v-124z" horiz-adv-x="418"/>
<glyph unicode="„" glyph-name="quotedblbase" d="M361 -6l-116 -85v209h116v-124zM172 -6l-115 -85v209h115v-124z" horiz-adv-x="418"/>
<glyph unicode="†" glyph-name="dagger" d="M405 439h-131v-439h-99v439h-131v88h131v185h99v-185h131v-88z" horiz-adv-x="449"/>
<glyph unicode="‡" glyph-name="daggerdbl" d="M405 0h-131v-185h-99v185h-131v89h131v350h-131v88h131v185h99v-185h131v-88h-131v-350h131v-89z" horiz-adv-x="449"/>
<glyph unicode="•" glyph-name="bullet" d="M386 334c0 -90 -73 -163 -163 -163s-163 73 -163 163s73 163 163 163s163 -73 163 -163z" horiz-adv-x="446"/>
<glyph unicode="…" glyph-name="ellipsis" d="M599 0h-123v123h123v-123zM389 0h-123v123h123v-123zM179 0h-123v123h123v-123z" horiz-adv-x="654"/>
<glyph unicode="‰" glyph-name="perthousand" d="M685 112c0 -79 -59 -120 -127 -120s-127 41 -127 120v133c0 79 59 120 127 120s127 -41 127 -120v-133zM301 467c0 -79 -59 -120 -127 -120s-127 41 -127 120v133c0 79 59 120 127 120s127 -41 127 -120v-133zM1003 112c0 -79 -58 -120 -126 -120s-127 41 -127 120v133 c0 79 59 120 127 120s126 -41 126 -120v-133zM532 712l-248 -712h-82l248 712h82zM214 469v129c0 31 -16 45 -40 45s-41 -14 -41 -45v-129c0 -31 17 -45 41 -45s40 14 40 45zM917 114v129c0 31 -16 45 -40 45s-41 -14 -41 -45v-129c0 -31 17 -45 41 -45s40 14 40 45z M598 114v129c0 31 -16 45 -40 45s-40 -14 -40 -45v-129c0 -31 16 -45 40 -45s40 14 40 45z" horiz-adv-x="1050"/>
<glyph unicode="‹" glyph-name="guilsinglleft" d="M185 27l-161 249l161 248v-158l-61 -90l61 -92v-157z" horiz-adv-x="231"/>
<glyph unicode="›" glyph-name="guilsinglright" d="M207 276l-160 -249v157l60 92l-60 90v158z" horiz-adv-x="231"/>
<glyph unicode="⁄" glyph-name="fraction" d="M258 712l-246 -712h-82l246 712h82z" horiz-adv-x="188"/>
<glyph unicode="⁰" glyph-name="uni2070" d="M280 386c0 -35 -12 -60 -32 -79c-19 -17 -55 -27 -87 -27c-31 0 -67 10 -86 27c-20 19 -32 44 -32 79v225c0 35 12 61 32 79c19 17 54 27 86 27c33 0 68 -10 87 -27c20 -18 32 -44 32 -79v-225zM203 382v233c0 31 -17 42 -42 42c-24 0 -42 -11 -42 -42v-233 c0 -31 19 -42 43 -42c25 0 41 11 41 42z" horiz-adv-x="323"/>
<glyph unicode="⁴" glyph-name="uni2074" d="M285 348h-33v-63h-77v63h-146v60l109 304h73l-106 -304h70v70h77v-70h33v-60z" horiz-adv-x="322"/>
<glyph unicode="⁵" glyph-name="uni2075" d="M284 426c0 -53 -3 -91 -36 -118c-22 -19 -53 -28 -85 -28s-64 9 -85 27s-31 39 -31 76v18h83v-19c0 -29 14 -42 33 -42c15 0 24 3 31 10c10 11 13 30 13 76s-3 65 -13 75c-7 7 -16 10 -30 10c-20 0 -34 -13 -34 -35v-7h-80v243h228v-60h-151v-107c7 8 17 16 27 21 c8 5 23 7 37 7c34 0 53 -9 70 -26c15 -17 23 -46 23 -121z" horiz-adv-x="322"/>
<glyph unicode="⁶" glyph-name="uni2076" d="M274 416c0 -52 -9 -77 -23 -97c-20 -28 -55 -39 -94 -39c-43 0 -75 15 -91 39c-18 26 -24 51 -24 97c0 34 8 69 18 94l80 202h86l-71 -168c8 4 14 5 26 5c26 0 50 -9 67 -29c17 -21 26 -46 26 -104zM197 419c0 31 -2 56 -11 67c-5 7 -15 12 -28 12s-23 -5 -28 -12 c-9 -11 -11 -36 -11 -67s2 -56 11 -67c5 -7 15 -12 28 -12s23 5 28 12c9 11 11 36 11 67z" horiz-adv-x="322"/>
<glyph unicode="⁷" glyph-name="uni2077" d="M283 650l-107 -365h-77l108 367h-100v-60h-70v120h246v-62z" horiz-adv-x="322"/>
<glyph unicode="⁸" glyph-name="uni2078" d="M276 407c0 -41 -2 -70 -34 -99c-20 -19 -51 -28 -82 -28s-62 9 -82 28c-32 29 -34 58 -34 99c0 25 3 49 13 69c7 12 17 21 29 31c-12 7 -20 16 -26 27c-10 20 -12 41 -12 64c0 37 6 69 33 93c21 18 48 26 79 26s59 -8 80 -26c27 -24 33 -56 33 -93c0 -23 -2 -44 -13 -64 c-6 -11 -13 -20 -25 -27c13 -10 23 -19 29 -31c11 -20 12 -44 12 -69zM199 408c0 31 -2 50 -10 58c-7 7 -15 10 -29 10c-13 0 -22 -3 -29 -10c-8 -8 -10 -23 -10 -58s2 -50 10 -58c7 -7 16 -10 29 -10c14 0 22 3 29 10c8 8 10 23 10 58zM196 596c0 35 -2 45 -9 52 s-14 9 -27 9c-12 0 -19 -2 -26 -9s-9 -17 -9 -52s2 -45 9 -52s14 -9 26 -9c13 0 20 2 27 9s9 17 9 52z" horiz-adv-x="322"/>
<glyph unicode="⁹" glyph-name="uni2079" d="M275 581c0 -34 -8 -69 -18 -94l-79 -202h-87l71 168c-8 -4 -13 -5 -26 -5c-26 0 -50 9 -66 29c-17 21 -26 46 -26 104c0 52 9 77 23 97c20 28 55 39 94 39c42 0 74 -15 91 -39c18 -26 23 -51 23 -97zM199 578c0 31 -2 56 -11 67c-5 7 -15 12 -29 12c-13 0 -23 -5 -28 -12 c-8 -12 -10 -36 -10 -67s2 -55 10 -67c5 -7 15 -12 28 -12c14 0 24 5 29 12c9 11 11 36 11 67z" horiz-adv-x="322"/>
<glyph unicode="₀" glyph-name="uni2080" d="M280 -49c0 -35 -12 -60 -32 -79c-19 -17 -55 -27 -87 -27c-31 0 -67 10 -86 27c-20 19 -32 44 -32 79v225c0 35 12 61 32 79c19 17 54 27 86 27c33 0 68 -10 87 -27c20 -18 32 -44 32 -79v-225zM203 -53v233c0 31 -17 42 -42 42c-24 0 -42 -11 -42 -42v-233 c0 -31 19 -42 43 -42c25 0 41 11 41 42z" horiz-adv-x="323"/>
<glyph unicode="₁" glyph-name="uni2081" d="M223 -150h-77v349l-74 -47v76l75 49h76v-427z" horiz-adv-x="322"/>
<glyph unicode="₂" glyph-name="uni2082" d="M279 -150h-231v56l133 203c13 21 20 43 20 72c0 26 -16 41 -40 41c-26 0 -41 -15 -41 -43v-30h-77v28c0 37 11 60 33 78c21 18 52 27 85 27s59 -7 82 -24c21 -17 36 -43 36 -79c0 -31 -13 -66 -30 -92l-118 -178h148v-59z" horiz-adv-x="321"/>
<glyph unicode="₃" glyph-name="uni2083" d="M282 -30c0 -46 -3 -73 -34 -98c-20 -18 -52 -27 -85 -27s-64 10 -86 28c-21 17 -31 38 -31 80v18h77v-20c0 -19 3 -28 10 -35c8 -7 18 -11 30 -11c13 0 24 5 30 11c8 10 12 23 12 59s-3 47 -11 57c-7 9 -17 13 -32 13h-25v57h25c12 0 21 3 27 9c12 11 13 29 13 56 c0 25 -3 38 -11 45c-7 7 -15 10 -28 10c-11 0 -21 -3 -28 -10s-10 -18 -10 -31v-24h-77v20c0 38 11 61 32 78c21 18 49 27 83 27c37 0 64 -10 82 -26c23 -20 34 -51 34 -88c0 -26 -3 -48 -15 -67c-7 -11 -17 -21 -31 -27c15 -8 26 -18 34 -30c10 -17 15 -35 15 -74z" horiz-adv-x="321"/>
<glyph unicode="₄" glyph-name="uni2084" d="M285 -87h-34v-63h-76v63h-146v60l109 304h73l-106 -304h70v70h76v-70h34v-60z" horiz-adv-x="322"/>
<glyph unicode="₅" glyph-name="uni2085" d="M284 -9c0 -53 -3 -91 -36 -118c-22 -19 -53 -28 -85 -28s-64 9 -85 27s-31 39 -31 76v18h83v-19c0 -29 14 -42 33 -42c15 0 24 3 31 10c10 11 13 30 13 76s-3 65 -13 75c-7 7 -16 10 -30 10c-20 0 -34 -13 -34 -35v-7h-80v243h228v-60h-151v-107c7 8 17 16 27 21 c8 5 23 7 37 7c34 0 53 -9 70 -26c15 -17 23 -46 23 -121z" horiz-adv-x="322"/>
<glyph unicode="₆" glyph-name="uni2086" d="M274 -19c0 -52 -9 -77 -23 -97c-20 -28 -55 -39 -94 -39c-43 0 -75 15 -91 39c-18 26 -24 51 -24 97c0 34 8 69 18 94l80 202h86l-71 -168c8 4 14 5 26 5c26 0 50 -9 67 -29c17 -21 26 -46 26 -104zM197 -16c0 31 -2 56 -11 67c-5 7 -15 12 -28 12s-23 -5 -28 -12 c-9 -11 -11 -36 -11 -67s2 -56 11 -67c5 -7 15 -12 28 -12s23 5 28 12c9 11 11 36 11 67z" horiz-adv-x="322"/>
<glyph unicode="₇" glyph-name="uni2087" d="M283 215l-107 -365h-77l108 367h-100v-60h-70v120h246v-62z" horiz-adv-x="322"/>
<glyph unicode="₈" glyph-name="uni2088" d="M276 -28c0 -41 -2 -70 -34 -99c-20 -19 -51 -28 -82 -28s-62 9 -82 28c-32 29 -34 58 -34 99c0 25 3 49 13 69c7 12 17 21 29 31c-12 7 -20 16 -26 27c-10 20 -12 41 -12 64c0 37 6 69 33 93c21 18 48 26 79 26s59 -8 80 -26c27 -24 33 -56 33 -93c0 -23 -2 -44 -13 -64 c-6 -11 -13 -20 -25 -27c13 -10 23 -19 29 -31c11 -20 12 -44 12 -69zM199 -27c0 31 -2 50 -10 58c-7 7 -15 10 -29 10c-13 0 -22 -3 -29 -10c-8 -8 -10 -23 -10 -58s2 -50 10 -58c7 -7 16 -10 29 -10c14 0 22 3 29 10c8 8 10 23 10 58zM196 161c0 35 -3 45 -9 52 c-7 6 -14 9 -27 9c-12 0 -19 -3 -26 -9c-6 -7 -9 -17 -9 -52s3 -45 9 -52c7 -6 14 -9 26 -9c13 0 20 3 27 9c6 7 9 17 9 52z" horiz-adv-x="322"/>
<glyph unicode="₉" glyph-name="uni2089" d="M275 146c0 -34 -8 -69 -18 -94l-79 -202h-87l71 168c-8 -4 -13 -5 -26 -5c-26 0 -50 9 -66 29c-17 21 -26 46 -26 104c0 52 9 77 23 97c20 28 55 39 94 39c42 0 74 -15 91 -39c18 -26 23 -51 23 -97zM199 143c0 31 -2 56 -11 67c-5 7 -15 12 -29 12c-13 0 -23 -5 -27 -12 c-9 -11 -11 -36 -11 -67s2 -56 11 -67c4 -7 14 -12 27 -12c14 0 24 5 29 12c9 11 11 36 11 67z" horiz-adv-x="322"/>
<glyph unicode="€" glyph-name="Euro" d="M459 189c-2 -64 -23 -119 -59 -152c-32 -29 -70 -45 -123 -45c-68 0 -107 26 -137 60c-34 38 -48 94 -50 183h-58v81h56v80h-56v81h58c2 89 17 145 50 183c30 34 69 60 137 60c54 0 93 -16 125 -46c35 -33 55 -87 57 -150h-112c-1 47 -12 95 -70 95 c-27 0 -45 -11 -55 -27c-14 -22 -18 -48 -19 -115h106v-81h-109v-80h109v-81h-106c1 -67 5 -93 20 -115c10 -15 27 -27 54 -27c58 0 69 49 70 96h112z" horiz-adv-x="498"/>
<glyph unicode="₴" glyph-name="uni20B4" d="M36 235h-36v81h51c15 37 42 60 89 80h-140v81h280c4 12 6 28 6 50c0 31 -6 55 -19 70c-11 12 -25 20 -48 20c-24 0 -40 -8 -50 -21c-15 -19 -17 -44 -17 -76h-112c0 68 13 119 50 155c29 28 71 43 128 43c51 0 91 -16 122 -43c39 -35 58 -87 58 -151c0 -18 -1 -33 -2 -47 h37v-81h-63c-16 -23 -39 -38 -71 -51l-71 -29h205v-81h-284c-2 -12 -2 -26 -2 -42c0 -38 4 -62 19 -79c11 -13 28 -20 54 -20c25 0 42 8 52 19c16 18 20 42 20 80h112c0 -75 -12 -119 -46 -153c-30 -30 -76 -47 -138 -47c-63 0 -110 19 -139 47c-36 35 -46 84 -46 157 c0 13 0 26 1 38z" horiz-adv-x="442"/>
<glyph unicode="№" glyph-name="afii61352" d="M705 540c0 -58 -2 -105 -26 -139c-20 -29 -52 -38 -87 -38s-67 9 -87 38c-24 34 -26 81 -26 139s2 105 26 139c20 29 52 38 87 38s67 -9 87 -38c24 -34 26 -81 26 -139zM624 540c0 42 -1 82 -10 99c-5 9 -14 13 -22 13s-17 -4 -22 -13c-9 -17 -10 -57 -10 -99 s1 -82 10 -99c5 -9 14 -13 22 -13s17 4 22 13c9 17 10 57 10 99zM701 266h-211v66h211v-66zM430 0h-97l-162 423v-423h-111v712h99l160 -423v423h111v-712z" horiz-adv-x="753"/>
<glyph unicode="™" glyph-name="trademark" d="M581 275h-70v263l-56 -171h-40l-55 168v-260h-70v437h63l82 -225l83 225h63v-437zM240 647h-73v-372h-70v372h-72v65h215v-65z" horiz-adv-x="631"/>
<glyph unicode="Ω" glyph-name="Omega" d="M440 0h-167v84c16 9 31 23 38 51c11 46 12 113 12 221c0 150 -6 208 -25 236c-10 15 -28 27 -53 27s-43 -12 -53 -27c-19 -29 -24 -86 -24 -236c0 -108 0 -175 11 -221c7 -28 23 -42 39 -51v-84h-167v94h56c-12 8 -21 19 -28 37c-18 47 -23 133 -23 225 c0 161 3 247 52 304c30 34 69 60 137 60s108 -26 138 -60c49 -57 52 -143 52 -304c0 -92 -3 -179 -23 -225c-7 -18 -17 -29 -29 -37h57v-94z" horiz-adv-x="491"/>
<glyph unicode="⅐" glyph-name="uni2150" d="M223 285h-77v349l-74 -47v76l75 49h76v-427zM580 712l-246 -712h-82l246 712h82zM793 365l-107 -365h-77l108 367h-100v-60h-70v120h246v-62z" horiz-adv-x="832"/>
<glyph unicode="⅑" glyph-name="uni2151" d="M223 285h-77v349l-74 -47v76l75 49h76v-427zM580 712l-246 -712h-82l246 712h82zM785 296c0 -34 -8 -69 -18 -94l-79 -202h-87l71 168c-8 -4 -13 -5 -26 -5c-26 0 -50 9 -66 29c-17 21 -26 46 -26 104c0 52 9 77 23 97c20 28 55 39 94 39c42 0 74 -15 91 -39 c18 -26 23 -51 23 -97zM709 293c0 31 -2 56 -11 67c-5 7 -15 12 -29 12c-13 0 -23 -5 -28 -12c-8 -12 -10 -36 -10 -67s2 -55 10 -67c5 -7 15 -12 28 -12c14 0 24 5 29 12c9 11 11 36 11 67z" horiz-adv-x="832"/>
<glyph unicode="⅒" glyph-name="uni2152" d="M223 285h-77v349l-74 -47v76l75 49h76v-427zM580 712l-246 -712h-82l246 712h82zM733 0h-77v349l-74 -47v76l75 49h76v-427zM1112 101c0 -35 -12 -60 -32 -79c-19 -17 -55 -27 -87 -27c-31 0 -67 10 -86 27c-20 19 -32 44 -32 79v225c0 35 12 61 32 79c19 17 54 27 86 27 c33 0 68 -10 87 -27c20 -18 32 -44 32 -79v-225zM1035 97v233c0 31 -17 42 -42 42c-24 0 -42 -11 -42 -42v-233c0 -31 19 -42 43 -42c25 0 41 11 41 42z" horiz-adv-x="1155"/>
<glyph unicode="⅓" glyph-name="onethird" d="M223 285h-77v349l-74 -47v76l75 49h76v-427zM580 712l-246 -712h-82l246 712h82zM792 120c0 -46 -3 -73 -34 -98c-20 -18 -52 -27 -85 -27s-64 10 -86 28c-21 17 -31 38 -31 80v18h77v-20c0 -19 3 -28 10 -35c8 -7 18 -11 30 -11c13 0 24 5 30 11c8 10 12 23 12 59 s-3 47 -11 57c-7 9 -17 13 -32 13h-25v57h25c12 0 21 3 27 9c12 11 13 29 13 56c0 25 -3 38 -11 45c-7 7 -15 10 -28 10c-11 0 -21 -3 -28 -10s-10 -18 -10 -31v-24h-77v20c0 38 11 61 32 78c21 18 49 27 83 27c37 0 64 -10 82 -26c23 -20 34 -51 34 -88 c0 -26 -3 -48 -15 -67c-7 -11 -17 -21 -31 -27c15 -8 26 -18 34 -30c10 -17 15 -35 15 -74z" horiz-adv-x="831"/>
<glyph unicode="⅔" glyph-name="twothirds" d="M279 285h-231v56l133 203c13 21 21 43 21 72c0 26 -17 41 -41 41c-26 0 -41 -15 -41 -43v-30h-77v28c0 37 11 60 33 78c21 18 52 27 85 27s59 -7 82 -24c21 -17 36 -43 36 -79c0 -31 -13 -66 -30 -92l-118 -177h148v-60zM579 712l-246 -712h-82l246 712h82zM791 120 c0 -46 -3 -73 -34 -98c-20 -18 -52 -27 -85 -27s-64 10 -86 28c-21 17 -31 38 -31 80v18h77v-20c0 -19 3 -28 10 -35c8 -7 18 -11 30 -11c13 0 24 5 30 11c8 10 12 23 12 59s-3 47 -11 57c-7 9 -17 13 -32 13h-25v57h25c12 0 21 3 27 9c12 11 13 29 13 56c0 25 -3 38 -11 45 c-7 7 -15 10 -28 10c-11 0 -21 -3 -28 -10s-10 -18 -10 -31v-24h-77v20c0 38 11 61 32 78c21 18 49 27 83 27c37 0 64 -10 82 -26c23 -20 34 -51 34 -88c0 -26 -3 -48 -15 -67c-7 -11 -17 -21 -31 -27c15 -8 26 -18 34 -30c10 -17 15 -35 15 -74z" horiz-adv-x="830"/>
<glyph unicode="⅕" glyph-name="uni2155" d="M223 285h-77v349l-74 -47v76l75 49h76v-427zM580 712l-246 -712h-82l246 712h82zM794 141c0 -53 -3 -91 -36 -118c-22 -19 -53 -28 -85 -28s-64 9 -85 27s-31 39 -31 76v18h83v-19c0 -29 14 -42 33 -42c15 0 24 3 31 10c10 11 13 30 13 76s-3 65 -13 75 c-7 7 -16 10 -30 10c-20 0 -34 -13 -34 -35v-7h-80v243h228v-60h-151v-107c7 8 17 16 27 21c8 5 23 7 37 7c34 0 53 -9 70 -26c15 -17 23 -46 23 -121z" horiz-adv-x="832"/>
<glyph unicode="⅖" glyph-name="uni2156" d="M279 285h-231v56l133 203c13 21 21 43 21 72c0 26 -17 41 -41 41c-26 0 -41 -15 -41 -43v-30h-77v28c0 37 11 60 33 78c21 18 52 27 85 27s59 -7 82 -24c21 -17 36 -43 36 -79c0 -31 -13 -66 -30 -92l-118 -177h148v-60zM579 712l-246 -712h-82l246 712h82zM793 141 c0 -53 -3 -91 -36 -118c-22 -19 -53 -28 -85 -28s-64 9 -85 27s-31 39 -31 76v18h83v-19c0 -29 14 -42 33 -42c15 0 24 3 31 10c10 11 13 30 13 76s-3 65 -13 75c-7 7 -16 10 -30 10c-20 0 -34 -13 -34 -35v-7h-80v243h228v-60h-151v-107c7 8 17 16 27 21c8 5 23 7 37 7 c34 0 53 -9 70 -26c15 -17 23 -46 23 -121z" horiz-adv-x="831"/>
<glyph unicode="⅗" glyph-name="uni2157" d="M282 405c0 -46 -3 -73 -34 -98c-20 -18 -52 -27 -85 -27s-64 10 -86 28c-21 17 -31 38 -31 80v18h77v-20c0 -19 3 -28 10 -35c8 -7 18 -11 30 -11c13 0 24 5 30 11c8 10 12 23 12 59s-3 47 -11 57c-7 9 -17 13 -32 13h-25v57h25c12 0 21 3 27 9c12 11 13 29 13 56 c0 25 -3 38 -11 45c-7 7 -15 10 -28 10c-11 0 -21 -3 -28 -10s-10 -18 -10 -31v-24h-77v20c0 38 11 61 32 78c21 18 49 27 83 27c37 0 64 -10 82 -26c23 -20 34 -51 34 -88c0 -26 -3 -48 -15 -67c-7 -11 -17 -21 -31 -27c15 -8 26 -18 34 -30c10 -17 15 -35 15 -74zM579 712 l-246 -712h-82l246 712h82zM793 141c0 -53 -3 -91 -36 -118c-22 -19 -53 -28 -85 -28s-64 9 -85 27s-31 39 -31 76v18h83v-19c0 -29 14 -42 33 -42c15 0 24 3 31 10c10 11 13 30 13 76s-3 65 -13 75c-7 7 -16 10 -30 10c-20 0 -34 -13 -34 -35v-7h-80v243h228v-60h-151v-107 c7 8 17 16 27 21c8 5 23 7 37 7c34 0 53 -9 70 -26c15 -17 23 -46 23 -121z" horiz-adv-x="831"/>
<glyph unicode="⅘" glyph-name="uni2158" d="M285 348h-33v-63h-77v63h-146v60l109 304h73l-106 -304h70v70h77v-70h33v-60zM580 712l-246 -712h-82l246 712h82zM794 141c0 -53 -3 -91 -36 -118c-22 -19 -53 -28 -85 -28s-64 9 -85 27s-31 39 -31 76v18h83v-19c0 -29 14 -42 33 -42c15 0 24 3 31 10 c10 11 13 30 13 76s-3 65 -13 75c-7 7 -16 10 -30 10c-20 0 -34 -13 -34 -35v-7h-80v243h228v-60h-151v-107c7 8 17 16 27 21c8 5 23 7 37 7c34 0 53 -9 70 -26c15 -17 23 -46 23 -121z" horiz-adv-x="832"/>
<glyph unicode="⅙" glyph-name="uni2159" d="M223 285h-77v349l-74 -47v76l75 49h76v-427zM580 712l-246 -712h-82l246 712h82zM784 131c0 -52 -9 -77 -23 -97c-20 -28 -55 -39 -94 -39c-43 0 -75 15 -91 39c-18 26 -24 51 -24 97c0 34 8 69 18 94l80 202h86l-71 -168c8 4 14 5 26 5c26 0 50 -9 67 -29 c17 -21 26 -46 26 -104zM707 134c0 31 -2 56 -11 67c-5 7 -15 12 -28 12s-23 -5 -28 -12c-9 -11 -11 -36 -11 -67s2 -56 11 -67c5 -7 15 -12 28 -12s23 5 28 12c9 11 11 36 11 67z" horiz-adv-x="832"/>
<glyph unicode="⅚" glyph-name="uni215A" d="M284 426c0 -53 -3 -91 -36 -118c-22 -19 -53 -28 -85 -28s-64 9 -85 27s-31 39 -31 76v18h83v-19c0 -29 14 -42 33 -42c15 0 24 3 31 10c10 11 13 30 13 76s-3 65 -13 75c-7 7 -16 10 -30 10c-20 0 -34 -13 -34 -35v-7h-80v243h228v-60h-151v-107c7 8 17 16 27 21 c8 5 23 7 37 7c34 0 53 -9 70 -26c15 -17 23 -46 23 -121zM580 712l-246 -712h-82l246 712h82zM784 131c0 -52 -9 -77 -23 -97c-20 -28 -55 -39 -94 -39c-43 0 -75 15 -91 39c-18 26 -24 51 -24 97c0 34 8 69 18 94l80 202h86l-71 -168c8 4 14 5 26 5c26 0 50 -9 67 -29 c17 -21 26 -46 26 -104zM707 134c0 31 -2 56 -11 67c-5 7 -15 12 -28 12s-23 -5 -28 -12c-9 -11 -11 -36 -11 -67s2 -56 11 -67c5 -7 15 -12 28 -12s23 5 28 12c9 11 11 36 11 67z" horiz-adv-x="832"/>
<glyph unicode="⅛" glyph-name="oneeighth" d="M223 285h-77v349l-74 -47v76l75 49h76v-427zM580 712l-246 -712h-82l246 712h82zM786 122c0 -41 -2 -70 -34 -99c-20 -19 -51 -28 -82 -28s-62 9 -82 28c-32 29 -34 58 -34 99c0 25 3 49 13 69c7 12 17 21 29 31c-12 7 -20 16 -26 27c-10 20 -12 41 -12 64 c0 37 6 69 33 93c21 18 48 26 79 26s59 -8 80 -26c27 -24 33 -56 33 -93c0 -23 -2 -44 -13 -64c-6 -11 -13 -20 -25 -27c13 -10 23 -19 29 -31c11 -20 12 -44 12 -69zM709 123c0 31 -2 50 -10 58c-7 7 -15 10 -29 10c-13 0 -22 -3 -29 -10c-8 -8 -10 -23 -10 -58 s2 -50 10 -58c7 -7 16 -10 29 -10c14 0 22 3 29 10c8 8 10 23 10 58zM706 311c0 35 -2 45 -9 52s-14 9 -27 9c-12 0 -19 -2 -26 -9s-9 -17 -9 -52s2 -45 9 -52s14 -9 26 -9c13 0 20 2 27 9s9 17 9 52z" horiz-adv-x="832"/>
<glyph unicode="⅜" glyph-name="threeeighths" d="M282 405c0 -46 -3 -73 -34 -98c-20 -18 -52 -27 -85 -27s-64 10 -86 28c-21 17 -31 38 -31 80v18h77v-20c0 -19 3 -28 10 -35c8 -7 18 -11 30 -11c13 0 24 5 30 11c8 10 12 23 12 59s-3 47 -11 57c-7 9 -17 13 -32 13h-25v57h25c12 0 21 3 27 9c12 11 13 29 13 56 c0 25 -3 38 -11 45c-7 7 -15 10 -28 10c-11 0 -21 -3 -28 -10s-10 -18 -10 -31v-24h-77v20c0 38 11 61 32 78c21 18 49 27 83 27c37 0 64 -10 82 -26c23 -20 34 -51 34 -88c0 -26 -3 -48 -15 -67c-7 -11 -17 -21 -31 -27c15 -8 26 -18 34 -30c10 -17 15 -35 15 -74zM579 712 l-246 -712h-82l246 712h82zM785 122c0 -41 -2 -70 -34 -99c-20 -19 -51 -28 -82 -28s-62 9 -82 28c-32 29 -34 58 -34 99c0 25 3 49 13 69c7 12 17 21 29 31c-12 7 -20 16 -26 27c-10 20 -12 41 -12 64c0 37 6 69 33 93c21 18 48 26 79 26s59 -8 80 -26 c27 -24 33 -56 33 -93c0 -23 -2 -44 -13 -64c-6 -11 -13 -20 -25 -27c13 -10 23 -19 29 -31c11 -20 12 -44 12 -69zM708 123c0 31 -2 50 -10 58c-7 7 -15 10 -29 10c-13 0 -22 -3 -29 -10c-8 -8 -10 -23 -10 -58s2 -50 10 -58c7 -7 16 -10 29 -10c14 0 22 3 29 10 c8 8 10 23 10 58zM705 311c0 35 -2 45 -9 52s-14 9 -27 9c-12 0 -19 -2 -26 -9s-9 -17 -9 -52s2 -45 9 -52s14 -9 26 -9c13 0 20 2 27 9s9 17 9 52z" horiz-adv-x="831"/>
<glyph unicode="⅝" glyph-name="fiveeighths" d="M284 426c0 -53 -3 -91 -36 -118c-22 -19 -53 -28 -85 -28s-64 9 -85 27s-31 39 -31 76v18h83v-19c0 -29 14 -42 33 -42c15 0 24 3 31 10c10 11 13 30 13 76s-3 65 -13 75c-7 7 -16 10 -30 10c-20 0 -34 -13 -34 -35v-7h-80v243h228v-60h-151v-107c7 8 17 16 27 21 c8 5 23 7 37 7c34 0 53 -9 70 -26c15 -17 23 -46 23 -121zM580 712l-246 -712h-82l246 712h82zM786 122c0 -41 -2 -70 -34 -99c-20 -19 -51 -28 -82 -28s-62 9 -82 28c-32 29 -34 58 -34 99c0 25 3 49 13 69c7 12 17 21 29 31c-12 7 -20 16 -26 27c-10 20 -12 41 -12 64 c0 37 6 69 33 93c21 18 48 26 79 26s59 -8 80 -26c27 -24 33 -56 33 -93c0 -23 -2 -44 -13 -64c-6 -11 -13 -20 -25 -27c13 -10 23 -19 29 -31c11 -20 12 -44 12 -69zM709 123c0 31 -2 50 -10 58c-7 7 -15 10 -29 10c-13 0 -22 -3 -29 -10c-8 -8 -10 -23 -10 -58 s2 -50 10 -58c7 -7 16 -10 29 -10c14 0 22 3 29 10c8 8 10 23 10 58zM706 311c0 35 -2 45 -9 52s-14 9 -27 9c-12 0 -19 -2 -26 -9s-9 -17 -9 -52s2 -45 9 -52s14 -9 26 -9c13 0 20 2 27 9s9 17 9 52z" horiz-adv-x="832"/>
<glyph unicode="⅞" glyph-name="seveneighths" d="M283 650l-107 -365h-77l108 367h-100v-60h-70v120h246v-62zM580 712l-246 -712h-82l246 712h82zM786 122c0 -41 -2 -70 -34 -99c-20 -19 -51 -28 -82 -28s-62 9 -82 28c-32 29 -34 58 -34 99c0 25 3 49 13 69c7 12 17 21 29 31c-12 7 -20 16 -26 27c-10 20 -12 41 -12 64 c0 37 6 69 33 93c21 18 48 26 79 26s59 -8 80 -26c27 -24 33 -56 33 -93c0 -23 -2 -44 -13 -64c-6 -11 -13 -20 -25 -27c13 -10 23 -19 29 -31c11 -20 12 -44 12 -69zM709 123c0 31 -2 50 -10 58c-7 7 -15 10 -29 10c-13 0 -22 -3 -29 -10c-8 -8 -10 -23 -10 -58 s2 -50 10 -58c7 -7 16 -10 29 -10c14 0 22 3 29 10c8 8 10 23 10 58zM706 311c0 35 -2 45 -9 52s-14 9 -27 9c-12 0 -19 -2 -26 -9s-9 -17 -9 -52s2 -45 9 -52s14 -9 26 -9c13 0 20 2 27 9s9 17 9 52z" horiz-adv-x="832"/>
<glyph unicode="⅟" glyph-name="uni215F" d="M223 285h-77v349l-74 -47v76l75 49h76v-427zM580 712l-246 -712h-82l246 712h82z" horiz-adv-x="510"/>
<glyph unicode="↉" glyph-name="uni2189" d="M280 386c0 -35 -12 -60 -32 -79c-19 -17 -55 -27 -87 -27c-31 0 -67 10 -86 27c-20 19 -32 44 -32 79v225c0 35 12 61 32 79c19 17 54 27 86 27c33 0 68 -10 87 -27c20 -18 32 -44 32 -79v-225zM203 382v233c0 31 -17 42 -42 42c-24 0 -42 -11 -42 -42v-233 c0 -31 19 -42 43 -42c25 0 41 11 41 42zM581 712l-246 -712h-82l246 712h82zM793 120c0 -46 -3 -73 -34 -98c-20 -18 -52 -27 -85 -27s-64 10 -86 28c-21 17 -31 38 -31 80v18h77v-20c0 -19 3 -28 10 -35c8 -7 18 -11 30 -11c13 0 24 5 30 11c8 10 12 23 12 59s-3 47 -11 57 c-7 9 -17 13 -32 13h-25v57h25c12 0 21 3 27 9c12 11 13 29 13 56c0 25 -3 38 -11 45c-7 7 -15 10 -28 10c-11 0 -21 -3 -28 -10s-10 -18 -10 -31v-24h-77v20c0 38 11 61 32 78c21 18 49 27 83 27c37 0 64 -10 82 -26c23 -20 34 -51 34 -88c0 -26 -3 -48 -15 -67 c-7 -11 -17 -21 -31 -27c15 -8 26 -18 34 -30c10 -17 15 -35 15 -74z" horiz-adv-x="832"/>
<glyph unicode="←" glyph-name="arrowleft" d="M672 235h-463l210 -208h-136l-259 258l259 258h136l-210 -207h463v-101z" horiz-adv-x="719"/>
<glyph unicode="↑" glyph-name="arrowup" d="M618 225l-208 209v-463h-101v463l-208 -209v136l258 258l259 -258v-136z" horiz-adv-x="719"/>
<glyph unicode="→" glyph-name="arrowright" d="M695 285l-259 -258h-136l210 208h-463v101h463l-210 207h136z" horiz-adv-x="719"/>
<glyph unicode="↓" glyph-name="arrowdown" d="M618 210l-259 -259l-258 259v136l208 -210v463h101v-463l208 210v-136z" horiz-adv-x="719"/>
<glyph unicode="↖" glyph-name="uni2196" d="M592 429h-295l327 -327l-71 -71l-328 327l1 -295l-96 96v366h365z" horiz-adv-x="719"/>
<glyph unicode="↗" glyph-name="uni2197" d="M493 62v295l-327 -327l-71 71l327 328l-295 -1l96 96h366v-365z" horiz-adv-x="719"/>
<glyph unicode="↘" glyph-name="uni2198" d="M588 412v-365h-365l-97 96l296 -2l-327 328l71 71l327 -327l-1 295z" horiz-adv-x="719"/>
<glyph unicode="↙" glyph-name="uni2199" d="M496 46h-365v365l96 97l-2 -296l328 327l71 -71l-327 -327l295 1z" horiz-adv-x="719"/>
<glyph unicode="∂" glyph-name="partialdiff" d="M360 264c0 -89 -5 -171 -38 -217c-30 -42 -73 -55 -123 -55c-51 0 -94 14 -124 52c-33 43 -38 117 -38 201c0 107 3 176 38 215c24 28 53 39 93 39c19 0 37 -5 53 -14c11 -6 27 -19 32 -27v63c0 48 -4 68 -14 82c-11 14 -26 22 -45 22c-24 0 -45 -11 -60 -28l-69 67 c34 36 77 55 134 55c47 0 87 -11 114 -39c28 -28 47 -57 47 -169v-247zM254 245c0 71 -2 116 -16 139c-8 13 -24 20 -39 20c-16 0 -32 -7 -40 -20c-14 -23 -16 -68 -16 -139s1 -117 16 -139c8 -13 24 -19 40 -19c15 0 31 6 39 19c15 22 16 68 16 139z" horiz-adv-x="412"/>
<glyph unicode="∆" glyph-name="Delta" d="M462 0h-457l175 712h109zM324 101l-90 439l-90 -439h180z" horiz-adv-x="468"/>
<glyph unicode="∏" glyph-name="product" d="M423 -190h-112v849h-139v-849h-112v950h363v-950z" horiz-adv-x="483"/>
<glyph unicode="∑" glyph-name="summation" d="M353 -192h-322v84l141 404l-136 380v84h317v-101h-199l106 -315v-102l-111 -333h204v-101z" horiz-adv-x="392"/>
<glyph unicode="−" glyph-name="minus" d="M413 238h-369v101h369v-101z" horiz-adv-x="457"/>
<glyph unicode="∙" glyph-name="uni2219" d="M391 290c0 -90 -73 -163 -163 -163s-163 73 -163 163s73 163 163 163s163 -73 163 -163z" horiz-adv-x="457"/>
<glyph unicode="√" glyph-name="radical" d="M469 611h-83l-143 -611h-117l-122 522h122l58 -357l101 547h184v-101z" horiz-adv-x="492"/>
<glyph unicode="∞" glyph-name="infinity" d="M612 288c0 -81 -51 -145 -147 -145c-54 0 -98 28 -137 72c-39 -44 -84 -72 -138 -72c-96 0 -147 64 -147 145s51 145 147 145c53 0 99 -29 138 -73c39 44 82 73 137 73c96 0 147 -64 147 -145zM514 285c0 31 -22 50 -49 50s-47 -23 -69 -50c22 -27 42 -49 69 -49 s49 18 49 49zM259 285c-22 27 -42 50 -69 50s-49 -19 -49 -50s22 -49 49 -49s47 22 69 49z" horiz-adv-x="655"/>
<glyph unicode="∫" glyph-name="integral" d="M280 624h-31c-24 0 -41 -18 -41 -45v-619c0 -48 -14 -82 -37 -104c-24 -24 -59 -36 -95 -36h-46v95h31c24 0 41 19 41 46v618c0 48 14 82 37 104c24 24 59 36 95 36h46v-95z" horiz-adv-x="310"/>
<glyph unicode="≈" glyph-name="approxequal" d="M434 371c-47 -47 -82 -66 -126 -66c-36 0 -60 11 -88 26c-21 11 -40 19 -66 19s-43 -10 -66 -33l-65 64c47 47 82 66 126 66c36 0 61 -10 89 -25c21 -11 39 -20 65 -20s43 10 66 33zM434 189c-47 -47 -82 -66 -126 -66c-36 0 -60 11 -88 26c-21 11 -40 19 -66 19 s-42 -10 -65 -33l-66 64c47 47 82 66 126 66c36 0 61 -10 89 -25c21 -11 39 -20 65 -20s43 10 66 33z" horiz-adv-x="457"/>
<glyph unicode="≠" glyph-name="notequal" d="M424 148h-235l-76 -110l-78 51l42 59h-43v101h110l57 79h-167v102h235l76 110l77 -52l-41 -58h43v-102h-111l-57 -79h168v-101z" horiz-adv-x="457"/>
<glyph unicode="≤" glyph-name="lessequal" d="M367 191l-333 194v74l333 194v-116l-203 -115l203 -115v-116zM367 -11l-333 195v111l333 -194v-112z" horiz-adv-x="401"/>
<glyph unicode="≥" glyph-name="greaterequal" d="M367 385l-333 -194v116l203 115l-203 115v116l333 -194v-74zM367 184l-333 -195v112l333 194v-111z" horiz-adv-x="401"/>
<glyph unicode="⋅" glyph-name="dotmath" d="M308 209h-160v160h160v-160z" horiz-adv-x="457"/>
<glyph unicode="◊" glyph-name="lozenge" d="M449 334l-202 -281l-202 281l202 281zM336 334l-89 125l-89 -125l89 -125z" horiz-adv-x="494"/>
<glyph unicode="ﬁ" glyph-name="fi" d="M252 432h-73v-432h-106v432h-54v81h54v45c0 62 20 101 53 127c35 27 77 33 126 33v-95c-49 0 -73 -23 -73 -71v-39h73v-81zM411 0h-106v513h106v-513zM416 594h-117v117h117v-117z" horiz-adv-x="463"/>
<glyph unicode="ﬂ" glyph-name="fl" d="M252 432h-73v-432h-106v432h-54v81h54v45c0 62 20 101 53 127c35 27 77 33 126 33v-95c-49 0 -73 -23 -73 -71v-39h73v-81zM483 0c-49 0 -90 5 -125 32c-33 25 -53 65 -53 128v552h106v-546c0 -47 23 -71 72 -71v-95z" horiz-adv-x="500"/>
<glyph glyph-name="i.latn_TRK" d="M158 0h-106v513h106v-513zM163 594h-117v117h117v-117z" horiz-adv-x="210"/>
<glyph glyph-name="Ldot.latn_CAT" d="M359 0h-299v712h112v-611h187v-101zM356 308h-100v100h100v-100z" horiz-adv-x="383"/>
<glyph glyph-name="ldot.latn_CAT" d="M227 0c-49 0 -90 5 -125 32c-33 25 -53 65 -53 128v552h106v-546c0 -47 23 -71 72 -71v-95zM305 250h-100v100h100v-100z" horiz-adv-x="304"/>
<glyph glyph-name="zero.numr" d="M280 386c0 -35 -12 -60 -32 -79c-19 -17 -55 -27 -87 -27c-31 0 -67 10 -86 27c-20 19 -32 44 -32 79v225c0 35 12 61 32 79c19 17 54 27 86 27c33 0 68 -10 87 -27c20 -18 32 -44 32 -79v-225zM203 382v233c0 31 -17 42 -42 42c-24 0 -42 -11 -42 -42v-233 c0 -31 19 -42 43 -42c25 0 41 11 41 42z" horiz-adv-x="323"/>
<glyph glyph-name="one.numr" d="M223 285h-77v349l-74 -47v76l75 49h76v-427z" horiz-adv-x="322"/>
<glyph glyph-name="two.numr" d="M279 285h-231v56l133 203c13 21 21 43 21 72c0 26 -17 41 -41 41c-26 0 -41 -15 -41 -43v-30h-77v28c0 37 11 60 33 78c21 18 52 27 85 27s59 -7 82 -24c21 -17 36 -43 36 -79c0 -31 -13 -66 -30 -92l-118 -177h148v-60z" horiz-adv-x="321"/>
<glyph glyph-name="three.numr" d="M282 405c0 -46 -3 -73 -34 -98c-20 -18 -52 -27 -85 -27s-64 10 -86 28c-21 17 -31 38 -31 80v18h77v-20c0 -19 3 -28 10 -35c8 -7 18 -11 30 -11c13 0 24 5 30 11c8 10 12 23 12 59s-3 47 -11 57c-7 9 -17 13 -32 13h-25v57h25c12 0 21 3 27 9c12 11 13 29 13 56 c0 25 -3 38 -11 45c-7 7 -15 10 -28 10c-11 0 -21 -3 -28 -10s-10 -18 -10 -31v-24h-77v20c0 38 11 61 32 78c21 18 49 27 83 27c37 0 64 -10 82 -26c23 -20 34 -51 34 -88c0 -26 -3 -48 -15 -67c-7 -11 -17 -21 -31 -27c15 -8 26 -18 34 -30c10 -17 15 -35 15 -74z" horiz-adv-x="321"/>
<glyph glyph-name="four.numr" d="M285 348h-33v-63h-77v63h-146v60l109 304h73l-106 -304h70v70h77v-70h33v-60z" horiz-adv-x="322"/>
<glyph glyph-name="five.numr" d="M284 426c0 -53 -3 -91 -36 -118c-22 -19 -53 -28 -85 -28s-64 9 -85 27s-31 39 -31 76v18h83v-19c0 -29 14 -42 33 -42c15 0 24 3 31 10c10 11 13 30 13 76s-3 65 -13 75c-7 7 -16 10 -30 10c-20 0 -34 -13 -34 -35v-7h-80v243h228v-60h-151v-107c7 8 17 16 27 21 c8 5 23 7 37 7c34 0 53 -9 70 -26c15 -17 23 -46 23 -121z" horiz-adv-x="322"/>
<glyph glyph-name="six.numr" d="M274 416c0 -52 -9 -77 -23 -97c-20 -28 -55 -39 -94 -39c-43 0 -75 15 -91 39c-18 26 -24 51 -24 97c0 34 8 69 18 94l80 202h86l-71 -168c8 4 14 5 26 5c26 0 50 -9 67 -29c17 -21 26 -46 26 -104zM197 419c0 31 -2 56 -11 67c-5 7 -15 12 -28 12s-23 -5 -28 -12 c-9 -11 -11 -36 -11 -67s2 -56 11 -67c5 -7 15 -12 28 -12s23 5 28 12c9 11 11 36 11 67z" horiz-adv-x="322"/>
<glyph glyph-name="seven.numr" d="M283 650l-107 -365h-77l108 367h-100v-60h-70v120h246v-62z" horiz-adv-x="322"/>
<glyph glyph-name="eight.numr" d="M276 407c0 -41 -2 -70 -34 -99c-20 -19 -51 -28 -82 -28s-62 9 -82 28c-32 29 -34 58 -34 99c0 25 3 49 13 69c7 12 17 21 29 31c-12 7 -20 16 -26 27c-10 20 -12 41 -12 64c0 37 6 69 33 93c21 18 48 26 79 26s59 -8 80 -26c27 -24 33 -56 33 -93c0 -23 -2 -44 -13 -64 c-6 -11 -13 -20 -25 -27c13 -10 23 -19 29 -31c11 -20 12 -44 12 -69zM199 408c0 31 -2 50 -10 58c-7 7 -15 10 -29 10c-13 0 -22 -3 -29 -10c-8 -8 -10 -23 -10 -58s2 -50 10 -58c7 -7 16 -10 29 -10c14 0 22 3 29 10c8 8 10 23 10 58zM196 596c0 35 -2 45 -9 52 s-14 9 -27 9c-12 0 -19 -2 -26 -9s-9 -17 -9 -52s2 -45 9 -52s14 -9 26 -9c13 0 20 2 27 9s9 17 9 52z" horiz-adv-x="322"/>
<glyph glyph-name="nine.numr" d="M275 581c0 -34 -8 -69 -18 -94l-79 -202h-87l71 168c-8 -4 -13 -5 -26 -5c-26 0 -50 9 -66 29c-17 21 -26 46 -26 104c0 52 9 77 23 97c20 28 55 39 94 39c42 0 74 -15 91 -39c18 -26 23 -51 23 -97zM199 578c0 31 -2 56 -11 67c-5 7 -15 12 -29 12c-13 0 -23 -5 -28 -12 c-8 -12 -10 -36 -10 -67s2 -55 10 -67c5 -7 15 -12 28 -12c14 0 24 5 29 12c9 11 11 36 11 67z" horiz-adv-x="322"/>
<glyph glyph-name="zero.dnom" d="M280 101c0 -35 -12 -60 -32 -79c-19 -17 -55 -27 -87 -27c-31 0 -67 10 -86 27c-20 19 -32 44 -32 79v225c0 35 12 61 32 79c19 17 54 27 86 27c33 0 68 -10 87 -27c20 -18 32 -44 32 -79v-225zM203 97v233c0 31 -17 42 -42 42c-24 0 -42 -11 -42 -42v-233 c0 -31 19 -42 43 -42c25 0 41 11 41 42z" horiz-adv-x="323"/>
<glyph glyph-name="one.dnom" d="M223 0h-77v349l-74 -47v76l75 49h76v-427z" horiz-adv-x="322"/>
<glyph glyph-name="two.dnom" d="M279 0h-231v56l133 203c13 21 21 43 21 72c0 26 -17 41 -41 41c-26 0 -41 -15 -41 -43v-30h-77v28c0 37 11 60 33 78c21 18 52 27 85 27s59 -7 82 -24c21 -17 36 -43 36 -79c0 -31 -13 -66 -30 -92l-118 -177h148v-60z" horiz-adv-x="321"/>
<glyph glyph-name="three.dnom" d="M282 120c0 -46 -3 -73 -34 -98c-20 -18 -52 -27 -85 -27s-64 10 -86 28c-21 17 -31 38 -31 80v18h77v-20c0 -19 3 -28 10 -35c8 -7 18 -11 30 -11c13 0 24 5 30 11c8 10 12 23 12 59s-3 47 -11 57c-7 9 -17 13 -32 13h-25v57h25c12 0 21 3 27 9c12 11 13 29 13 56 c0 25 -3 38 -11 45c-7 7 -15 10 -28 10c-11 0 -21 -3 -28 -10s-10 -18 -10 -31v-24h-77v20c0 38 11 61 32 78c21 18 49 27 83 27c37 0 64 -10 82 -26c23 -20 34 -51 34 -88c0 -26 -3 -48 -15 -67c-7 -11 -17 -21 -31 -27c15 -8 26 -18 34 -30c10 -17 15 -35 15 -74z" horiz-adv-x="321"/>
<glyph glyph-name="four.dnom" d="M285 63h-33v-63h-77v63h-146v60l109 304h73l-106 -304h70v70h77v-70h33v-60z" horiz-adv-x="322"/>
<glyph glyph-name="five.dnom" d="M284 141c0 -53 -3 -91 -36 -118c-22 -19 -53 -28 -85 -28s-64 9 -85 27s-31 39 -31 76v18h83v-19c0 -29 14 -42 33 -42c15 0 24 3 31 10c10 11 13 30 13 76s-3 65 -13 75c-7 7 -16 10 -30 10c-20 0 -34 -13 -34 -35v-7h-80v243h228v-60h-151v-107c7 8 17 16 27 21 c8 5 23 7 37 7c34 0 53 -9 70 -26c15 -17 23 -46 23 -121z" horiz-adv-x="322"/>
<glyph glyph-name="six.dnom" d="M274 131c0 -52 -9 -77 -23 -97c-20 -28 -55 -39 -94 -39c-43 0 -75 15 -91 39c-18 26 -24 51 -24 97c0 34 8 69 18 94l80 202h86l-71 -168c8 4 14 5 26 5c26 0 50 -9 67 -29c17 -21 26 -46 26 -104zM197 134c0 31 -2 56 -11 67c-5 7 -15 12 -28 12s-23 -5 -28 -12 c-9 -11 -11 -36 -11 -67s2 -56 11 -67c5 -7 15 -12 28 -12s23 5 28 12c9 11 11 36 11 67z" horiz-adv-x="322"/>
<glyph glyph-name="seven.dnom" d="M283 365l-107 -365h-77l108 367h-100v-60h-70v120h246v-62z" horiz-adv-x="322"/>
<glyph glyph-name="eight.dnom" d="M276 122c0 -41 -2 -70 -34 -99c-20 -19 -51 -28 -82 -28s-62 9 -82 28c-32 29 -34 58 -34 99c0 25 3 49 13 69c7 12 17 21 29 31c-12 7 -20 16 -26 27c-10 20 -12 41 -12 64c0 37 6 69 33 93c21 18 48 26 79 26s59 -8 80 -26c27 -24 33 -56 33 -93c0 -23 -2 -44 -13 -64 c-6 -11 -13 -20 -25 -27c13 -10 23 -19 29 -31c11 -20 12 -44 12 -69zM199 123c0 31 -2 50 -10 58c-7 7 -15 10 -29 10c-13 0 -22 -3 -29 -10c-8 -8 -10 -23 -10 -58s2 -50 10 -58c7 -7 16 -10 29 -10c14 0 22 3 29 10c8 8 10 23 10 58zM196 311c0 35 -2 45 -9 52 s-14 9 -27 9c-12 0 -19 -2 -26 -9s-9 -17 -9 -52s2 -45 9 -52s14 -9 26 -9c13 0 20 2 27 9s9 17 9 52z" horiz-adv-x="322"/>
<glyph glyph-name="nine.dnom" d="M275 296c0 -34 -8 -69 -18 -94l-79 -202h-87l71 168c-8 -4 -13 -5 -26 -5c-26 0 -50 9 -66 29c-17 21 -26 46 -26 104c0 52 9 77 23 97c20 28 55 39 94 39c42 0 74 -15 91 -39c18 -26 23 -51 23 -97zM199 293c0 31 -2 56 -11 67c-5 7 -15 12 -29 12c-13 0 -23 -5 -28 -12 c-8 -12 -10 -36 -10 -67s2 -55 10 -67c5 -7 15 -12 28 -12c14 0 24 5 29 12c9 11 11 36 11 67z" horiz-adv-x="322"/>
<glyph glyph-name="space.frac" horiz-adv-x="35"/>
<glyph glyph-name="zero.osf" d="M249 148v298c0 41 -22 61 -52 61c-29 0 -52 -20 -52 -61v-298c0 -41 23 -61 52 -61c30 0 52 20 52 61zM197 -8c-43 0 -86 14 -114 42s-44 61 -44 118v290c0 57 16 91 44 118c28 28 71 42 114 42s86 -14 114 -42c30 -29 44 -61 44 -118v-290c0 -57 -16 -90 -44 -118 s-71 -42 -114 -42z" horiz-adv-x="401"/>
<glyph glyph-name="one.osf" d="M254 0h-106v474l-107 -86v120l107 86h106v-594z" horiz-adv-x="331"/>
<glyph glyph-name="two.osf" d="M354 0h-323v90l174 235c34 46 38 73 38 120c0 41 -22 62 -52 62c-29 0 -53 -20 -53 -61v-41h-106v37c0 57 16 91 44 118c29 28 72 42 115 42s82 -11 111 -38c27 -26 47 -65 47 -123c0 -66 -17 -105 -46 -144l-149 -202h200v-95z" horiz-adv-x="388"/>
<glyph glyph-name="three.osf" d="M350 85c0 -76 -1 -126 -47 -169c-28 -27 -70 -42 -114 -42c-47 0 -87 16 -114 42c-29 27 -45 60 -45 118v42h106v-45c0 -42 24 -62 53 -62c18 0 30 8 38 19c15 18 17 60 17 104c0 48 -1 83 -16 103c-9 12 -21 19 -39 19h-36v89h36c15 0 26 6 34 14c15 18 16 53 16 90 c0 36 -1 67 -15 84c-8 10 -18 16 -35 16c-27 0 -48 -19 -48 -57v-50h-106v43c0 55 16 91 44 118c28 28 67 41 110 41c48 0 85 -15 110 -40c32 -31 46 -78 46 -148c0 -49 -2 -82 -18 -113c-9 -17 -22 -32 -39 -42c17 -13 31 -26 41 -43c19 -35 21 -70 21 -131z" horiz-adv-x="389"/>
<glyph glyph-name="four.osf" d="M385 30h-52v-153h-106v153h-198v95l183 504h103l-177 -504h89v127h106v-127h52v-95z" horiz-adv-x="414"/>
<glyph glyph-name="five.osf" d="M360 122c0 -94 -1 -157 -48 -204c-28 -28 -69 -44 -113 -44s-86 14 -114 41s-45 62 -45 119v35h106v-49c0 -43 23 -62 53 -62c17 0 29 5 39 19c16 21 16 76 16 135s0 104 -14 126c-9 15 -24 22 -41 22c-30 0 -53 -22 -53 -61v-15h-101v410h307v-95h-210v-191 c10 13 23 26 37 34c15 8 33 13 51 13c44 0 73 -14 96 -43c30 -37 34 -103 34 -190z" horiz-adv-x="397"/>
<glyph glyph-name="six.osf" d="M355 216c0 -95 -11 -134 -34 -167c-28 -40 -76 -57 -127 -57c-57 0 -100 21 -125 57c-27 40 -35 81 -35 167c0 64 11 122 29 168l125 328h110l-117 -288c12 9 29 12 44 12c37 0 71 -14 94 -44c26 -33 36 -71 36 -176zM249 218c0 56 -1 94 -16 113c-9 12 -23 18 -38 18 s-30 -6 -39 -18c-15 -19 -16 -57 -16 -113s1 -94 16 -113c9 -12 24 -18 39 -18s29 6 38 18c15 19 16 57 16 113z" horiz-adv-x="389"/>
<glyph glyph-name="seven.osf" d="M366 506l-189 -624h-104l186 617h-123v-95h-103v190h333v-88z" horiz-adv-x="395"/>
<glyph glyph-name="eight.osf" d="M360 201c0 -78 -5 -125 -47 -167c-27 -27 -70 -42 -113 -42c-44 0 -86 15 -114 42c-42 42 -47 89 -47 167c0 60 4 95 21 126c10 18 24 32 42 45c-17 13 -30 27 -39 44c-15 31 -19 63 -19 111c0 70 10 116 46 152c28 28 66 41 109 41s83 -13 110 -41 c36 -36 46 -82 46 -152c0 -48 -4 -80 -19 -111c-9 -17 -22 -31 -39 -44c18 -13 32 -27 42 -45c17 -31 21 -66 21 -126zM254 207c0 59 -2 86 -16 104c-9 11 -23 17 -38 17s-30 -6 -39 -17c-14 -18 -16 -45 -16 -104c0 -56 2 -85 16 -103c9 -11 24 -17 39 -17s29 6 38 17 c14 18 16 47 16 103zM249 521c0 61 -5 79 -17 92c-8 8 -19 12 -32 12s-25 -4 -33 -12c-12 -13 -17 -31 -17 -92s6 -79 18 -92c8 -8 19 -12 32 -12s24 4 32 12c12 13 17 31 17 92z" horiz-adv-x="398"/>
<glyph glyph-name="nine.osf" d="M356 378c0 -64 -11 -122 -29 -168l-125 -328h-110l117 288c-12 -9 -29 -12 -43 -12c-38 0 -71 14 -95 44c-26 33 -36 71 -36 176c0 95 11 132 35 167c28 40 75 57 126 57c57 0 100 -21 125 -57c27 -40 35 -81 35 -167zM250 376c0 56 -1 94 -16 113c-9 12 -23 18 -38 18 s-30 -6 -39 -18c-15 -19 -16 -57 -16 -113s1 -94 16 -113c9 -12 24 -18 39 -18s29 6 38 18c15 19 16 57 16 113z" horiz-adv-x="389"/>
<glyph glyph-name="zero.lf" d="M359 152c0 -57 -16 -91 -44 -118c-29 -28 -71 -42 -114 -42c-37 0 -81 10 -114 42c-30 29 -45 61 -45 118v408c0 57 15 89 45 118c29 28 70 42 114 42c43 0 85 -14 114 -42c28 -27 44 -61 44 -118v-408zM253 148v416c0 41 -23 61 -52 61c-30 0 -52 -20 -52 -61v-416 c0 -41 22 -61 52 -61c29 0 52 20 52 61z" horiz-adv-x="401"/>
<glyph glyph-name="one.lf" d="M242 0h-106v587l-106 -81v120l106 86h106v-712z" horiz-adv-x="313"/>
<glyph glyph-name="two.lf" d="M346 0h-314v90l178 346c16 31 30 75 30 127c0 41 -22 62 -52 62c-29 0 -53 -20 -53 -61v-46h-106v42c0 57 15 89 45 118s71 42 114 42c44 0 82 -12 111 -38c27 -26 47 -65 47 -123c0 -52 -17 -112 -40 -156l-160 -308h200v-95z" horiz-adv-x="375"/>
<glyph glyph-name="three.lf" d="M351 203c0 -76 -2 -126 -47 -169c-28 -27 -71 -42 -114 -42s-87 14 -115 42c-28 27 -44 60 -44 118v42h106v-45c0 -42 23 -62 53 -62c17 0 30 8 38 19c15 18 17 60 17 104c0 48 -1 83 -16 103c-9 12 -22 19 -40 19h-35v89h35c15 0 27 6 34 14c16 18 16 53 16 90 c0 36 -1 67 -14 84c-8 10 -19 16 -35 16c-27 0 -48 -19 -48 -57v-50h-106v43c0 55 14 89 44 118s67 41 110 41c48 0 84 -15 109 -40c33 -31 46 -78 46 -148c0 -49 -2 -82 -17 -113c-9 -17 -23 -32 -40 -42c18 -13 32 -26 41 -43c20 -35 22 -70 22 -131z" horiz-adv-x="385"/>
<glyph glyph-name="four.lf" d="M377 111h-49v-111h-106v111h-198v95l183 506h103l-177 -506h89v127h106v-127h49v-95z" horiz-adv-x="405"/>
<glyph glyph-name="five.lf" d="M360 231c0 -90 -1 -147 -48 -195c-27 -28 -70 -44 -113 -44c-44 0 -86 14 -114 41c-29 27 -45 61 -45 119v35h106v-37c0 -43 23 -63 53 -63c14 0 28 5 38 18c12 16 17 41 17 126c0 76 -2 106 -14 125c-10 15 -24 22 -41 22c-30 0 -53 -21 -53 -61v-15h-101v410h307v-95 h-210v-191c9 13 22 25 37 34s34 13 51 13c46 0 74 -15 96 -43c25 -30 34 -74 34 -199z" horiz-adv-x="394"/>
<glyph glyph-name="six.lf" d="M354 216c0 -95 -11 -134 -34 -167c-28 -40 -76 -57 -127 -57c-57 0 -100 21 -125 57c-27 40 -35 81 -35 167c0 64 11 122 29 168l125 328h110l-117 -288c12 9 29 12 44 12c37 0 71 -14 94 -44c26 -33 36 -71 36 -176zM248 218c0 56 -1 94 -16 113c-9 12 -23 18 -38 18 s-30 -6 -39 -18c-15 -19 -16 -57 -16 -113s1 -94 16 -113c9 -12 24 -18 39 -18s29 6 38 18c15 19 16 57 16 113z" horiz-adv-x="387"/>
<glyph glyph-name="seven.lf" d="M363 624l-182 -624h-105l180 617h-123v-95h-103v190h333v-88z" horiz-adv-x="386"/>
<glyph glyph-name="eight.lf" d="M358 201c0 -78 -5 -125 -47 -167c-27 -27 -70 -42 -113 -42c-44 0 -86 15 -114 42c-42 42 -47 89 -47 167c0 60 4 95 21 126c10 18 24 32 42 45c-17 13 -30 27 -39 44c-15 31 -19 63 -19 111c0 70 10 116 46 152c28 28 66 41 109 41s83 -13 110 -41 c36 -36 46 -82 46 -152c0 -48 -4 -80 -19 -111c-9 -17 -22 -31 -39 -44c18 -13 32 -27 42 -45c17 -31 21 -66 21 -126zM252 207c0 59 -2 86 -16 104c-9 11 -23 17 -38 17s-30 -6 -39 -17c-14 -18 -16 -45 -16 -104c0 -56 2 -85 16 -103c9 -11 24 -17 39 -17s29 6 38 17 c14 18 16 47 16 103zM247 521c0 61 -5 79 -17 92c-8 8 -19 12 -32 12s-25 -4 -33 -12c-12 -13 -17 -31 -17 -92s6 -79 18 -92c8 -8 19 -12 32 -12s24 4 32 12c12 13 17 31 17 92z" horiz-adv-x="394"/>
<glyph glyph-name="nine.lf" d="M354 496c0 -64 -11 -122 -29 -168l-125 -328h-110l117 288c-12 -9 -29 -12 -43 -12c-38 0 -71 14 -95 44c-26 33 -36 71 -36 176c0 95 11 132 35 167c28 40 75 57 126 57c57 0 100 -21 125 -57c27 -40 35 -81 35 -167zM248 494c0 56 -1 94 -16 113c-9 12 -23 18 -38 18 s-30 -6 -39 -18c-15 -19 -16 -57 -16 -113s1 -94 16 -113c9 -12 24 -18 39 -18s29 6 38 18c15 19 16 57 16 113z" horiz-adv-x="387"/>
<glyph glyph-name="zero.tosf" d="M253 148v298c0 41 -23 61 -52 61c-30 0 -52 -20 -52 -61v-298c0 -41 22 -61 52 -61c29 0 52 20 52 61zM201 -8c-44 0 -86 14 -115 42c-28 27 -44 61 -44 118v290c0 57 16 91 44 118c29 28 71 42 115 42c43 0 85 -14 114 -42c28 -27 44 -61 44 -118v-290 c0 -57 -16 -91 -44 -118c-29 -28 -71 -42 -114 -42z" horiz-adv-x="401"/>
<glyph glyph-name="one.tosf" d="M279 0h-106v474l-107 -86v120l107 86h106v-594z" horiz-adv-x="401"/>
<glyph glyph-name="two.tosf" d="M362 0h-323v90l174 235c34 46 38 73 38 120c0 41 -22 62 -52 62c-29 0 -53 -20 -53 -61v-41h-106v37c0 57 16 91 44 118c29 28 72 42 115 42s82 -11 111 -38c27 -26 47 -65 47 -123c0 -66 -17 -105 -46 -144l-149 -202h200v-95z" horiz-adv-x="401"/>
<glyph glyph-name="three.tosf" d="M354 85c0 -82 -2 -125 -47 -169c-27 -27 -70 -42 -113 -42c-44 0 -85 13 -115 42s-45 60 -45 118v42h106v-45c0 -42 24 -62 54 -62c17 0 30 8 38 19c15 18 16 60 16 104c0 48 -1 83 -16 103c-9 12 -21 19 -39 19h-35v89h35c15 0 26 6 34 14c15 18 16 53 16 90 c0 36 -1 67 -14 84c-8 10 -19 16 -35 16c-28 0 -49 -19 -49 -57v-50h-106v43c0 55 16 91 44 118c29 28 67 41 111 41c47 0 84 -15 109 -40c32 -31 46 -78 46 -148c0 -49 -2 -82 -18 -113c-9 -17 -22 -32 -39 -42c17 -13 31 -26 41 -43c19 -35 21 -70 21 -131z" horiz-adv-x="401"/>
<glyph glyph-name="four.tosf" d="M378 30h-52v-153h-106v153h-198v95l183 504h103l-177 -504h89v127h106v-127h52v-95z" horiz-adv-x="401"/>
<glyph glyph-name="five.tosf" d="M363 122c0 -94 -1 -157 -48 -204c-28 -28 -69 -44 -113 -44s-86 14 -114 41s-45 62 -45 119v35h106v-49c0 -43 23 -62 53 -62c17 0 29 5 39 19c16 21 16 76 16 135s0 104 -14 126c-9 15 -24 22 -41 22c-30 0 -53 -22 -53 -61v-15h-101v410h307v-95h-210v-191 c10 13 23 26 37 34c15 8 33 13 51 13c44 0 73 -14 96 -43c30 -37 34 -103 34 -190z" horiz-adv-x="401"/>
<glyph glyph-name="six.tosf" d="M361 216c0 -95 -11 -134 -34 -167c-28 -40 -76 -57 -127 -57c-57 0 -100 21 -125 57c-27 40 -35 81 -35 167c0 64 11 122 29 168l125 328h110l-117 -288c12 9 29 12 44 12c37 0 71 -14 94 -44c26 -33 36 -71 36 -176zM255 218c0 56 -1 94 -16 113c-9 12 -23 18 -38 18 s-30 -6 -39 -18c-15 -19 -16 -57 -16 -113s1 -94 16 -113c9 -12 24 -18 39 -18s29 6 38 18c15 19 16 57 16 113z" horiz-adv-x="401"/>
<glyph glyph-name="seven.tosf" d="M370 506l-189 -624h-104l186 617h-126v-95h-103v190h336v-88z" horiz-adv-x="401"/>
<glyph glyph-name="eight.tosf" d="M361 201c0 -78 -5 -125 -47 -167c-27 -27 -70 -42 -113 -42c-44 0 -86 15 -114 42c-42 42 -47 89 -47 167c0 60 4 95 21 126c10 18 24 32 42 45c-17 13 -30 27 -39 44c-15 31 -19 63 -19 111c0 70 10 116 46 152c28 28 66 41 109 41s83 -13 110 -41 c36 -36 46 -82 46 -152c0 -48 -4 -80 -19 -111c-9 -17 -22 -31 -39 -44c18 -13 32 -27 42 -45c17 -31 21 -66 21 -126zM255 207c0 59 -2 86 -16 104c-9 11 -23 17 -38 17s-30 -6 -39 -17c-14 -18 -16 -45 -16 -104c0 -56 2 -85 16 -103c9 -11 24 -17 39 -17s29 6 38 17 c14 18 16 47 16 103zM250 521c0 61 -5 79 -17 92c-8 8 -19 12 -32 12s-25 -4 -33 -12c-12 -13 -17 -31 -17 -92s6 -79 18 -92c8 -8 19 -12 32 -12s24 4 32 12c12 13 17 31 17 92z" horiz-adv-x="401"/>
<glyph glyph-name="nine.tosf" d="M362 378c0 -64 -11 -122 -29 -168l-125 -328h-110l117 288c-12 -9 -29 -12 -43 -12c-38 0 -71 14 -95 44c-26 33 -36 71 -36 176c0 95 11 132 35 167c28 40 75 57 126 57c57 0 100 -21 125 -57c27 -40 35 -81 35 -167zM256 376c0 56 -1 94 -16 113c-9 12 -23 18 -38 18 s-30 -6 -39 -18c-15 -19 -16 -57 -16 -113s1 -94 16 -113c9 -12 24 -18 39 -18s29 6 38 18c15 19 16 57 16 113z" horiz-adv-x="401"/>
<glyph glyph-name="uni2007.tosf" horiz-adv-x="401"/>
<glyph glyph-name="hyphen.case" d="M249 305h-202v101h202v-101z" horiz-adv-x="295"/>
<glyph glyph-name="exclamdown.case" d="M170 0h-106v513h106v-513zM179 589h-123v123h123v-123z" horiz-adv-x="257"/>
<glyph glyph-name="guillemotleft.case" d="M185 107l-161 249l161 248v-158l-61 -90l61 -92v-157zM367 107l-160 249l160 248v-158l-62 -90l62 -92v-157z" horiz-adv-x="414"/>
<glyph glyph-name="uni00AD.case" d="M249 305h-202v101h202v-101z" horiz-adv-x="295"/>
<glyph glyph-name="guillemotright.case" d="M389 356l-160 -249v157l61 92l-61 90v158zM207 356l-160 -249v157l62 92l-62 90v158z" horiz-adv-x="414"/>
<glyph glyph-name="questiondown.case" d="M370 186c0 -60 -12 -112 -47 -145c-28 -26 -66 -47 -120 -47c-53 0 -94 17 -122 46c-35 35 -48 79 -48 149c0 55 10 91 34 123l59 78c15 20 23 41 23 65v58h106v-70c0 -32 -13 -62 -31 -86l-59 -78c-22 -29 -26 -54 -26 -93c0 -35 4 -60 20 -78c11 -12 24 -19 43 -19 c18 0 32 7 43 19c18 20 19 50 19 78h106zM264 589h-123v123h123v-123z" horiz-adv-x="426"/>
<glyph glyph-name="endash.case" d="M413 305h-369v101h369v-101z" horiz-adv-x="457"/>
<glyph glyph-name="emdash.case" d="M665 305h-618v101h618v-101z" horiz-adv-x="711"/>
<glyph glyph-name="afii00208.case" d="M664 306h-617v100h617v-100z" horiz-adv-x="711"/>
<glyph glyph-name="guilsinglleft.case" d="M185 107l-161 249l161 248v-158l-61 -90l61 -92v-157z" horiz-adv-x="231"/>
<glyph glyph-name="guilsinglright.case" d="M207 356l-160 -249v157l60 92l-60 90v158z" horiz-adv-x="231"/>
<glyph glyph-name="caroncomma.ss01" d="M491 611l-79 -56v193h79v-137z" horiz-adv-x="500"/>
<glyph glyph-name="commaaccent.ss01" d="M253 -128c0 -55 -41 -98 -108 -98v61c24 0 40 17 40 37s-16 38 -40 38v60c67 0 108 -43 108 -98z"/>
<glyph glyph-name="commaturn.ss01" d="M256 569c-66 0 -108 43 -108 98s42 98 108 98v-60c-24 0 -39 -18 -39 -38s15 -37 39 -37v-61z"/>
<glyph glyph-name="exclam.ss01" d="M193 200h-106v512h106v-512zM210 66c0 -39 -31 -70 -70 -70s-70 31 -70 70s31 71 70 71s70 -32 70 -71z" horiz-adv-x="257"/>
<glyph glyph-name="period.ss01" d="M187 67c0 -39 -31 -71 -70 -71s-70 32 -70 71s31 70 70 70s70 -31 70 -70z" horiz-adv-x="234"/>
<glyph glyph-name="colon.ss01" d="M210 366c0 -39 -31 -70 -70 -70s-70 31 -70 70s31 71 70 71s70 -32 70 -71zM210 66c0 -39 -31 -70 -70 -70s-70 31 -70 70s31 71 70 71s70 -32 70 -71z" horiz-adv-x="257"/>
<glyph glyph-name="semicolon.ss01" d="M198 -65l-116 -85v274h116v-189zM210 366c0 -39 -31 -70 -70 -70s-70 31 -70 70s31 71 70 71s70 -32 70 -71z" horiz-adv-x="257"/>
<glyph glyph-name="question.ss01" d="M393 524c0 -55 -10 -91 -34 -123l-59 -79c-15 -20 -23 -41 -23 -65v-57h-106v69c0 32 13 62 31 86l59 79c22 29 26 54 26 93c0 35 -4 59 -20 77c-11 12 -24 19 -43 19c-18 0 -32 -6 -43 -18c-18 -20 -19 -50 -19 -78h-106c0 60 12 111 47 144c28 26 66 47 120 47 c53 0 94 -16 122 -45c35 -35 48 -79 48 -149zM294 66c0 -39 -31 -70 -70 -70s-70 31 -70 70s31 71 70 71s70 -32 70 -71z" horiz-adv-x="426"/>
<glyph glyph-name="at.ss01" d="M478 329c4 48 -11 69 -34 69c-13 0 -26 -5 -38 -21c-15 -19 -28 -60 -39 -112c-7 -34 -9 -56 -10 -73c-2 -48 15 -63 33 -63c16 0 28 8 40 23c18 25 26 46 39 112c4 23 8 44 9 65zM787 361c0 -168 -107 -321 -278 -321h-79l9 45c-28 -33 -58 -51 -92 -51 c-74 0 -99 60 -99 127c0 26 4 70 11 103c24 109 42 152 75 188c30 32 60 41 90 41c40 0 66 -21 81 -51l10 45h104l-74 -372c97 8 161 117 161 244c0 163 -96 271 -238 271c-181 0 -320 -187 -320 -398c0 -215 114 -338 293 -338h64l-15 -75h-64c-222 0 -365 162 -365 412 c0 272 190 475 409 475c189 0 317 -142 317 -345z" horiz-adv-x="837"/>
<glyph glyph-name="i.ss01" d="M158 0h-106v513h106v-513zM172 657c0 -37 -30 -67 -67 -67s-67 30 -67 67s30 67 67 67s67 -30 67 -67z" horiz-adv-x="210"/>
<glyph glyph-name="j.ss01" d="M158 -25c0 -63 -21 -102 -54 -127c-35 -27 -75 -33 -124 -33v95c48 0 72 18 72 71v532h106v-538zM172 657c0 -37 -30 -67 -67 -67s-67 30 -67 67s30 67 67 67s67 -30 67 -67z" horiz-adv-x="210"/>
<glyph glyph-name="exclamdown.ss01" d="M170 -185h-106v513h106v-513zM187 461c0 -39 -31 -70 -70 -70s-70 31 -70 70s31 70 70 70s70 -31 70 -70z" horiz-adv-x="257"/>
<glyph glyph-name="dieresis.ss01" d="M340 646c0 -30 -25 -55 -55 -55c-31 0 -56 25 -56 55c0 31 25 55 56 55c30 0 55 -24 55 -55zM170 646c0 -30 -25 -55 -55 -55c-31 0 -56 25 -56 55c0 31 25 55 56 55c30 0 55 -24 55 -55z" horiz-adv-x="399"/>
<glyph glyph-name="periodcentered.ss01" d="M226 301c0 -47 -39 -86 -86 -86s-86 39 -86 86s39 86 86 86s86 -39 86 -86z" horiz-adv-x="280"/>
<glyph glyph-name="cedilla.ss01" d="M253 -128c0 -55 -41 -98 -108 -98v61c24 0 40 17 40 37s-16 38 -40 38v60c67 0 108 -43 108 -98z"/>
<glyph glyph-name="questiondown.ss01" d="M370 1c0 -60 -12 -112 -47 -145c-28 -26 -66 -47 -120 -47c-53 0 -94 17 -122 46c-35 35 -48 79 -48 149c0 55 10 91 34 123l59 78c15 20 23 41 23 65v58h106v-70c0 -32 -13 -62 -31 -86l-59 -78c-22 -29 -26 -54 -26 -93c0 -35 4 -60 20 -78c11 -12 24 -19 43 -19 c18 0 32 7 43 19c18 20 19 50 19 78h106zM273 461c0 -39 -32 -70 -71 -70s-70 31 -70 70s31 70 70 70s71 -31 71 -70z" horiz-adv-x="426"/>
<glyph glyph-name="Adieresis.ss01" d="M462 0h-117l-29 141h-165l-28 -141h-118l175 712h109zM295 242l-61 298l-61 -298h122zM205 819c0 -31 -25 -55 -56 -55c-30 0 -55 24 -55 55c0 30 25 55 55 55c31 0 56 -25 56 -55zM375 819c0 -31 -25 -55 -56 -55c-30 0 -55 24 -55 55c0 30 25 55 55 55 c31 0 56 -25 56 -55z" horiz-adv-x="468"/>
<glyph glyph-name="Ccedilla.ss01" d="M413 189c-2 -64 -23 -119 -59 -152c-32 -30 -69 -45 -123 -45c-66 0 -109 26 -138 61c-47 56 -52 134 -52 303s5 247 52 303c29 35 72 61 138 61c54 0 93 -16 125 -46c36 -33 55 -87 57 -150h-112c-1 26 -5 52 -17 69c-10 16 -26 26 -53 26s-43 -11 -53 -27 c-22 -34 -25 -106 -25 -236s3 -202 25 -236c10 -16 26 -27 53 -27s43 10 53 26c12 18 16 44 17 70h112zM280 -128c0 -55 -41 -98 -108 -98v61c24 0 40 17 40 37s-16 38 -40 38v60c67 0 108 -43 108 -98z" horiz-adv-x="447"/>
<glyph glyph-name="Edieresis.ss01" d="M359 0h-299v712h299v-101h-187v-202h161v-101h-161v-207h187v-101zM184 819c0 -31 -25 -55 -56 -55c-30 0 -55 24 -55 55c0 30 25 55 55 55c31 0 56 -25 56 -55zM354 819c0 -31 -25 -55 -56 -55c-30 0 -55 24 -55 55c0 30 25 55 55 55c31 0 56 -25 56 -55z"/>
<glyph glyph-name="Idieresis.ss01" d="M172 0h-112v712h112v-712zM87 819c0 -31 -25 -55 -56 -55c-30 0 -55 24 -55 55c0 30 25 55 55 55c31 0 56 -25 56 -55zM257 819c0 -31 -25 -55 -56 -55c-30 0 -55 24 -55 55c0 30 25 55 55 55c31 0 56 -25 56 -55z" horiz-adv-x="232"/>
<glyph glyph-name="Odieresis.ss01" d="M421 356c0 -169 -4 -247 -52 -303c-29 -35 -72 -61 -138 -61s-109 26 -138 61c-47 57 -52 134 -52 303s5 246 52 303c29 35 72 61 138 61s109 -26 138 -61c48 -56 52 -134 52 -303zM309 356c0 130 -3 202 -24 236c-10 16 -27 27 -54 27s-43 -11 -53 -27 c-21 -34 -25 -106 -25 -236s4 -202 25 -236c10 -16 26 -27 53 -27s44 11 54 27c21 34 24 106 24 236zM202 819c0 -31 -25 -55 -56 -55c-30 0 -55 24 -55 55c0 30 25 55 55 55c31 0 56 -25 56 -55zM372 819c0 -31 -25 -55 -56 -55c-30 0 -55 24 -55 55c0 30 25 55 55 55 c31 0 56 -25 56 -55z" horiz-adv-x="462"/>
<glyph glyph-name="Udieresis.ss01" d="M417 175c0 -54 -18 -99 -49 -131c-34 -35 -79 -52 -132 -52s-99 17 -133 52c-31 32 -49 77 -49 131v537h112v-543c0 -51 32 -76 70 -76s69 25 69 76v543h112v-537zM206 819c0 -31 -25 -55 -56 -55c-30 0 -55 24 -55 55c0 30 25 55 55 55c31 0 56 -25 56 -55zM376 819 c0 -31 -25 -55 -56 -55c-30 0 -55 24 -55 55c0 30 25 55 55 55c31 0 56 -25 56 -55z" horiz-adv-x="471"/>
<glyph glyph-name="adieresis.ss01" d="M350 0h-100v45c-9 -13 -20 -27 -32 -35c-16 -11 -33 -18 -60 -18c-44 0 -72 13 -99 44c-21 25 -32 65 -32 118c0 48 17 90 49 118c26 23 60 36 121 36h47v73c0 39 -18 61 -51 61c-16 0 -27 -6 -35 -15c-11 -12 -16 -27 -16 -49h-106c0 42 12 81 45 114 c25 25 68 43 111 43c44 0 85 -11 112 -39c28 -28 46 -67 46 -124v-372zM244 155v78h-35c-23 0 -40 -2 -55 -16c-13 -12 -21 -38 -21 -59c0 -47 19 -73 55 -73c32 0 56 27 56 70zM335 646c0 -30 -24 -55 -55 -55c-30 0 -55 25 -55 55c0 31 25 55 55 55c31 0 55 -24 55 -55z M165 646c0 -30 -24 -55 -55 -55c-30 0 -55 25 -55 55c0 31 25 55 55 55c31 0 55 -24 55 -55z" horiz-adv-x="399"/>
<glyph glyph-name="ccedilla.ss01" d="M356 155c-3 -50 -17 -95 -46 -124c-27 -27 -65 -39 -112 -39c-50 0 -94 13 -125 56c-33 45 -37 127 -37 216s4 170 37 216c31 43 75 55 125 55c45 0 80 -9 111 -38c33 -32 44 -77 47 -124h-105c-1 17 -3 35 -14 49c-8 12 -22 19 -39 19c-16 0 -32 -8 -41 -22 c-14 -24 -15 -77 -15 -155s1 -131 15 -156c9 -14 25 -21 41 -21c17 0 31 7 39 18c11 15 13 31 14 50h105zM253 -128c0 -55 -41 -98 -108 -98v61c24 0 40 17 40 37s-16 38 -40 38v60c67 0 108 -43 108 -98z" horiz-adv-x="384"/>
<glyph glyph-name="edieresis.ss01" d="M360 233h-218c0 -60 3 -105 16 -125c8 -12 22 -21 41 -21c17 0 31 7 40 20c9 11 13 30 13 48h106c-2 -47 -13 -87 -45 -121c-28 -30 -65 -42 -114 -42c-47 0 -82 10 -114 43c-44 46 -49 133 -49 229c0 95 5 183 49 229c32 33 70 42 113 42c44 0 80 -9 113 -42 c42 -42 49 -134 49 -260zM254 311c0 62 -4 93 -15 109c-9 13 -21 21 -41 21s-32 -8 -41 -21c-11 -16 -15 -47 -15 -109h112zM338 646c0 -30 -24 -55 -55 -55c-30 0 -55 25 -55 55c0 31 25 55 55 55c31 0 55 -24 55 -55zM168 646c0 -30 -24 -55 -55 -55c-30 0 -55 25 -55 55 c0 31 25 55 55 55c31 0 55 -24 55 -55z" horiz-adv-x="394"/>
<glyph glyph-name="idieresis.ss01" d="M158 0h-106v513h106v-513zM245 646c0 -30 -24 -55 -55 -55c-30 0 -55 25 -55 55c0 31 25 55 55 55c31 0 55 -24 55 -55zM75 646c0 -30 -24 -55 -55 -55c-30 0 -55 25 -55 55c0 31 25 55 55 55c31 0 55 -24 55 -55z" horiz-adv-x="210"/>
<glyph glyph-name="odieresis.ss01" d="M360 264c0 -89 -4 -170 -37 -216c-31 -43 -74 -56 -125 -56s-94 13 -125 56c-33 46 -37 127 -37 216s4 170 37 216c31 43 74 55 125 55s94 -12 125 -55c33 -46 37 -127 37 -216zM254 264c0 78 -1 131 -15 155c-9 14 -25 22 -41 22s-32 -8 -41 -22 c-14 -24 -15 -77 -15 -155s1 -132 15 -156c9 -14 25 -21 41 -21s32 7 41 21c14 24 15 78 15 156zM338 646c0 -30 -24 -55 -55 -55c-30 0 -55 25 -55 55c0 31 25 55 55 55c31 0 55 -24 55 -55zM168 646c0 -30 -24 -55 -55 -55c-30 0 -55 25 -55 55c0 31 25 55 55 55 c31 0 55 -24 55 -55z"/>
<glyph glyph-name="divide.ss01" d="M413 229h-369v101h369v-101zM299 463c0 -38 -32 -70 -70 -70s-71 32 -71 70s33 71 71 71s70 -33 70 -71zM299 95c0 -38 -32 -70 -70 -70s-71 32 -71 70s33 71 71 71s70 -33 70 -71z" horiz-adv-x="457"/>
<glyph glyph-name="udieresis.ss01" d="M365 0h-101v40c-9 -12 -23 -26 -36 -33c-15 -9 -34 -15 -53 -15c-43 0 -72 13 -96 41c-21 24 -30 53 -30 114v380h106v-379c0 -41 23 -61 52 -61s52 20 52 61v379h106v-527zM345 646c0 -30 -24 -55 -55 -55c-30 0 -55 25 -55 55c0 31 25 55 55 55c31 0 55 -24 55 -55z M175 646c0 -30 -24 -55 -55 -55c-30 0 -55 25 -55 55c0 31 25 55 55 55c31 0 55 -24 55 -55z" horiz-adv-x="417"/>
<glyph glyph-name="ydieresis.ss01" d="M377 527l-148 -594c-26 -106 -101 -118 -197 -118v94c46 1 81 5 94 55l9 37l-131 526h117l70 -359l69 359h117zM333 646c0 -30 -24 -55 -55 -55c-30 0 -55 25 -55 55c0 31 25 55 55 55c31 0 55 -24 55 -55zM163 646c0 -30 -24 -55 -55 -55c-30 0 -55 25 -55 55 c0 31 25 55 55 55c31 0 55 -24 55 -55z" horiz-adv-x="382"/>
<glyph glyph-name="Aogonek.ss01" d="M462 0h-117l-29 141h-165l-28 -141h-118l175 712h109zM295 242l-61 298l-61 -298h122zM447 -226c-66 0 -108 43 -108 98s42 98 108 98v-60c-24 0 -39 -18 -39 -38s15 -37 39 -37v-61z" horiz-adv-x="468"/>
<glyph glyph-name="aogonek.ss01" d="M350 0h-100v45c-9 -13 -20 -27 -32 -35c-16 -11 -33 -18 -60 -18c-44 0 -72 13 -99 44c-21 25 -32 65 -32 118c0 48 17 90 49 118c26 23 60 36 121 36h47v73c0 39 -18 61 -51 61c-16 0 -27 -6 -35 -15c-11 -12 -16 -27 -16 -49h-106c0 42 12 81 45 114 c25 25 68 43 111 43c44 0 85 -11 112 -39c28 -28 46 -67 46 -124v-372zM244 155v78h-35c-23 0 -40 -2 -55 -16c-13 -12 -21 -38 -21 -59c0 -47 19 -73 55 -73c32 0 56 27 56 70zM338 -226c-66 0 -108 43 -108 98s42 98 108 98v-60c-24 0 -39 -18 -39 -38s15 -37 39 -37v-61z " horiz-adv-x="399"/>
<glyph glyph-name="Cdotaccent.ss01" d="M413 189c-2 -64 -23 -119 -59 -152c-32 -30 -69 -45 -123 -45c-66 0 -109 26 -138 61c-47 56 -52 134 -52 303s5 247 52 303c29 35 72 61 138 61c54 0 93 -16 125 -46c36 -33 55 -87 57 -150h-112c-1 26 -5 52 -17 69c-10 16 -26 26 -53 26s-43 -11 -53 -27 c-22 -34 -25 -106 -25 -236s3 -202 25 -236c10 -16 26 -27 53 -27s43 10 53 26c12 18 16 44 17 70h112zM287 818c0 -31 -25 -56 -56 -56c-30 0 -55 25 -55 56c0 30 25 55 55 55c31 0 56 -25 56 -55z" horiz-adv-x="447"/>
<glyph glyph-name="cdotaccent.ss01" d="M356 155c-3 -50 -17 -95 -46 -124c-27 -27 -65 -39 -112 -39c-50 0 -94 13 -125 56c-33 45 -37 127 -37 216s4 170 37 216c31 43 75 55 125 55c45 0 80 -9 111 -38c33 -32 44 -77 47 -124h-105c-1 17 -3 35 -14 49c-8 12 -22 19 -39 19c-16 0 -32 -8 -41 -22 c-14 -24 -15 -77 -15 -155s1 -131 15 -156c9 -14 25 -21 41 -21c17 0 31 7 39 18c11 15 13 31 14 50h105zM253 646c0 -30 -24 -55 -55 -55c-30 0 -55 25 -55 55c0 31 25 55 55 55c31 0 55 -24 55 -55z" horiz-adv-x="384"/>
<glyph glyph-name="dcaron.ss01" d="M356 0h-102v40c-5 -11 -24 -27 -35 -33c-15 -10 -34 -15 -53 -15c-40 0 -68 11 -93 41c-35 42 -37 117 -37 231s2 188 37 230c24 29 52 41 93 41c19 0 38 -5 53 -14c11 -6 22 -17 31 -28v219h106v-712zM250 150v227c0 23 -5 38 -16 49c-10 10 -21 15 -36 15 c-16 0 -30 -8 -39 -21c-14 -18 -17 -56 -17 -156s3 -139 17 -157c9 -13 23 -20 39 -20c15 0 26 4 36 14c11 11 16 26 16 49zM490 610l-79 -56v193h79v-137z" horiz-adv-x="408"/>
<glyph glyph-name="Edotaccent.ss01" d="M359 0h-299v712h299v-101h-187v-202h161v-101h-161v-207h187v-101zM263 818c0 -31 -25 -56 -56 -56c-30 0 -55 25 -55 56c0 30 25 55 55 55c31 0 56 -25 56 -55z"/>
<glyph glyph-name="edotaccent.ss01" d="M360 233h-218c0 -60 3 -105 16 -125c8 -12 22 -21 41 -21c17 0 31 7 40 20c9 11 13 30 13 48h106c-2 -47 -13 -87 -45 -121c-28 -30 -65 -42 -114 -42c-47 0 -82 10 -114 43c-44 46 -49 133 -49 229c0 95 5 183 49 229c32 33 70 42 113 42c44 0 80 -9 113 -42 c42 -42 49 -134 49 -260zM254 311c0 62 -4 93 -15 109c-9 13 -21 21 -41 21s-32 -8 -41 -21c-11 -16 -15 -47 -15 -109h112zM253 646c0 -30 -24 -55 -55 -55c-30 0 -55 25 -55 55c0 31 25 55 55 55c31 0 55 -24 55 -55z" horiz-adv-x="394"/>
<glyph glyph-name="Eogonek.ss01" d="M359 0h-299v712h299v-101h-187v-202h161v-101h-161v-207h187v-101zM349 -226c-66 0 -108 43 -108 98s42 98 108 98v-60c-24 0 -39 -18 -39 -38s15 -37 39 -37v-61z"/>
<glyph glyph-name="eogonek.ss01" d="M360 233h-218c0 -60 3 -105 16 -125c8 -12 22 -21 41 -21c17 0 31 7 40 20c9 11 13 30 13 48h106c-2 -47 -13 -87 -45 -121c-28 -30 -65 -42 -114 -42c-47 0 -82 10 -114 43c-44 46 -49 133 -49 229c0 95 5 183 49 229c32 33 70 42 113 42c44 0 80 -9 113 -42 c42 -42 49 -134 49 -260zM254 311c0 62 -4 93 -15 109c-9 13 -21 21 -41 21s-32 -8 -41 -21c-11 -16 -15 -47 -15 -109h112zM301 -226c-66 0 -108 43 -108 98s42 98 108 98v-60c-24 0 -39 -18 -39 -38s15 -37 39 -37v-61z" horiz-adv-x="394"/>
<glyph glyph-name="Gdotaccent.ss01" d="M413 190c0 -130 -75 -198 -182 -198c-66 0 -109 26 -138 61c-47 56 -52 134 -52 303s5 247 52 303c29 35 72 61 138 61c55 0 97 -18 127 -48c35 -36 53 -88 55 -149h-112c-1 39 -9 96 -70 96c-27 0 -43 -11 -53 -27c-22 -34 -25 -106 -25 -236s3 -202 25 -236 c10 -16 26 -27 53 -27c49 0 70 42 70 91v111h-70v92h182v-197zM287 818c0 -31 -25 -56 -56 -56c-30 0 -55 25 -55 56c0 30 25 55 55 55c31 0 56 -25 56 -55z" horiz-adv-x="455"/>
<glyph glyph-name="gdotaccent.ss01" d="M356 527v-537c0 -68 -16 -108 -45 -137c-27 -27 -71 -43 -114 -43c-44 0 -86 13 -114 41c-33 32 -44 73 -44 116h105c0 -20 4 -37 14 -50c9 -11 23 -16 39 -16s29 6 38 17c10 13 15 32 15 65v91c-8 -10 -18 -20 -29 -28c-15 -10 -32 -14 -53 -14c-40 0 -66 12 -90 39 c-34 40 -42 98 -42 213c0 114 8 172 42 212c24 27 50 39 90 39c21 0 40 -4 55 -14c12 -8 23 -18 31 -28v34h102zM250 187v190c0 23 -5 38 -16 49c-10 10 -21 15 -36 15s-30 -8 -39 -21c-14 -18 -17 -51 -17 -138s3 -120 17 -138c10 -12 24 -20 39 -20s26 4 36 14 c11 11 16 26 16 49zM253 646c0 -30 -24 -55 -55 -55c-30 0 -55 25 -55 55c0 31 25 55 55 55c31 0 55 -24 55 -55z" horiz-adv-x="408"/>
<glyph glyph-name="Gcommaaccent.ss01" d="M413 190c0 -130 -75 -198 -182 -198c-66 0 -109 26 -138 61c-47 56 -52 134 -52 303s5 247 52 303c29 35 72 61 138 61c55 0 97 -18 127 -48c35 -36 53 -88 55 -149h-112c-1 39 -9 96 -70 96c-27 0 -43 -11 -53 -27c-22 -34 -25 -106 -25 -236s3 -202 25 -236 c10 -16 26 -27 53 -27c49 0 70 42 70 91v111h-70v92h182v-197zM280 -128c0 -55 -41 -98 -108 -98v61c24 0 40 17 40 37s-16 38 -40 38v60c67 0 108 -43 108 -98z" horiz-adv-x="455"/>
<glyph glyph-name="gcommaaccent.ss01" d="M356 527v-537c0 -68 -16 -108 -45 -137c-27 -27 -71 -43 -114 -43c-44 0 -86 13 -114 41c-33 32 -44 73 -44 116h105c0 -20 4 -37 14 -50c9 -11 23 -16 39 -16s29 6 38 17c10 13 15 32 15 65v91c-8 -10 -18 -20 -29 -28c-15 -10 -32 -14 -53 -14c-40 0 -66 12 -90 39 c-34 40 -42 98 -42 213c0 114 8 172 42 212c24 27 50 39 90 39c21 0 40 -4 55 -14c12 -8 23 -18 31 -28v34h102zM250 187v190c0 23 -5 38 -16 49c-10 10 -21 15 -36 15s-30 -8 -39 -21c-14 -18 -17 -51 -17 -138s3 -120 17 -138c10 -12 24 -20 39 -20s26 4 36 14 c11 11 16 26 16 49zM256 569c-66 0 -108 43 -108 98s42 98 108 98v-60c-24 0 -39 -18 -39 -38s15 -37 39 -37v-61z" horiz-adv-x="408"/>
<glyph glyph-name="Iogonek.ss01" d="M172 0h-112v712h112v-712zM167 -226c-66 0 -108 43 -108 98s42 98 108 98v-60c-24 0 -39 -18 -39 -38s15 -37 39 -37v-61z" horiz-adv-x="232"/>
<glyph glyph-name="iogonek.ss01" d="M158 0h-106v513h106v-513zM172 657c0 -37 -30 -67 -67 -67s-67 30 -67 67s30 67 67 67s67 -30 67 -67zM156 -226c-66 0 -108 43 -108 98s42 98 108 98v-60c-24 0 -39 -18 -39 -38s15 -37 39 -37v-61z" horiz-adv-x="210"/>
<glyph glyph-name="Idotaccent.ss01" d="M172 0h-112v712h112v-712zM172 818c0 -31 -25 -56 -56 -56c-30 0 -55 25 -55 56c0 30 25 55 55 55c31 0 56 -25 56 -55z" horiz-adv-x="232"/>
<glyph glyph-name="ij.ss01" d="M158 0h-106v513h106v-513zM172 657c0 -37 -30 -67 -67 -67s-67 30 -67 67s30 67 67 67s67 -30 67 -67zM368 -25c0 -63 -21 -102 -54 -127c-35 -27 -75 -33 -124 -33v95c48 0 72 18 72 71v532h106v-538zM382 657c0 -37 -30 -67 -67 -67s-67 30 -67 67s30 67 67 67 s67 -30 67 -67z" horiz-adv-x="420"/>
<glyph glyph-name="Kcommaaccent.ss01" d="M462 0h-121l-115 293l-54 -110v-183h-112v712h112v-335l155 335h113l-143 -295zM303 -128c0 -55 -41 -98 -108 -98v61c24 0 40 17 40 37s-16 38 -40 38v60c67 0 108 -43 108 -98z" horiz-adv-x="469"/>
<glyph glyph-name="kcommaaccent.ss01" d="M409 0h-117l-89 222l-45 -71v-151h-106v712h106v-410l133 225h111l-131 -209zM269 -128c0 -55 -41 -98 -108 -98v61c24 0 40 17 40 37s-16 38 -40 38v60c67 0 108 -43 108 -98z" horiz-adv-x="416"/>
<glyph glyph-name="Lcommaaccent.ss01" d="M359 0h-299v712h112v-611h187v-101zM262 -128c0 -55 -41 -98 -108 -98v61c24 0 40 17 40 37s-16 38 -40 38v60c67 0 108 -43 108 -98z" horiz-adv-x="383"/>
<glyph glyph-name="lcommaaccent.ss01" d="M227 0c-49 0 -90 5 -125 32c-33 25 -53 65 -53 128v552h106v-546c0 -47 23 -71 72 -71v-95zM198 -128c0 -55 -41 -98 -108 -98v61c24 0 40 17 40 37s-16 38 -40 38v60c67 0 108 -43 108 -98z" horiz-adv-x="244"/>
<glyph glyph-name="Lcaron.ss01" d="M359 0h-299v712h112v-611h187v-101zM327 575l-79 -56v193h79v-137z" horiz-adv-x="383"/>
<glyph glyph-name="lcaron.ss01" d="M227 0c-49 0 -90 5 -125 32c-33 25 -53 65 -53 128v552h106v-546c0 -47 23 -71 72 -71v-95zM288 611l-79 -56v193h79v-137z" horiz-adv-x="244"/>
<glyph glyph-name="Ldot.ss01" d="M361 358c0 -30 -24 -55 -55 -55c-30 0 -55 25 -55 55c0 31 25 55 55 55c31 0 55 -24 55 -55zM359 0h-299v712h112v-611h187v-101z" horiz-adv-x="383"/>
<glyph glyph-name="ldot.ss01" d="M306 301c0 -30 -24 -55 -55 -55c-30 0 -55 25 -55 55c0 31 25 55 55 55c31 0 55 -24 55 -55zM227 0c-49 0 -90 5 -125 32c-33 25 -53 65 -53 128v552h106v-546c0 -47 23 -71 72 -71v-95z" horiz-adv-x="295"/>
<glyph glyph-name="Ncommaaccent.ss01" d="M439 0h-99l-168 423v-423h-112v712h100l167 -423v423h112v-712zM305 -128c0 -55 -41 -98 -108 -98v61c24 0 40 17 40 37s-16 38 -40 38v60c67 0 108 -43 108 -98z" horiz-adv-x="499"/>
<glyph glyph-name="ncommaaccent.ss01" d="M368 0h-106v379c0 41 -23 61 -52 61s-52 -20 -52 -61v-379h-106v527h102v-39c9 12 22 26 35 33c15 9 34 14 53 14c43 0 72 -13 96 -41c21 -24 30 -53 30 -114v-380zM264 -128c0 -55 -41 -98 -108 -98v61c24 0 40 17 40 37s-16 38 -40 38v60c67 0 108 -43 108 -98z" horiz-adv-x="417"/>
<glyph glyph-name="Rcommaaccent.ss01" d="M445 0h-117l-93 292h-63v-292h-112v712h180c130 0 182 -63 182 -210c0 -88 -18 -151 -83 -186zM310 502c0 59 -9 109 -69 109h-69v-218h69c60 0 69 50 69 109zM302 -128c0 -55 -41 -98 -108 -98v61c24 0 40 17 40 37s-16 38 -40 38v60c67 0 108 -43 108 -98z" horiz-adv-x="478"/>
<glyph glyph-name="rcommaaccent.ss01" d="M282 432h-36c-50 0 -88 -34 -88 -91v-341h-106v527h102v-56c11 16 28 31 46 42c23 14 51 22 82 22v-103zM165 -128c0 -55 -41 -98 -108 -98v61c24 0 40 17 40 37s-16 38 -40 38v60c67 0 108 -43 108 -98z" horiz-adv-x="299"/>
</font>
</defs>
</svg>
